<?xml version="1.0" standalone="no"?>
<!DOCTYPE svg PUBLIC "-//W3C//DTD SVG 20010904//EN"
 "http://www.w3.org/TR/2001/REC-SVG-20010904/DTD/svg10.dtd">
<svg version="1.0" xmlns="http://www.w3.org/2000/svg"
 width="179.000000pt" height="179.000000pt" viewBox="0 0 179.000000 179.000000"
 preserveAspectRatio="xMidYMid meet">
<metadata>
Created by potrace 1.10, written by Peter Selinger 2001-2011
</metadata>
<g transform="translate(0.000000,179.000000) scale(0.100000,-0.100000)"
fill="#000000" stroke="none">
<path d="M326 1782 c-6 -9 29 -42 44 -42 6 0 10 5 10 10 0 6 -7 10 -15 10 -8
0 -15 7 -15 15 0 16 -15 20 -24 7z"/>
<path d="M675 1780 c-3 -6 1 -13 9 -16 21 -8 20 -30 -1 -38 -14 -6 -14 -9 5
-26 23 -22 42 -26 42 -10 0 6 -7 10 -15 10 -8 0 -15 7 -15 15 0 9 7 18 15 21
8 4 15 10 15 15 0 5 -7 9 -15 9 -8 0 -15 7 -15 15 0 17 -16 20 -25 5z"/>
<path d="M1030 1779 c0 -14 25 -39 39 -39 6 0 11 5 11 10 0 6 -7 10 -15 10 -8
0 -15 7 -15 15 0 8 -4 15 -10 15 -5 0 -10 -5 -10 -11z"/>
<path d="M1380 1779 c0 -11 25 -39 35 -39 10 0 35 28 35 39 0 6 -4 11 -10 11
-5 0 -10 -7 -10 -15 0 -8 -7 -15 -15 -15 -8 0 -15 7 -15 15 0 8 -4 15 -10 15
-5 0 -10 -5 -10 -11z"/>
<path d="M1730 1779 c0 -13 25 -39 39 -39 11 0 26 39 17 47 -3 4 -6 -1 -6 -10
0 -9 -7 -17 -15 -17 -8 0 -15 7 -15 15 0 8 -4 15 -10 15 -5 0 -10 -5 -10 -11z"/>
<path d="M90 1715 c0 -8 -7 -15 -15 -15 -8 0 -15 -4 -15 -10 0 -15 19 -12 36
4 16 17 19 36 4 36 -5 0 -10 -7 -10 -15z"/>
<path d="M326 1722 c-6 -9 29 -42 44 -42 6 0 10 5 10 10 0 6 -7 10 -15 10 -8
0 -15 7 -15 15 0 16 -15 20 -24 7z"/>
<path d="M440 1715 c0 -8 -7 -15 -15 -15 -8 0 -15 -4 -15 -10 0 -15 19 -12 36
4 16 17 19 36 4 36 -5 0 -10 -7 -10 -15z"/>
<path d="M790 1715 c0 -8 -7 -15 -15 -15 -8 0 -15 -4 -15 -10 0 -13 11 -12 33
4 19 14 23 36 7 36 -5 0 -10 -7 -10 -15z"/>
<path d="M1030 1719 c0 -14 25 -39 39 -39 6 0 11 5 11 10 0 6 -7 10 -15 10 -8
0 -15 7 -15 15 0 8 -4 15 -10 15 -5 0 -10 -5 -10 -11z"/>
<path d="M1140 1715 c0 -8 -7 -15 -15 -15 -8 0 -15 -4 -15 -10 0 -15 19 -12
36 4 16 17 19 36 4 36 -5 0 -10 -7 -10 -15z"/>
<path d="M1380 1719 c0 -6 6 -17 14 -25 17 -16 36 -19 36 -4 0 6 -7 10 -15 10
-8 0 -15 7 -15 15 0 8 -4 15 -10 15 -5 0 -10 -5 -10 -11z"/>
<path d="M1490 1715 c0 -8 -7 -15 -15 -15 -8 0 -15 -4 -15 -10 0 -15 19 -12
36 4 16 17 19 36 4 36 -5 0 -10 -7 -10 -15z"/>
<path d="M1730 1719 c0 -13 25 -39 39 -39 11 0 26 39 17 47 -3 4 -6 -1 -6 -10
0 -9 -7 -17 -15 -17 -8 0 -15 7 -15 15 0 8 -4 15 -10 15 -5 0 -10 -5 -10 -11z"/>
<path d="M320 1540 c0 -5 7 -10 15 -10 21 0 19 -27 -2 -39 -17 -9 -17 -10 0
-16 9 -4 17 -13 17 -21 0 -20 -27 -17 -35 4 -6 16 -7 16 -16 0 -12 -22 -39
-24 -39 -3 0 8 -4 15 -10 15 -16 0 -12 -18 10 -40 24 -24 30 -25 30 -5 0 23
25 18 46 -10 10 -14 26 -25 34 -25 12 1 12 3 -2 14 -20 15 -24 36 -7 36 7 0
18 -8 25 -17 10 -13 13 -14 14 -4 0 7 -11 24 -25 37 -28 26 -32 44 -10 44 20
0 19 6 -5 30 -22 22 -40 26 -40 10z"/>
<path d="M670 1540 c0 -5 7 -10 15 -10 8 0 15 -7 15 -15 0 -15 12 -20 23 -9 7
7 -29 44 -43 44 -5 0 -10 -4 -10 -10z"/>
<path d="M1106 1539 c2 -4 -9 -10 -25 -14 -48 -10 -103 -67 -141 -144 -32 -67
-33 -73 -17 -82 24 -14 22 -65 -2 -79 -32 -16 -33 -44 -6 -116 27 -72 27 -94
-3 -94 -10 0 -33 -15 -51 -34 l-33 -34 -23 24 c-18 17 -35 24 -65 24 -44 0
-46 3 -25 40 20 35 19 94 -2 112 -24 20 -93 21 -100 1 -3 -8 -1 -19 5 -25 8
-8 14 -5 21 13 8 23 9 22 16 -12 8 -42 -1 -64 -55 -129 -20 -25 -42 -55 -48
-67 -14 -26 -156 -123 -180 -123 -15 0 -15 2 -2 11 13 9 13 10 0 6 -8 -2 -15
-9 -15 -16 0 -7 -38 -34 -84 -60 -81 -46 -85 -49 -123 -123 -65 -128 -61 -170
20 -189 76 -17 304 32 401 86 24 14 46 23 49 20 3 -3 -4 -33 -16 -68 -28 -78
-28 -87 4 -177 26 -74 25 -107 -1 -96 -8 3 -15 1 -15 -4 0 -6 69 -11 173 -12
180 -2 190 -1 247 6 19 2 44 4 54 5 11 1 16 4 12 8 -7 8 -391 5 -418 -3 -24
-7 -24 32 0 44 9 5 112 13 229 17 l211 7 -5 -41 c-4 -27 -2 -41 6 -41 6 0 11
17 11 39 0 34 4 40 30 51 20 8 47 10 78 6 26 -4 88 -10 138 -14 101 -8 127
-21 118 -58 -3 -13 -2 -24 4 -24 5 0 13 28 18 62 9 59 10 62 50 79 l41 17 33
-79 c19 -43 37 -79 42 -79 11 0 12 -3 -28 89 -22 51 -42 122 -54 189 -51 295
-77 345 -218 414 -46 24 -91 53 -100 66 -14 22 -14 29 8 85 13 34 28 91 34
126 9 50 16 66 33 72 25 9 38 38 19 45 -10 4 -12 22 -8 72 7 98 -10 129 -87
171 -42 22 -78 34 -111 35 -27 1 -47 -1 -44 -5z m130 -34 c28 -14 61 -37 75
-51 21 -23 24 -34 22 -107 0 -45 3 -87 9 -94 18 -22 -10 -23 -75 -3 -36 11
-98 25 -139 30 -40 6 -104 16 -142 23 -62 11 -68 14 -54 27 8 9 20 32 27 52
18 54 69 106 126 128 67 25 92 25 151 -5z m-161 -231 c55 -9 128 -23 163 -32
l63 -17 -7 -50 c-13 -98 -70 -235 -108 -260 -37 -25 -97 -30 -133 -12 -52 27
-103 92 -103 132 0 19 -9 52 -20 72 -11 21 -20 51 -20 66 0 20 6 30 20 34 16
4 20 14 20 44 0 46 -6 44 125 23z m-363 -159 c9 -20 7 -35 -10 -80 l-21 -55
42 0 c47 0 82 -19 90 -49 4 -18 0 -19 -49 -18 -30 2 -54 -1 -54 -5 0 -5 22 -8
49 -8 31 0 51 -5 54 -12 9 -27 -6 -38 -52 -39 -35 0 -41 -2 -26 -9 11 -5 32
-9 48 -9 19 -1 27 -6 27 -19 0 -27 -20 -42 -59 -43 -32 -2 -33 -3 -8 -6 37 -6
30 -25 -14 -36 -19 -5 -38 -13 -44 -18 -5 -5 -39 -9 -76 -9 l-67 0 -52 -57
c-28 -31 -63 -72 -78 -92 -66 -90 -80 -99 -161 -106 -144 -13 -164 23 -90 165
34 66 47 81 87 103 252 135 282 154 316 203 11 17 41 57 65 88 35 45 43 64 43
96 -1 47 21 55 40 15z m196 -164 c13 -37 50 -71 79 -71 12 0 38 -14 58 -31 19
-17 35 -27 35 -21 0 18 -61 62 -85 62 -38 0 -69 32 -61 63 8 32 21 35 36 7 6
-11 29 -34 52 -50 47 -34 118 -41 155 -15 20 14 22 14 28 -6 5 -16 2 -27 -13
-38 -11 -9 -29 -33 -39 -55 l-20 -39 -22 32 c-13 18 -26 30 -28 27 -3 -3 -26
9 -50 25 l-45 31 -34 -18 c-33 -18 -34 -18 -56 3 -13 12 -32 23 -43 25 -30 5
-30 37 1 69 34 36 40 36 52 0z m362 -44 c34 -57 34 -57 15 -57 -9 0 -35 -13
-58 -28 -70 -47 -71 -48 -56 -21 6 13 23 34 36 46 18 17 22 29 17 48 -7 27 0
55 13 55 4 0 19 -19 33 -43z m58 -33 c12 -8 29 -28 37 -44 28 -53 55 -206 55
-307 0 -54 3 -115 6 -135 6 -34 10 -38 35 -38 26 0 29 -3 29 -34 0 -55 -8 -68
-33 -54 -12 7 -65 15 -117 19 -52 4 -116 11 -141 14 -35 6 -49 3 -61 -9 -27
-27 -28 -19 -6 44 l22 60 103 -7 c92 -5 103 -4 109 12 11 27 -26 321 -47 384
-11 30 -17 62 -14 69 3 8 0 21 -6 28 -15 19 1 18 29 -2z m-433 -47 c4 -20 10
-56 36 -212 5 -33 14 -98 19 -144 6 -46 13 -88 17 -94 3 -5 40 -8 89 -5 81 4
83 4 72 -16 -6 -12 -14 -34 -18 -51 l-6 -30 -84 -2 c-170 -3 -346 -12 -366
-18 -17 -5 -22 0 -32 33 -7 22 -12 42 -12 45 0 8 60 18 150 25 47 4 84 11 84
17 -36 260 -47 392 -33 401 5 3 8 22 7 43 0 21 2 43 6 49 11 18 65 -13 71 -41z
m197 -157 c48 -75 88 -156 88 -177 0 -10 -9 -37 -19 -60 l-19 -41 -81 -4 -81
-3 -4 30 c-23 153 -31 204 -47 299 -10 60 -19 111 -19 113 0 2 11 3 24 3 13 0
29 7 36 15 11 13 18 6 50 -52 20 -37 53 -93 72 -123z m326 73 c7 -48 24 -126
37 -172 14 -47 28 -114 31 -149 6 -59 6 -65 -10 -59 -10 4 -22 7 -27 7 -5 0
-9 46 -9 103 0 103 -35 310 -60 357 -10 19 -10 21 7 12 14 -8 22 -31 31 -99z
m-346 55 c44 -38 49 -46 46 -75 -5 -42 5 -42 20 0 11 30 77 85 89 73 3 -2 -1
-35 -7 -73 -27 -153 -38 -207 -39 -190 -1 20 -35 84 -86 162 -50 77 -88 145
-80 145 3 0 29 -19 57 -42z m233 -23 c19 -66 45 -258 45 -333 l0 -54 -31 6
c-17 3 -58 6 -91 6 -58 0 -60 1 -53 23 4 12 13 54 21 92 8 39 22 102 30 140 8
39 14 88 14 111 0 40 13 64 36 64 7 0 20 -25 29 -55z m173 -14 c34 -52 42 -77
71 -225 18 -92 30 -173 28 -180 -3 -8 -19 -18 -37 -24 -37 -13 -37 -15 -43 93
-3 44 -17 116 -30 160 -14 44 -28 103 -32 130 -3 28 -9 62 -11 78 -9 44 13 32
54 -32z m-668 -256 c6 -44 13 -89 15 -101 4 -20 -1 -22 -76 -27 -45 -3 -86
-10 -92 -16 -16 -16 -57 -14 -57 3 0 8 11 17 24 20 13 3 34 21 46 40 28 46 80
202 80 241 0 17 8 42 18 55 17 25 17 25 24 -55 4 -44 12 -116 18 -160z m-74
161 c-4 -30 -21 -92 -37 -138 -16 -45 -29 -85 -29 -88 -2 -13 -40 97 -40 113
0 17 -2 17 -29 -2 -36 -26 -111 -60 -131 -61 -9 0 -20 15 -26 34 -10 34 -9 37
49 102 l61 66 53 -6 c42 -5 60 -2 90 14 21 11 39 20 42 20 2 0 0 -24 -3 -54z
m-297 -173 c1 -10 -56 -33 -84 -33 -5 0 9 18 30 40 34 35 41 38 47 23 3 -10 7
-23 7 -30z m195 -90 c-10 -7 -21 -13 -26 -13 -13 0 -9 38 8 78 l17 37 9 -44
c9 -38 7 -47 -8 -58z"/>
<path d="M990 1503 c-29 -19 -80 -74 -80 -85 0 -5 5 -8 10 -8 6 0 10 4 10 9 0
5 20 30 45 55 24 25 43 46 42 46 -1 0 -14 -8 -27 -17z"/>
<path d="M683 1476 c9 -7 17 -18 17 -25 0 -17 -21 -13 -36 7 -9 11 -13 13 -14
4 0 -17 55 -72 72 -72 9 1 7 5 -4 14 -10 7 -18 18 -18 25 0 17 21 13 36 -6 9
-12 13 -14 14 -5 0 17 -55 72 -72 72 -9 -1 -7 -5 5 -14z"/>
<path d="M1380 1480 c0 -5 5 -10 10 -10 14 0 12 -28 -2 -33 -8 -2 -9 -8 -4
-13 5 -5 11 -4 13 4 7 17 24 15 39 -5 9 -12 13 -13 14 -5 0 12 -54 72 -65 72
-3 0 -5 -4 -5 -10z"/>
<path d="M1730 1480 c0 -5 5 -10 10 -10 6 0 10 -7 10 -15 0 -8 -4 -15 -10 -15
-5 0 -10 -5 -10 -11 0 -15 26 -39 42 -39 9 1 7 5 -4 14 -10 7 -18 18 -18 25 0
18 28 13 33 -6 4 -16 5 -16 6 -1 0 9 -10 28 -23 42 -25 28 -36 32 -36 16z"/>
<path d="M67 1463 c-12 -11 -8 -23 8 -23 8 0 15 -7 15 -15 0 -8 5 -15 10 -15
6 0 10 5 10 10 0 16 -36 51 -43 43z"/>
<path d="M417 1463 c-12 -11 -8 -23 8 -23 8 0 15 -7 15 -15 0 -8 5 -15 10 -15
6 0 10 5 10 10 0 16 -36 51 -43 43z"/>
<path d="M590 1460 c0 -14 37 -50 44 -42 11 10 6 22 -9 22 -8 0 -15 7 -15 15
0 8 -4 15 -10 15 -5 0 -10 -4 -10 -10z"/>
<path d="M760 1455 c0 -8 7 -15 15 -15 8 0 15 -7 15 -15 0 -8 -7 -15 -15 -15
-8 0 -15 -4 -15 -10 0 -15 19 -12 36 4 18 18 18 21 -3 46 -21 24 -33 26 -33 5z"/>
<path d="M1467 1463 c-12 -11 -8 -23 8 -23 8 0 15 -7 15 -15 0 -8 5 -15 10
-15 6 0 10 5 10 10 0 16 -36 51 -43 43z"/>
<path d="M326 1372 c-6 -9 29 -42 44 -42 6 0 10 5 10 10 0 6 -7 10 -15 10 -8
0 -15 7 -15 15 0 16 -15 20 -24 7z"/>
<path d="M440 1365 c0 -8 -7 -15 -15 -15 -8 0 -15 -4 -15 -10 0 -15 19 -12 36
4 16 17 19 36 4 36 -5 0 -10 -7 -10 -15z"/>
<path d="M676 1372 c-6 -9 29 -42 44 -42 6 0 10 5 10 10 0 6 -7 10 -15 10 -8
0 -15 7 -15 15 0 16 -15 20 -24 7z"/>
<path d="M790 1365 c0 -8 -7 -15 -15 -15 -8 0 -15 -4 -15 -10 0 -16 22 -12 36
8 16 21 17 32 4 32 -5 0 -10 -7 -10 -15z"/>
<path d="M1490 1365 c0 -8 -7 -15 -15 -15 -8 0 -15 -4 -15 -10 0 -15 19 -12
36 4 16 17 19 36 4 36 -5 0 -10 -7 -10 -15z"/>
<path d="M1730 1369 c0 -13 25 -39 39 -39 11 0 26 39 17 47 -3 4 -6 -1 -6 -10
0 -9 -7 -17 -15 -17 -8 0 -15 7 -15 15 0 8 -4 15 -10 15 -5 0 -10 -5 -10 -11z"/>
<path d="M872 1214 c-22 -15 -30 -44 -12 -44 6 0 10 5 10 12 0 6 7 20 17 30
20 22 15 23 -15 2z"/>
<path d="M312 1180 c-15 -24 -15 -30 -2 -30 6 0 10 7 10 15 0 8 7 15 15 15 8
0 15 -7 15 -15 0 -15 12 -20 23 -9 6 6 -28 44 -41 44 -4 0 -13 -9 -20 -20z"/>
<path d="M860 1153 c0 -19 22 -63 32 -63 12 0 10 6 -12 42 -11 18 -20 28 -20
21z"/>
<path d="M333 1126 c9 -7 17 -18 17 -25 0 -17 -21 -13 -36 7 -9 11 -13 13 -14
4 0 -17 55 -72 72 -72 9 1 7 5 -4 14 -20 15 -24 36 -7 36 7 0 18 -8 25 -17 8
-11 13 -13 14 -6 0 16 -56 73 -72 73 -8 -1 -7 -5 5 -14z"/>
<path d="M1383 1126 c19 -14 23 -36 7 -36 -5 0 -10 -5 -10 -11 0 -15 26 -39
42 -39 9 1 7 5 -4 14 -20 15 -24 36 -7 36 7 0 18 -8 25 -17 9 -12 13 -14 14
-5 0 17 -55 72 -72 72 -9 -1 -7 -5 5 -14z"/>
<path d="M1730 1130 c0 -5 5 -10 10 -10 6 0 10 -7 10 -15 0 -8 -4 -15 -10 -15
-5 0 -10 -5 -10 -11 0 -15 26 -39 42 -39 9 1 7 5 -4 14 -10 7 -18 18 -18 25 0
18 28 13 33 -6 4 -16 5 -16 6 -1 0 9 -10 28 -23 42 -25 28 -36 32 -36 16z"/>
<path d="M66 1113 c-11 -11 -6 -23 9 -23 8 0 15 -7 15 -15 0 -8 -7 -15 -15
-15 -8 0 -15 -4 -15 -10 0 -5 5 -10 11 -10 11 0 39 24 39 34 0 11 -38 44 -44
39z"/>
<path d="M240 1110 c0 -14 37 -50 44 -42 11 10 6 22 -9 22 -8 0 -15 7 -15 15
0 8 -4 15 -10 15 -5 0 -10 -4 -10 -10z"/>
<path d="M417 1113 c-12 -11 -8 -23 8 -23 8 0 15 -7 15 -15 0 -8 5 -15 10 -15
6 0 10 5 10 10 0 16 -36 51 -43 43z"/>
<path d="M1467 1113 c-12 -11 -8 -23 8 -23 8 0 15 -7 15 -15 0 -8 5 -15 10
-15 6 0 10 5 10 10 0 16 -36 51 -43 43z"/>
<path d="M90 1015 c0 -8 -7 -15 -15 -15 -8 0 -15 -4 -15 -10 0 -15 19 -12 36
4 16 17 19 36 4 36 -5 0 -10 -7 -10 -15z"/>
<path d="M326 1022 c-6 -9 29 -42 44 -42 6 0 10 5 10 10 0 6 -7 10 -15 10 -8
0 -15 7 -15 15 0 16 -15 20 -24 7z"/>
<path d="M440 1015 c0 -8 -7 -15 -15 -15 -8 0 -15 -4 -15 -10 0 -15 19 -12 36
4 16 17 19 36 4 36 -5 0 -10 -7 -10 -15z"/>
<path d="M1380 1019 c0 -14 25 -39 39 -39 6 0 11 5 11 10 0 6 -7 10 -15 10 -8
0 -15 7 -15 15 0 8 -4 15 -10 15 -5 0 -10 -5 -10 -11z"/>
<path d="M1490 1015 c0 -8 -7 -15 -15 -15 -8 0 -15 -4 -15 -10 0 -15 19 -12
36 4 16 17 19 36 4 36 -5 0 -10 -7 -10 -15z"/>
<path d="M1730 1019 c0 -13 25 -39 39 -39 11 0 26 39 17 47 -3 4 -6 -1 -6 -10
0 -9 -7 -17 -15 -17 -8 0 -15 7 -15 15 0 8 -4 15 -10 15 -5 0 -10 -5 -10 -11z"/>
<path d="M0 750 c0 -5 7 -10 15 -10 8 0 15 -7 15 -15 0 -8 5 -15 10 -15 15 0
12 19 -4 36 -17 16 -36 19 -36 4z"/>
<path d="M60 750 c0 -5 7 -10 15 -10 8 0 15 -7 15 -15 0 -8 5 -15 10 -15 15 0
12 19 -4 36 -17 16 -36 19 -36 4z"/>
<path d="M1743 745 c-7 -8 -13 -17 -13 -20 0 -10 28 -35 38 -35 14 0 23 30 17
51 -7 22 -25 24 -42 4z"/>
<path d="M1730 669 c0 -13 25 -39 39 -39 11 0 26 39 17 47 -3 4 -6 -1 -6 -10
0 -9 -7 -17 -15 -17 -8 0 -15 7 -15 15 0 8 -4 15 -10 15 -5 0 -10 -5 -10 -11z"/>
<path d="M105 620 c-18 -35 -11 -39 16 -7 21 25 24 37 9 37 -5 0 -16 -13 -25
-30z"/>
<path d="M0 400 c0 -5 7 -10 15 -10 8 0 15 -7 15 -15 0 -8 5 -15 10 -15 15 0
12 19 -4 36 -17 16 -36 19 -36 4z"/>
<path d="M60 400 c0 -5 7 -10 15 -10 8 0 15 -7 15 -15 0 -8 5 -15 10 -15 15 0
12 19 -4 36 -17 16 -36 19 -36 4z"/>
<path d="M338 391 c-16 -16 -16 -18 2 -34 11 -9 26 -17 33 -17 7 1 5 6 -5 14
-20 15 -24 36 -7 36 7 0 18 -8 25 -17 10 -13 13 -14 14 -4 0 13 -28 41 -40 40
-3 0 -13 -8 -22 -18z"/>
<path d="M410 400 c0 -5 7 -10 15 -10 20 0 19 -20 -2 -36 -12 -9 -14 -13 -5
-14 14 0 42 24 42 36 0 8 -32 33 -42 34 -5 0 -8 -4 -8 -10z"/>
<path d="M1743 395 c-7 -8 -13 -17 -13 -20 0 -10 28 -35 38 -35 14 0 23 30 17
51 -7 22 -25 24 -42 4z"/>
<path d="M540 376 c0 -18 24 -76 32 -76 4 0 8 1 8 3 0 9 -39 81 -40 73z"/>
<path d="M90 315 c0 -8 -7 -15 -15 -15 -8 0 -15 -4 -15 -10 0 -15 19 -12 36 4
16 17 19 36 4 36 -5 0 -10 -7 -10 -15z"/>
<path d="M326 322 c-6 -9 29 -42 44 -42 6 0 10 5 10 10 0 6 -7 10 -15 10 -8 0
-15 7 -15 15 0 16 -15 20 -24 7z"/>
<path d="M440 315 c0 -8 -7 -15 -15 -15 -8 0 -15 -4 -15 -10 0 -15 19 -12 36
4 16 17 19 36 4 36 -5 0 -10 -7 -10 -15z"/>
<path d="M1730 319 c0 -13 25 -39 39 -39 11 0 26 39 17 47 -3 4 -6 -1 -6 -10
0 -9 -7 -17 -15 -17 -8 0 -15 7 -15 15 0 8 -4 15 -10 15 -5 0 -10 -5 -10 -11z"/>
<path d="M578 279 c-6 -19 3 -69 14 -69 5 0 6 16 2 38 -8 43 -10 48 -16 31z"/>
<path d="M1132 201 c-25 -15 14 -21 143 -21 136 0 202 8 170 21 -27 10 -297
11 -313 0z"/>
<path d="M1533 199 c-11 -5 2 -8 35 -8 28 -1 52 1 52 3 0 8 -69 12 -87 5z"/>
<path d="M60 50 c0 -5 7 -10 15 -10 8 0 15 -7 15 -15 0 -8 5 -15 10 -15 15 0
12 19 -4 36 -17 16 -36 19 -36 4z"/>
<path d="M343 45 c-7 -8 -13 -18 -13 -24 0 -10 30 -24 38 -16 3 3 0 5 -6 5 -7
0 -12 7 -12 15 0 20 20 19 36 -2 9 -12 13 -14 14 -5 0 15 -24 42 -37 42 -4 -1
-14 -7 -20 -15z"/>
<path d="M410 50 c0 -5 7 -10 15 -10 8 0 15 -8 15 -17 0 -13 3 -14 11 -6 9 9
8 16 -4 27 -18 18 -37 21 -37 6z"/>
<path d="M687 40 c-18 -18 -18 -19 3 -30 12 -6 24 -9 28 -6 3 3 0 6 -6 6 -7 0
-12 7 -12 15 0 20 20 19 36 -2 9 -12 13 -14 14 -5 0 15 -24 42 -37 41 -4 0
-16 -9 -26 -19z"/>
<path d="M760 50 c0 -5 7 -10 15 -10 8 0 15 -7 15 -15 0 -8 5 -15 10 -15 15 0
12 19 -4 36 -17 16 -36 19 -36 4z"/>
<path d="M1043 45 c-7 -8 -13 -18 -13 -24 0 -10 30 -24 38 -16 3 3 0 5 -6 5
-7 0 -12 7 -12 15 0 20 20 19 36 -2 9 -12 13 -14 14 -5 0 15 -24 42 -37 42 -4
-1 -14 -7 -20 -15z"/>
<path d="M1110 50 c0 -5 7 -10 15 -10 8 0 15 -7 15 -15 0 -8 -5 -15 -12 -15
-6 0 -9 -2 -6 -5 8 -8 38 6 38 17 0 13 -26 38 -39 38 -6 0 -11 -4 -11 -10z"/>
<path d="M1393 45 c-7 -8 -13 -18 -13 -24 0 -10 30 -24 38 -16 3 3 0 5 -6 5
-7 0 -12 7 -12 15 0 20 20 19 36 -2 9 -12 13 -14 14 -5 0 15 -24 42 -37 42 -4
-1 -14 -7 -20 -15z"/>
<path d="M1460 50 c0 -5 7 -10 15 -10 8 0 15 -7 15 -15 0 -8 5 -15 10 -15 15
0 12 19 -4 36 -17 16 -36 19 -36 4z"/>
<path d="M1743 45 c-19 -20 -16 -33 8 -40 28 -9 47 10 33 32 -14 23 -27 25
-41 8z"/>
</g>
</svg>
