<?xml version="1.0" standalone="no"?>
<!DOCTYPE svg PUBLIC "-//W3C//DTD SVG 20010904//EN"
 "http://www.w3.org/TR/2001/REC-SVG-20010904/DTD/svg10.dtd">
<svg version="1.0" xmlns="http://www.w3.org/2000/svg"
 width="272.000000pt" height="185.000000pt" viewBox="0 0 272.000000 185.000000"
 preserveAspectRatio="xMidYMid meet">
<metadata>
Created by potrace 1.10, written by Peter Selinger 2001-2011
</metadata>
<g transform="translate(0.000000,185.000000) scale(0.100000,-0.100000)"
fill="#000000" stroke="none">
<path d="M784 1803 c-35 -38 -40 -63 -35 -153 3 -35 54 -122 93 -157 22 -20
77 -19 118 2 40 21 115 110 128 153 17 57 5 115 -33 156 -18 20 -40 36 -49 36
-23 0 -20 -17 4 -25 11 -3 20 -13 20 -21 0 -8 4 -14 8 -14 12 0 35 -70 34
-104 0 -16 -6 -34 -13 -40 -9 -8 -10 -4 -6 19 6 37 -26 96 -62 114 -55 28
-102 30 -148 8 -24 -12 -43 -24 -43 -27 0 -3 -7 -15 -15 -26 -14 -18 -14 -18
-15 5 0 14 15 39 40 63 45 45 46 48 24 48 -9 0 -32 -17 -50 -37z m101 -33 c-4
-7 3 -9 22 -5 25 5 26 4 6 -4 -35 -16 -27 -21 13 -9 20 5 38 7 42 4 3 -3 0 -6
-8 -6 -10 0 -10 -3 0 -15 9 -10 9 -15 1 -15 -6 0 -11 4 -11 9 0 5 -30 9 -66 9
-36 0 -68 3 -72 6 -3 3 6 6 20 6 14 0 31 7 38 15 14 17 24 20 15 5z m33 -57
c-10 -2 -18 -8 -18 -13 0 -10 82 -1 94 11 25 23 36 9 29 -38 -4 -34 -3 -44 5
-39 20 12 13 -15 -15 -59 -34 -50 -58 -70 -99 -79 -40 -9 -79 22 -118 93 -27
50 -27 51 -9 76 10 13 27 25 38 25 11 0 31 7 45 14 14 8 34 14 45 14 16 0 17
-1 3 -5z"/>
<path d="M800 1454 c-31 -9 -42 -49 -55 -198 -8 -83 -17 -183 -21 -222 -13
-136 6 -165 109 -163 l52 1 -40 8 c-22 4 -42 7 -45 5 -3 -1 -16 8 -30 21 -13
13 -19 24 -12 24 6 0 12 10 11 23 0 21 -1 21 -10 2 -8 -17 -9 -17 -4 5 2 14 5
28 5 33 0 4 41 7 90 7 65 0 90 -3 90 -12 0 -10 29 -13 114 -13 91 0 110 2 97
12 -9 7 -11 13 -4 13 22 0 65 -62 59 -86 -3 -13 -2 -26 4 -29 5 -3 10 -15 10
-26 0 -10 4 -19 9 -19 5 0 15 -24 22 -52 6 -29 19 -59 26 -67 9 -8 13 -25 10
-39 -5 -24 9 -71 24 -82 9 -7 29 -82 24 -90 -2 -4 -25 -7 -50 -8 l-46 0 -24
53 c-31 72 -40 99 -27 91 6 -4 6 6 -1 25 -12 30 -12 30 -18 7 -6 -21 -7 -21
-10 -3 -1 11 -1 28 -1 38 1 11 -2 16 -10 11 -6 -4 -8 -3 -5 3 8 13 -18 85 -28
76 -4 -5 -5 0 -2 10 4 9 3 17 -1 17 -4 0 -13 13 -20 30 -17 38 -64 48 -141 29
l-56 -14 85 -3 85 -3 68 -182 c62 -168 67 -188 67 -261 0 -78 0 -79 19 -60 10
11 14 22 8 25 -5 4 -1 12 9 19 16 10 16 11 2 6 -11 -3 -18 0 -18 9 0 7 8 16
18 18 12 3 9 5 -8 6 -25 2 -25 2 -5 17 14 10 31 13 57 9 20 -4 51 -2 70 3 l33
9 0 -48 c0 -26 -2 -44 -5 -41 -3 4 -16 8 -30 9 -14 1 -18 0 -7 -3 9 -3 17 -10
17 -15 0 -17 40 -9 41 9 1 11 4 9 9 -8 6 -20 8 -21 9 -5 1 15 4 16 13 7 17
-17 38 -15 38 3 0 8 -14 17 -35 21 -31 5 -35 10 -35 36 0 16 -6 41 -14 56 -7
15 -46 126 -86 247 -52 159 -79 226 -97 243 -23 21 -30 22 -243 22 -121 0
-221 4 -224 9 -4 5 -2 11 3 13 8 3 14 48 35 278 5 47 24 106 26 80 1 -12 3
-12 8 2 6 15 9 15 29 -2 l22 -18 -28 -5 c-22 -5 -31 -13 -36 -36 -7 -33 2 -74
14 -67 4 3 24 -8 44 -25 l35 -29 16 30 c8 17 24 46 36 65 20 33 20 35 3 35
-11 0 -25 -15 -37 -41 -11 -22 -23 -42 -28 -45 -16 -10 -68 37 -68 61 0 26 32
50 55 41 8 -3 12 0 9 7 -3 8 6 13 23 15 14 1 34 9 44 18 17 15 18 14 24 -18 4
-19 6 -38 5 -43 -5 -21 1 -36 10 -30 6 3 10 31 10 60 0 43 -4 56 -19 65 -28
15 -35 13 -46 -12 -6 -13 -20 -24 -33 -26 -28 -4 -63 24 -55 44 5 14 -6 16
-37 8z m283 -461 c-23 -2 -64 -2 -90 0 -26 2 -7 3 42 3 50 0 71 -1 48 -3z"/>
<path d="M1210 1335 c0 -52 2 -95 5 -95 22 0 64 34 75 60 23 55 57 32 100 -68
33 -79 37 -97 16 -89 -16 6 -40 -16 -29 -26 3 -4 18 -7 33 -7 23 0 29 -6 39
-40 12 -39 31 -55 31 -25 0 31 -91 259 -112 282 -12 13 -32 23 -45 23 -15 0
-27 9 -34 23 -9 21 -56 57 -73 57 -3 0 -6 -43 -6 -95z"/>
<path d="M14 1378 c-19 -21 -19 -21 1 -12 21 10 571 17 562 7 -3 -3 0 -12 8
-20 17 -17 21 -143 5 -143 -14 0 -13 -157 1 -162 15 -5 -4 -74 -20 -70 -6 1
-11 -2 -11 -8 0 -11 29 -13 52 -5 18 7 14 415 -5 427 -7 4 -138 8 -293 8 -276
0 -281 0 -300 -22z"/>
<path d="M1016 1311 c10 -10 23 -16 27 -14 5 3 22 -4 38 -16 15 -11 32 -21 37
-21 5 0 15 -7 22 -15 7 -8 22 -15 33 -15 19 0 20 1 2 20 -10 11 -26 20 -36 20
-9 0 -19 3 -21 8 -5 12 -84 52 -104 52 -16 0 -16 -1 2 -19z"/>
<path d="M912 1213 c23 -6 31 -35 18 -69 -14 -35 -4 -122 12 -106 5 5 14 44
20 87 11 85 6 96 -42 94 -16 -1 -19 -3 -8 -6z"/>
<path d="M1235 1209 c4 -5 17 -15 28 -20 12 -5 37 -18 56 -30 33 -20 49 -20
36 0 -6 11 -105 61 -119 61 -4 0 -4 -5 -1 -11z"/>
<path d="M1004 1201 c4 -6 16 -11 26 -11 10 0 21 -4 25 -9 3 -5 19 -12 35 -16
17 -4 30 -10 30 -13 0 -4 24 -15 53 -25 71 -25 107 -41 107 -47 0 -3 11 -7 25
-8 14 -1 25 3 25 8 0 6 -9 10 -19 10 -11 0 -22 4 -25 9 -3 5 -21 12 -40 15
-19 4 -45 15 -59 26 -14 11 -30 20 -36 20 -5 0 -25 9 -43 19 -40 24 -114 39
-104 22z"/>
<path d="M1512 1200 c-19 -4 -39 -13 -45 -19 -16 -16 1 -27 23 -13 54 33 65 6
58 -145 l-5 -106 29 -16 c16 -9 31 -26 34 -38 4 -13 11 -20 20 -16 17 6 18 -8
2 -26 -11 -11 -10 -13 4 -8 10 4 17 3 15 -1 -3 -12 26 -82 35 -82 4 0 5 -24 3
-52 -14 -140 -9 -158 48 -158 15 0 27 -4 27 -10 0 -5 12 -12 28 -16 98 -22
147 -42 183 -75 23 -21 39 -45 39 -58 0 -22 -3 -22 -67 -18 -60 4 -171 24
-182 33 -2 2 2 10 9 19 8 9 8 15 2 15 -6 0 -13 -8 -16 -18 -6 -17 -64 -46 -96
-47 -8 -1 -14 -6 -13 -13 2 -6 -3 -9 -10 -7 -14 6 -39 -43 -30 -59 4 -6 10
-34 14 -63 7 -51 48 -120 63 -106 3 4 6 2 6 -4 0 -15 50 -33 82 -28 55 7 88
17 88 26 0 6 9 7 21 4 13 -4 19 -3 16 2 -3 5 5 32 19 59 27 52 26 91 -1 144
l-13 25 51 -5 51 -5 13 -50 c16 -63 16 -86 1 -82 -7 1 -12 -5 -10 -14 1 -9 -3
-30 -9 -45 -7 -16 -13 -32 -13 -36 -1 -3 -16 -22 -33 -42 -19 -20 -28 -38 -23
-41 9 -6 52 33 86 76 36 48 43 140 19 259 -14 65 -21 79 -53 107 -40 34 -86
51 -161 60 -36 4 -48 10 -47 21 1 13 -8 16 -41 13 l-43 -3 0 56 c0 49 2 56 20
56 11 0 20 3 20 7 0 15 -24 73 -31 73 -4 0 -10 17 -14 38 -4 20 -18 61 -32 90
-23 49 -33 57 -73 53 -13 -1 -15 20 -12 149 4 164 8 155 -56 140z m339 -871
c131 -93 16 -290 -130 -224 -52 23 -75 67 -69 131 5 50 31 94 55 94 7 0 13 5
13 10 0 19 100 11 131 -11z"/>
<path d="M1733 282 c-16 -10 -26 -57 -19 -85 5 -23 42 -47 72 -47 24 0 64 47
64 74 0 48 -75 85 -117 58z m66 -22 c12 -6 17 -18 16 -34 -4 -37 -13 -47 -33
-37 -9 5 -25 12 -34 15 -10 3 -18 10 -18 16 0 6 5 8 10 5 6 -3 10 2 11 12 0
16 1 16 8 -1 7 -19 8 -19 13 2 3 11 1 23 -6 26 -7 3 -6 5 2 5 7 1 21 -3 31 -9z"/>
<path d="M1592 1147 c1 -14 5 -24 9 -21 4 2 10 -16 14 -41 4 -32 2 -54 -9 -77
-19 -38 -19 -38 -3 -38 8 0 22 18 32 40 15 34 16 46 7 78 -7 22 -21 49 -32 62
l-20 23 2 -26z"/>
<path d="M1353 1063 c-17 -6 -16 -51 1 -69 8 -8 25 -14 39 -14 33 0 42 -24 67
-175 12 -71 28 -158 36 -192 16 -72 19 -199 4 -208 -15 -9 -12 -35 4 -35 9 0
12 7 9 20 -3 11 -1 20 5 20 17 0 23 78 11 148 -6 37 -13 81 -14 97 -2 17 -6
40 -10 53 -5 14 -3 22 4 22 7 0 6 9 -4 24 -9 13 -15 35 -14 48 1 12 1 37 0 53
-1 23 -3 27 -11 15 -7 -11 -10 -6 -10 20 0 33 -20 75 -44 93 -7 5 -6 10 3 16
12 8 12 12 2 25 -8 9 -10 16 -6 16 4 0 2 7 -5 15 -12 15 -43 18 -67 8z"/>
<path d="M16 981 c-18 -7 -18 -8 -2 -14 10 -4 29 -7 43 -7 22 0 23 2 9 15 -16
17 -22 17 -50 6z"/>
<path d="M470 955 c0 -22 17 -33 55 -36 30 -3 40 0 40 11 0 11 -9 14 -39 12
-25 -3 -42 1 -47 10 -5 7 -9 9 -9 3z"/>
<path d="M72 931 c2 -11 20 -15 63 -17 73 -2 80 -2 73 -10 -5 -5 30 -117 44
-140 4 -5 3 -35 -1 -66 -8 -60 0 -88 25 -88 11 0 13 6 9 21 -5 15 -4 19 4 15
7 -5 11 9 11 43 0 27 -4 53 -10 56 -5 3 -10 17 -10 30 0 13 -9 47 -20 75 -26
66 -25 70 8 68 61 -4 132 3 132 12 0 13 -128 11 -154 -2 -10 -6 -34 -6 -55 -2
l-36 8 45 6 c32 5 20 6 -43 6 -71 -1 -87 -4 -85 -15z"/>
<path d="M431 920 c0 -20 4 -41 10 -47 7 -7 8 -20 3 -34 -4 -13 -7 -31 -5 -39
6 -37 29 -40 271 -40 217 0 238 2 253 18 21 23 22 46 2 62 -15 12 -80 16 -337
19 l-146 1 -7 31 c-5 20 -12 29 -20 25 -8 -3 -15 4 -18 17 -3 14 -5 9 -6 -13z
m499 -84 c8 -2 -20 -4 -62 -5 -43 0 -78 -4 -78 -8 0 -5 30 -6 66 -5 68 4 89
-4 75 -26 -6 -10 -56 -13 -226 -12 -209 1 -245 5 -245 31 0 5 63 8 140 7 78 0
144 2 147 6 4 3 -56 7 -133 8 l-139 2 155 6 c146 5 266 3 300 -4z"/>
<path d="M479 797 c4 -4 61 -6 127 -5 l119 3 -127 5 c-70 3 -124 1 -119 -3z"/>
<path d="M855 800 l-60 -7 57 -1 c31 -1 60 3 63 8 3 6 5 9 3 8 -2 -1 -30 -4
-63 -8z"/>
<path d="M315 749 c-12 -19 13 -26 63 -18 26 4 50 5 54 3 4 -2 9 0 12 5 8 12
-10 17 -71 20 -30 1 -54 -3 -58 -10z"/>
<path d="M886 708 c-9 -47 -13 -222 -4 -201 4 12 7 3 7 -24 1 -23 6 -45 11
-48 6 -3 10 -15 10 -25 0 -10 9 -25 20 -33 11 -8 17 -17 14 -20 -4 -4 4 -11
17 -17 13 -6 42 -21 64 -35 32 -20 52 -24 105 -23 l65 1 -60 6 -60 6 85 7 c47
5 131 8 188 8 56 0 110 4 120 9 9 5 26 13 37 17 17 7 16 8 -10 12 -16 2 -31
-1 -33 -6 -2 -6 -53 -8 -132 -5 -88 3 -130 1 -130 -6 0 -14 -90 -14 -148 0
-48 10 -91 37 -92 56 0 7 -6 16 -13 20 -31 19 -42 77 -41 206 1 123 -7 162
-20 95z"/>
<path d="M190 675 c0 -49 2 -55 21 -55 17 0 19 4 13 23 -8 25 -8 33 1 65 6 18
3 22 -14 22 -19 0 -21 -6 -21 -55z"/>
<path d="M784 679 c-4 -7 -2 -15 4 -17 7 -2 12 -13 12 -25 0 -14 3 -18 10 -11
7 7 6 19 -4 38 -10 20 -16 24 -22 15z"/>
<path d="M1737 634 c-12 -13 -8 -51 8 -64 13 -10 15 -9 14 11 -1 32 -13 62
-22 53z"/>
<path d="M375 610 c-4 -7 47 -10 154 -10 88 0 162 4 166 9 3 6 -59 10 -154 10
-99 1 -162 -2 -166 -9z"/>
<path d="M820 598 c0 -16 5 -28 10 -28 6 0 10 -14 10 -32 0 -19 4 -28 9 -22
13 13 18 47 8 59 -4 6 -14 19 -22 30 -14 19 -14 19 -15 -7z"/>
<path d="M265 569 c-9 -16 -19 -53 -22 -81 -6 -50 -6 -50 18 -43 32 10 35 13
21 27 -14 14 -16 55 -4 60 13 4 23 68 12 68 -5 0 -17 -14 -25 -31z"/>
<path d="M370 570 c0 -6 58 -10 154 -10 93 0 157 4 161 10 4 7 -50 10 -154 10
-101 0 -161 -4 -161 -10z"/>
<path d="M360 530 c0 -6 62 -10 165 -10 103 0 165 4 165 10 0 6 -62 10 -165
10 -103 0 -165 -4 -165 -10z"/>
<path d="M365 490 c4 -6 68 -10 160 -10 92 0 156 4 160 10 4 7 -52 10 -160 10
-108 0 -164 -3 -160 -10z"/>
<path d="M847 473 c-13 -12 -7 -23 13 -23 11 0 20 7 20 15 0 15 -21 21 -33 8z"/>
<path d="M506 442 c-198 -2 -211 -4 -229 -23 -53 -56 -72 -191 -41 -282 22
-65 124 -169 124 -127 0 6 -10 21 -23 34 -13 13 -21 28 -19 34 2 8 -3 10 -14
5 -12 -4 -15 -3 -10 6 5 7 1 17 -8 24 -33 25 -47 217 -16 217 5 0 7 6 4 14 -3
8 -1 23 6 33 9 16 10 15 5 -7 -6 -24 -6 -24 14 4 11 17 18 33 15 38 -3 5 19 6
48 3 29 -3 66 -5 83 -5 l30 0 -33 -20 c-18 -11 -36 -20 -41 -20 -5 0 -15 -13
-22 -29 -7 -16 -17 -27 -23 -24 -15 10 -1 -142 17 -167 8 -12 30 -32 49 -45
103 -70 223 -20 249 104 6 31 16 59 21 62 6 4 7 12 3 19 -6 9 -9 9 -16 -1 -6
-10 -9 -8 -9 9 0 13 -14 36 -31 52 -17 15 -28 33 -25 39 5 7 -2 11 -16 12 -13
1 1 6 30 11 62 11 77 3 86 -47 4 -20 19 -44 36 -59 28 -23 29 -28 24 -73 -3
-26 -7 -57 -7 -68 -1 -26 -29 -48 -39 -32 -4 7 -5 -5 -1 -26 5 -35 4 -37 -21
-37 -14 0 -26 -4 -26 -10 0 -5 5 -10 12 -10 6 0 4 -7 -5 -18 -37 -41 -12 -44
29 -3 45 44 59 63 77 109 21 53 23 148 3 155 -25 10 -66 74 -74 113 l-7 39
-209 -3z m85 -85 c92 -62 79 -198 -23 -241 -60 -25 -107 -16 -152 29 -89 88
-29 235 95 235 31 0 57 -7 80 -23z"/>
<path d="M462 297 c-47 -50 -15 -127 51 -127 70 0 102 76 52 125 -31 32 -74
33 -103 2z m83 -27 c-18 -8 -18 -9 5 -10 14 -1 19 -4 12 -7 -6 -2 -10 -9 -6
-14 3 -5 -4 -9 -15 -9 -12 0 -21 -4 -21 -10 0 -5 5 -10 12 -10 9 0 8 -3 -1
-12 -11 -10 -14 -10 -18 0 -3 6 -12 12 -20 12 -9 0 -13 6 -10 15 4 8 2 17 -3
20 -6 4 -10 1 -10 -6 0 -7 -3 -10 -6 -7 -3 4 -1 16 6 27 8 16 20 21 53 20 33
0 38 -2 22 -9z"/>
<path d="M841 318 c0 -9 -7 -18 -13 -21 -18 -7 18 -34 62 -47 19 -5 107 -10
195 -10 145 1 158 2 133 15 -19 11 -56 14 -135 13 -59 -1 -136 2 -170 6 -57 7
-62 10 -66 34 -2 15 -5 20 -6 10z"/>
<path d="M1574 260 c-5 -5 -24 -10 -43 -12 l-33 -2 5 -52 c3 -28 14 -69 25
-91 34 -65 102 -128 102 -93 0 5 -13 23 -30 40 -19 19 -27 36 -23 47 4 11 3
14 -5 9 -8 -5 -12 5 -13 31 -1 34 -2 35 -9 13 -6 -20 -8 -14 -9 28 l-1 52 36
0 c29 0 35 3 30 16 -3 9 -6 18 -6 20 0 8 -16 4 -26 -6z"/>
<path d="M1294 235 c-13 -17 -22 -21 -30 -14 -8 7 -14 7 -19 -1 -4 -6 -53 -10
-126 -10 -112 0 -119 -1 -119 -20 0 -19 7 -20 119 -20 93 0 121 -3 131 -15 7
-8 16 -15 21 -15 19 0 39 34 39 68 l0 37 90 -3 c59 -2 90 0 90 7 0 7 -32 11
-89 11 -82 0 -89 -2 -107 -25z"/>
<path d="M686 234 c-9 -24 -7 -64 4 -64 5 0 7 6 4 13 -3 8 0 26 5 40 6 15 7
27 2 27 -5 0 -12 -7 -15 -16z"/>
</g>
</svg>
