<?xml version="1.0" standalone="no"?>
<!DOCTYPE svg PUBLIC "-//W3C//DTD SVG 20010904//EN"
 "http://www.w3.org/TR/2001/REC-SVG-20010904/DTD/svg10.dtd">
<svg version="1.0" xmlns="http://www.w3.org/2000/svg"
 width="300.000000pt" height="315.000000pt" viewBox="0 0 300.000000 315.000000"
 preserveAspectRatio="xMidYMid meet">
<metadata>
Created by potrace 1.10, written by Peter Selinger 2001-2011
</metadata>
<g transform="translate(0.000000,315.000000) scale(0.100000,-0.100000)"
fill="#000000" stroke="none">
<path d="M95 2953 c-26 -109 -58 -245 -72 -301 -13 -57 -22 -109 -20 -115 2
-6 17 52 35 129 17 76 50 215 72 308 22 93 38 171 36 173 -2 3 -25 -85 -51
-194z"/>
<path d="M116 2734 c-59 -228 -105 -418 -102 -421 3 -4 6 -2 6 3 0 5 12 52 25
104 113 425 186 713 183 721 -2 5 -52 -178 -112 -407z"/>
<path d="M281 3083 c-11 -37 -47 -165 -80 -283 -33 -118 -92 -327 -130 -464
-39 -138 -71 -257 -70 -265 0 -9 36 110 80 264 44 154 82 287 86 295 3 8 7 22
8 30 1 8 32 120 69 249 36 129 64 236 62 239 -3 2 -14 -27 -25 -65z"/>
<path d="M399 3123 c-25 -65 -99 -316 -95 -320 4 -4 73 203 107 320 10 35 2
35 -12 0z"/>
<path d="M1894 3058 c3 -51 7 -141 8 -200 l2 -106 29 -6 c61 -12 74 -7 136 57
43 44 61 70 61 89 0 18 10 34 31 48 41 30 49 56 42 139 -4 54 -10 71 -21 71
-12 0 -14 -11 -9 -65 l6 -65 -33 0 c-30 0 -40 -10 -127 -121 -51 -66 -95 -116
-97 -110 -2 5 2 20 8 32 7 12 8 19 3 16 -9 -6 -9 164 1 181 3 6 2 13 -4 17 -5
3 -10 31 -10 61 0 43 -3 54 -16 54 -14 0 -16 -11 -10 -92z m266 -66 c0 -4 -14
-30 -31 -58 -18 -27 -32 -57 -33 -66 -1 -18 -68 -80 -98 -91 -32 -12 -28 10
14 69 62 90 118 154 134 154 8 0 14 -4 14 -8z"/>
<path d="M2121 3099 c13 -83 28 -84 21 -1 -2 33 -9 52 -16 52 -10 0 -11 -13
-5 -51z"/>
<path d="M2354 3088 c-33 -35 -100 -108 -150 -163 -82 -91 -144 -153 -249
-247 -38 -35 -39 -37 -22 -55 32 -36 15 -73 -33 -73 -37 0 -63 22 -58 50 4 27
38 52 45 33 6 -18 20 -16 20 2 0 10 -10 15 -28 15 -22 0 -32 -7 -44 -31 l-16
-30 -177 6 c-110 4 -188 11 -207 20 -42 18 -98 35 -118 35 -9 0 -22 -9 -31
-21 -10 -15 -20 -19 -37 -14 -19 6 -21 5 -16 -16 4 -13 7 -30 7 -36 0 -7 6
-13 13 -13 8 0 21 -8 30 -18 24 -27 10 -97 -21 -105 -10 -3 9 -5 42 -6 l59 -1
-7 38 c-3 20 -6 57 -6 82 0 43 0 44 -16 22 -8 -12 -20 -22 -26 -22 -7 0 -6 6
2 15 11 13 8 15 -14 15 -25 0 -26 1 -11 16 8 9 21 14 28 11 7 -3 21 1 32 9 24
18 45 18 45 0 0 -8 5 -18 12 -22 8 -5 9 -2 5 9 -4 11 -1 17 7 17 8 0 17 -7 20
-16 3 -8 10 -12 16 -9 6 3 10 -4 10 -18 0 -21 6 -25 36 -29 19 -2 37 0 40 4 8
13 138 9 180 -6 22 -7 44 -11 49 -9 7 2 12 -30 13 -89 2 -51 5 -94 8 -97 2 -3
19 -6 37 -7 l33 -3 -8 77 c-10 92 -16 112 -17 55 -1 -53 -21 -57 -21 -5 0 58
32 84 90 74 44 -7 45 -9 52 -52 3 -25 7 -69 7 -97 l1 -53 51 0 52 0 -7 53 c-3
28 -6 63 -6 76 0 24 0 24 -15 5 -13 -17 -14 -17 -15 -1 0 9 -5 17 -11 17 -15
0 -3 -82 14 -92 20 -12 0 -20 -23 -8 -17 9 -21 19 -18 45 2 19 0 31 -4 29 -11
-7 -10 28 2 46 8 12 11 13 19 1 7 -11 13 -10 35 4 30 20 34 35 9 33 -10 -1
-34 0 -54 0 -33 2 -36 4 -31 27 4 23 13 30 35 26 4 0 7 3 7 9 0 5 -5 10 -12
10 -6 0 -3 10 8 23 17 20 16 20 -9 -2 -20 -18 -27 -21 -27 -9 0 18 36 58 225
251 143 146 256 277 238 277 -5 0 -36 -28 -69 -62z"/>
<path d="M2918 3125 c-3 -14 -2 -28 2 -30 12 -7 12 -185 0 -185 -5 0 -10 -5
-10 -11 0 -6 7 -8 15 -5 14 5 15 -6 11 -79 -3 -47 -1 -95 4 -107 9 -23 9 -23
9 2 0 14 -2 118 -5 233 -6 190 -14 247 -26 182z"/>
<path d="M2963 3053 c4 -54 7 -169 7 -256 0 -103 3 -156 10 -152 6 3 10 0 10
-9 0 -8 -4 -16 -8 -18 -10 -3 -3 -78 7 -78 8 0 6 192 -2 240 -5 27 -5 30 2 10
8 -21 9 -17 10 23 1 30 -3 46 -9 42 -5 -3 -10 -1 -10 4 0 6 4 11 9 11 6 0 8
44 5 108 -6 132 -12 172 -26 172 -8 0 -9 -29 -5 -97z"/>
<path d="M1971 3107 c-7 -9 -11 -24 -9 -34 3 -16 5 -15 17 5 15 29 10 50 -8
29z"/>
<path d="M50 2920 c-23 -105 -41 -193 -38 -195 2 -2 23 82 47 186 23 105 41
193 38 195 -2 2 -23 -82 -47 -186z"/>
<path d="M2622 2998 c-7 -7 -12 -39 -12 -72 0 -75 -8 -106 -26 -106 -8 0 -13
3 -13 8 4 22 -2 52 -10 52 -12 0 -22 -44 -11 -48 6 -2 10 -11 10 -19 0 -9 -6
-13 -15 -9 -21 8 -21 -77 0 -94 22 -18 29 -6 30 48 1 40 4 47 23 50 21 3 22 9
22 86 0 50 5 87 12 94 6 6 9 14 7 17 -3 2 -11 -1 -17 -7z"/>
<path d="M2642 2858 c0 -117 6 -146 23 -118 3 6 2 10 -2 10 -5 0 -7 42 -5 93
2 50 -1 103 -6 117 -8 19 -11 -7 -10 -102z"/>
<path d="M2562 2945 c-12 -14 -29 -47 -38 -73 -10 -26 -21 -52 -25 -57 -11
-15 -9 -126 2 -120 5 3 6 -1 3 -9 -3 -9 -1 -16 6 -16 8 0 9 13 5 44 -9 61 10
146 47 200 33 51 33 73 0 31z"/>
<path d="M2367 2922 c-9 -10 -13 -23 -8 -30 6 -10 12 -7 24 12 10 14 17 28 17
31 0 11 -18 4 -33 -13z"/>
<path d="M2465 2923 c-4 -13 -13 -23 -19 -23 -8 0 -11 -19 -8 -61 2 -40 -1
-66 -10 -77 -12 -15 -11 -16 5 -3 13 11 18 26 16 55 -1 24 5 55 15 74 9 18 15
39 12 45 -2 7 -8 2 -11 -10z"/>
<path d="M2395 2807 c-4 -10 -5 -49 -2 -87 5 -57 3 -71 -12 -84 -22 -20 -30
-20 -54 2 -15 12 -21 14 -24 5 -3 -7 -13 -13 -24 -13 -16 0 -18 5 -13 28 5 18
3 24 -4 17 -5 -5 -13 -25 -17 -44 -6 -29 -5 -32 9 -24 9 5 32 7 51 5 42 -5 40
1 60 -185 19 -178 19 -173 -11 -204 l-25 -25 -135 6 c-74 3 -195 9 -269 12
-135 6 -135 6 -135 -16 0 -36 -41 -98 -76 -115 -38 -18 -145 -20 -162 -3 -16
16 -16 80 0 96 7 7 31 12 54 12 52 0 74 8 74 26 0 10 -14 14 -49 14 -63 0
-105 30 -99 71 3 15 1 26 -3 23 -10 -6 -22 94 -18 150 4 39 2 43 -10 31 -8 -8
-16 -40 -18 -72 -9 -131 -9 -132 -265 -126 l-188 4 0 -26 c0 -59 -52 -117
-123 -136 -52 -14 -82 -1 -90 40 -8 40 0 61 21 54 14 -4 15 -3 2 6 -11 7 -20
5 -36 -10 -11 -10 -23 -16 -27 -13 -3 3 6 17 21 31 21 19 22 23 7 16 -11 -4
-91 -7 -177 -7 l-158 2 0 -28 c0 -37 -38 -92 -80 -112 -40 -21 -120 -24 -138
-6 -16 16 -16 80 0 96 7 7 26 12 44 12 54 0 56 10 44 196 -6 92 -7 171 -2 176
15 15 91 17 103 2 6 -8 22 -14 35 -14 21 0 22 -3 14 -27 -5 -16 -10 -60 -12
-100 l-4 -71 34 -4 33 -4 -6 82 c-7 80 -7 83 20 109 26 27 29 27 121 23 54 -2
99 -9 106 -16 7 -7 22 -12 35 -12 22 0 23 -4 23 -72 2 -210 4 -238 21 -238 9
0 26 8 38 18 20 17 21 20 10 174 -7 86 -9 164 -6 172 12 30 100 17 90 -12 -4
-15 -3 -15 6 -2 8 12 12 9 17 -17 5 -26 11 -33 31 -33 34 0 38 -21 11 -66
l-23 -39 -6 40 -6 40 -2 -43 c0 -26 -5 -41 -11 -37 -5 3 -10 1 -10 -6 0 -7 8
-9 21 -6 16 4 19 2 15 -10 -5 -13 0 -14 28 -9 24 5 39 2 49 -9 9 -8 17 -15 19
-15 2 0 1 33 -3 73 -12 111 -11 155 2 137 9 -13 10 -12 5 3 -4 14 2 17 37 19
39 1 40 1 8 5 -19 3 -45 -1 -58 -8 -18 -10 -35 -10 -80 0 -32 7 -78 13 -103
12 -25 0 -71 -1 -102 -1 -31 1 -59 -4 -63 -10 -3 -5 -22 -10 -40 -10 -26 0
-39 6 -51 25 -15 23 -15 27 0 50 20 30 56 33 81 5 10 -11 13 -20 7 -20 -7 0
-12 -5 -12 -11 0 -5 5 -7 11 -3 6 3 15 0 20 -7 7 -11 9 -10 9 4 0 24 -44 67
-70 67 -33 0 -57 -17 -64 -46 -9 -34 -53 -74 -82 -74 -24 0 -64 31 -64 51 0 5
-5 7 -11 3 -7 -4 -45 -6 -85 -5 -64 2 -75 0 -86 -18 -9 -15 -23 -21 -47 -21
-30 0 -33 -2 -27 -22 3 -13 6 -58 6 -102 0 -62 3 -77 14 -73 8 3 18 -5 25 -19
15 -33 14 -34 -11 -34 -21 0 -23 -4 -23 -60 0 -33 -4 -61 -10 -62 -12 -4 -22
96 -14 139 4 18 2 42 -5 55 -15 29 -20 178 -6 178 5 0 10 16 10 35 0 26 3 33
15 29 11 -5 15 1 15 19 0 13 7 30 15 37 12 10 16 8 25 -15 6 -15 10 -32 9 -39
-4 -33 2 -41 16 -22 45 60 -20 141 -80 102 -17 -11 -27 -29 -31 -56 -4 -22
-12 -40 -19 -40 -15 0 -28 -42 -16 -50 5 -3 14 -119 19 -258 7 -182 13 -257
23 -268 11 -13 24 -15 69 -10 30 4 143 6 250 6 l195 -1 195 -106 c107 -59 197
-108 199 -110 6 -4 -50 -63 -60 -63 -7 0 -79 -73 -179 -182 -29 -32 -56 -58
-60 -58 -4 0 -12 11 -18 25 -13 28 -33 32 -51 12 -8 -11 -2 -27 30 -71 22 -31
45 -54 50 -51 5 4 10 -18 11 -49 1 -31 2 -64 2 -73 1 -10 -4 -17 -9 -16 -7 1
-10 -20 -9 -55 2 -31 3 -63 3 -71 1 -11 4 -11 14 3 11 15 13 6 15 -56 2 -83
10 -128 22 -128 4 0 10 9 13 20 3 11 1 20 -5 20 -16 0 0 102 20 123 9 11 51
47 92 81 83 67 130 110 115 104 -32 -12 -65 -32 -65 -40 0 -4 -6 -8 -14 -8 -8
0 -17 -8 -20 -17 -3 -10 -21 -27 -38 -38 -48 -29 -51 -29 -39 -7 14 27 14 32
-3 26 -8 -3 -13 -16 -11 -32 6 -59 -39 -87 -48 -29 -8 49 -2 138 9 145 12 8
13 53 2 46 -5 -3 -7 -13 -6 -21 2 -9 -3 -18 -10 -20 -19 -7 -4 77 18 101 17
17 17 19 -1 37 -15 15 -24 17 -39 9 -11 -6 -20 -8 -20 -5 0 10 27 35 37 35 5
0 20 14 33 31 14 17 46 53 71 79 25 26 49 56 52 65 4 9 12 13 17 10 6 -4 10
-3 9 2 -3 20 2 24 17 13 8 -8 14 -9 12 -4 -4 14 58 84 75 84 24 0 28 -13 10
-34 -18 -21 -18 -21 3 -3 21 17 23 17 74 -10 28 -15 60 -32 71 -38 13 -6 20
-22 21 -45 l1 -35 4 32 c4 30 6 31 29 21 19 -9 24 -19 26 -52 1 -37 2 -38 5
-8 5 36 6 36 34 22 14 -8 19 -7 19 3 0 7 -17 21 -37 30 -56 25 -266 145 -282
162 -13 12 -10 14 23 8 32 -5 41 -2 69 25 22 21 36 28 46 23 11 -7 9 -11 -8
-20 -11 -7 -21 -17 -20 -24 0 -9 2 -9 6 1 2 6 10 12 15 12 6 0 24 14 40 32 33
37 38 52 6 21 -20 -20 -22 -21 -34 -5 -11 16 -14 15 -35 -3 -12 -11 -19 -14
-15 -7 12 20 -8 13 -22 -8 -16 -27 -52 -22 -129 18 -71 36 -77 38 -69 17 7
-19 6 -19 -32 1 -18 8 -32 20 -32 25 0 5 -10 9 -22 9 -21 1 -22 2 -6 14 16 12
16 14 -8 24 -34 16 -36 15 -24 -8 9 -17 -4 -13 -67 21 -92 49 -153 72 -153 59
0 -6 -39 -10 -90 -10 -53 0 -90 4 -90 10 0 6 6 10 14 10 8 0 27 8 43 17 29 16
29 17 10 36 -10 10 -17 21 -14 23 2 2 39 5 83 6 78 2 124 -11 124 -34 0 -7 -5
-6 -15 2 -9 7 -18 10 -22 6 -14 -13 41 -42 71 -37 5 1 6 -5 3 -12 -4 -10 8
-21 36 -33 23 -10 45 -23 48 -28 4 -4 12 -6 17 -2 18 11 62 -5 62 -23 0 -9 13
-23 28 -32 33 -19 65 -10 82 22 12 21 12 21 31 -10 28 -46 82 -43 108 7 13 25
56 30 110 11 l33 -11 -32 -33 c-18 -18 -27 -35 -22 -39 6 -3 23 9 39 27 15 18
42 42 60 55 l32 22 3 -32 c4 -40 22 -40 26 -1 2 19 0 24 -6 15 -14 -21 -22 21
-11 65 11 50 12 93 0 75 -6 -11 -16 -9 -48 8 -33 17 -45 19 -68 10 -16 -6 -33
-18 -39 -26 -11 -15 -46 -10 -46 6 0 4 -15 17 -33 28 -30 17 -36 18 -53 5 -10
-8 -18 -18 -17 -23 3 -11 -14 -8 -54 9 -36 15 -41 26 -17 35 8 3 13 2 10 -3
-3 -5 0 -11 8 -14 8 -3 13 1 12 11 -1 20 43 19 56 -1 7 -12 9 -10 12 15 0 6 7
13 15 16 10 3 12 0 7 -13 -5 -15 -3 -16 16 -10 63 21 230 16 225 -7 -1 -6 3
-12 8 -14 12 -4 35 41 35 68 0 10 4 18 10 18 5 0 9 -3 8 -7 -3 -18 15 -62 28
-67 18 -7 18 -56 -1 -82 -15 -22 -13 -63 3 -73 5 -3 13 -17 17 -30 7 -24 42
-60 58 -61 4 0 7 6 7 14 0 15 37 32 47 23 3 -3 25 0 49 8 41 12 44 12 44 -5 0
-26 -10 -30 -73 -33 -39 -1 -53 -6 -50 -15 4 -8 13 -10 27 -6 16 5 11 -4 -21
-39 -24 -26 -43 -52 -43 -58 0 -6 21 12 46 40 25 28 58 54 72 57 35 9 62 33
62 56 0 12 7 18 23 18 26 0 52 -48 42 -80 -4 -11 -2 -20 4 -20 6 0 11 9 11 20
0 15 7 20 28 20 l27 0 -33 20 c-44 27 -34 39 28 33 33 -2 50 0 50 7 0 8 -20
11 -60 8 -33 -1 -60 1 -60 6 0 5 -16 6 -35 3 -37 -6 -45 3 -20 23 8 7 18 28
21 48 6 31 8 33 15 17 6 -16 8 -16 8 -4 1 14 20 29 37 29 2 0 4 -16 4 -35 0
-19 4 -35 9 -35 6 0 7 16 4 37 l-6 36 37 -6 c20 -3 43 -13 52 -21 21 -22 34
-20 34 4 0 11 6 20 13 20 22 0 28 -12 15 -28 -13 -15 -14 -18 -16 -64 -1 -16
-9 -28 -19 -31 -11 -2 -9 -3 4 -2 12 1 34 -9 50 -22 l28 -24 -32 6 c-37 7 -46
-9 -10 -19 14 -4 32 1 49 14 15 11 45 22 68 26 36 6 48 19 17 19 -15 0 -16 27
-2 32 6 2 18 -10 28 -26 16 -27 16 -29 -2 -45 -15 -14 -24 -15 -40 -7 -29 16
-39 13 -17 -4 25 -19 53 -19 63 0 10 17 100 37 131 28 24 -6 30 -23 10 -23 -7
0 -30 -16 -51 -35 -51 -47 -66 -54 -114 -53 -43 0 -63 -7 -63 -23 0 -14 114
-11 129 4 11 10 14 10 18 0 3 -7 10 -13 16 -13 8 0 7 4 -1 12 -7 7 -12 18 -12
25 0 24 165 132 179 117 3 -3 -1 -9 -9 -14 -70 -41 -145 -98 -145 -110 0 -8
10 -16 23 -18 12 -2 22 -10 22 -19 0 -12 -18 -14 -120 -11 -85 2 -120 0 -120
-8 0 -18 25 -24 98 -24 46 0 62 3 52 10 -10 6 11 10 65 12 58 2 79 6 77 16 -1
9 6 10 25 6 25 -7 26 -5 15 9 -12 13 -10 16 15 21 15 2 -2 3 -39 1 -79 -3 -99
15 -46 43 17 9 39 25 49 34 9 9 21 13 25 10 4 -4 4 -2 1 4 -4 7 0 14 8 18 8 3
15 13 15 22 0 14 -8 16 -60 10 -55 -6 -60 -5 -60 13 0 11 4 31 9 45 7 17 7 26
-2 29 -9 3 -9 7 0 18 10 10 21 10 50 1 33 -10 36 -9 19 3 -24 18 -14 62 21 91
l27 21 -27 7 c-29 7 -36 33 -12 42 15 6 32 -8 52 -43 9 -16 8 -26 -8 -52 -14
-23 -15 -31 -5 -31 8 0 14 -11 14 -25 0 -18 -6 -25 -20 -25 -11 0 -16 -5 -13
-11 4 -6 13 -8 21 -5 8 3 14 -1 14 -9 0 -37 99 -59 155 -35 20 9 20 9 0 10
-18 1 -18 2 3 13 16 7 26 7 30 1 4 -6 17 -10 30 -10 16 0 22 6 22 24 0 15 4
21 11 16 8 -5 10 3 7 26 -4 27 -1 34 21 43 14 6 34 19 44 29 17 17 17 23 -4
153 -20 126 -23 135 -39 120 -9 -8 -20 -15 -25 -15 -12 0 -34 33 -35 51 0 23
-45 58 -61 48 -8 -5 -22 -9 -31 -9 -24 0 -25 55 -2 64 24 9 25 8 18 -19 -4
-16 -2 -25 6 -25 8 0 11 11 8 30 -3 17 -1 33 4 36 11 7 10 54 -1 54 -5 0 -14
-7 -21 -15 -10 -12 -9 -15 6 -15 18 -1 18 -1 -1 -16 -11 -9 -36 -23 -55 -32
-32 -15 -33 -16 -12 -20 16 -2 22 -8 18 -19 -3 -8 -6 -17 -6 -19 0 -3 -15 -2
-33 1 -26 5 -37 2 -56 -19 -14 -14 -34 -26 -45 -26 -20 -1 -20 -1 -2 -15 15
-11 16 -19 8 -42 -9 -25 -11 -26 -11 -5 -1 15 -7 22 -20 22 -22 0 -35 54 -19
83 11 21 35 23 35 2 0 -8 -5 -15 -11 -15 -6 0 -5 -5 2 -12 6 -6 14 -9 17 -7 2
3 1 61 -3 130 -5 79 -11 117 -17 106z m250 -241 c30 -20 40 -57 55 -196 18
-179 -10 -229 -130 -238 -67 -5 -90 6 -90 44 0 12 -5 26 -10 29 -25 15 13 35
66 35 43 0 55 4 64 20 10 19 8 20 -32 20 -54 0 -89 18 -106 52 -7 14 -16 69
-20 121 -7 93 -7 95 17 117 22 19 32 21 94 16 38 -3 79 -12 92 -20z m-2347
-60 c-4 -76 -18 -78 -18 -2 0 47 5 66 17 66 2 0 3 -29 1 -64z m2442 -122 c0
-24 4 -44 9 -44 10 0 25 -50 17 -57 -9 -9 -45 8 -40 20 2 7 0 42 -4 79 -7 55
-6 65 5 56 7 -6 13 -30 13 -54z m-2230 -158 c0 -7 9 -25 20 -38 23 -30 19 -37
-15 -30 -18 3 -25 11 -25 27 0 13 -3 30 -6 39 -4 11 -1 16 10 16 9 0 16 -6 16
-14z m584 -48 c33 -47 12 -98 -40 -98 -26 0 -54 30 -54 58 0 56 64 83 94 40z
m140 -3 c13 -14 31 -25 40 -25 9 0 16 -5 16 -11 0 -6 -8 -8 -18 -5 -12 4 -20
-1 -27 -16 -6 -13 -22 -27 -37 -32 -23 -8 -32 -6 -53 14 -29 27 -32 56 -8 82
23 25 60 22 87 -7z m175 -11 c19 -24 19 -29 6 -54 -8 -15 -22 -30 -31 -34 -25
-9 -67 16 -78 46 -21 60 62 94 103 42z m711 -15 c27 -65 -31 -118 -81 -73 -39
36 -12 104 41 104 21 0 30 -7 40 -31z m63 14 c-3 -15 23 -17 32 -3 10 16 57
12 77 -7 40 -36 13 -97 -42 -91 -30 3 -37 8 -46 37 -6 19 -13 29 -15 22 -3 -8
-13 -4 -32 13 -35 32 -35 48 1 44 15 -2 26 -8 25 -15z"/>
<path d="M2544 2464 c3 -9 6 -29 6 -45 0 -22 5 -29 20 -29 17 0 20 7 20 45 0
42 -2 45 -26 45 -20 0 -25 -4 -20 -16z"/>
<path d="M2070 2715 c-30 -30 -52 -55 -49 -55 10 0 124 110 114 110 -6 0 -35
-25 -65 -55z"/>
<path d="M2453 2749 c-17 -17 -16 -29 2 -66 16 -32 10 -77 -6 -51 -7 10 -9 9
-9 -4 0 -23 15 -31 29 -14 17 20 1 152 -16 135z"/>
<path d="M542 2714 c-12 -8 -22 -21 -21 -27 0 -8 2 -8 6 1 4 10 8 10 19 1 9
-7 14 -8 14 -1 0 6 -6 13 -12 15 -7 3 -3 6 10 6 12 1 22 -3 22 -9 0 -5 5 -10
10 -10 16 0 11 27 -6 34 -20 8 -16 9 -42 -10z"/>
<path d="M2746 2704 c-53 -30 -98 -88 -64 -81 7 1 21 14 30 29 32 51 110 46
124 -7 13 -54 -39 -73 -82 -30 -34 34 -38 32 -31 -15 3 -27 1 -43 -9 -51 -8
-6 -11 -15 -8 -20 3 -5 13 0 23 12 22 27 97 42 116 23 7 -8 19 -48 26 -89 10
-58 16 -72 25 -64 9 7 10 18 4 35 -12 30 -1 36 58 31 23 -2 42 0 42 4 0 3 -23
9 -51 11 -52 5 -69 18 -69 52 0 11 -7 27 -15 36 -12 13 -13 23 -6 43 8 19 7
27 -5 31 -8 3 -14 11 -14 19 0 7 -12 22 -27 33 l-28 20 -39 -22z"/>
<path d="M2211 2624 c-11 -15 -21 -33 -21 -40 0 -21 17 -25 31 -6 13 15 12 16
-3 3 -24 -18 -23 -5 3 31 27 37 18 48 -10 12z"/>
<path d="M2922 2577 l-21 -22 29 0 c25 -1 29 3 28 22 -3 29 -9 29 -36 0z"/>
<path d="M2228 2559 c-3 -8 -2 -37 3 -64 11 -57 -1 -79 -28 -52 -9 9 -13 20
-9 24 4 4 11 1 16 -7 13 -22 18 -10 12 34 -4 35 -6 38 -32 33 -15 -3 -31 -2
-36 2 -5 5 -24 11 -42 15 -24 4 -32 2 -29 -7 2 -6 13 -13 25 -13 40 -2 50 -21
57 -113 l7 -89 46 -4 c26 -3 48 -4 49 -3 4 2 -18 199 -26 230 -5 21 -9 26 -13
14z m8 -192 c8 3 14 1 14 -5 0 -14 -32 -24 -42 -14 -5 5 -11 26 -14 48 l-5 39
16 -37 c11 -24 21 -35 31 -31z"/>
<path d="M1241 2513 c0 -13 -5 -23 -11 -23 -5 0 -10 -5 -10 -11 0 -5 5 -7 10
-4 6 3 10 0 10 -9 0 -8 -5 -17 -10 -19 -6 -3 -5 -4 2 -3 7 1 14 12 16 24 2 11
11 23 20 25 16 4 16 5 0 6 -9 0 -19 9 -21 19 -4 13 -5 11 -6 -5z"/>
<path d="M667 2496 c-4 -10 -7 -40 -7 -67 0 -48 1 -49 31 -49 24 0 30 3 25 16
-3 9 -6 33 -6 55 0 27 -4 39 -14 39 -8 0 -16 5 -18 12 -3 7 -7 5 -11 -6z"/>
<path d="M143 2309 c-23 -74 -64 -206 -92 -294 -28 -88 -51 -164 -50 -170 1
-15 24 52 86 245 82 261 104 333 100 343 -1 5 -21 -51 -44 -124z"/>
<path d="M1624 2409 c3 -17 6 -40 6 -50 0 -12 7 -19 20 -19 22 0 25 15 14 69
-5 22 -12 31 -26 31 -18 0 -20 -5 -14 -31z"/>
<path d="M2955 2420 c-4 -6 -10 -8 -13 -6 -4 2 -17 -3 -29 -12 -19 -14 -21
-24 -16 -59 l6 -43 48 3 c48 2 61 10 37 21 -10 5 -10 7 0 12 6 3 12 12 12 21
0 11 -6 10 -29 -6 -35 -25 -47 -26 -55 -4 -4 11 4 28 26 50 17 18 29 33 26 33
-4 0 -10 -5 -13 -10z"/>
<path d="M2886 2282 c6 -4 11 -26 12 -48 2 -32 -3 -49 -23 -73 -31 -36 -94
-57 -125 -41 -22 12 -23 10 -14 -14 9 -24 71 -20 129 8 28 13 69 29 93 36 25
6 42 17 42 25 0 19 -39 20 -46 1 -13 -33 -29 -23 -29 18 -1 61 -13 96 -33 96
-10 0 -13 -3 -6 -8z"/>
<path d="M2990 2275 c0 -9 -10 -16 -27 -16 -28 -2 -28 -2 -3 -6 14 -3 28 -10
32 -17 4 -6 8 4 8 22 0 17 -2 32 -5 32 -3 0 -5 -7 -5 -15z"/>
<path d="M1264 2046 c-3 -8 -4 -22 -2 -30 2 -12 6 -13 21 -2 10 8 15 20 11 30
-8 20 -23 21 -30 2z"/>
<path d="M2840 2050 c-12 -8 -10 -10 10 -10 l25 -1 -29 -15 c-23 -13 -39 -14
-78 -6 -44 8 -48 8 -35 -5 8 -9 35 -17 58 -20 38 -4 48 0 73 23 21 20 43 29
85 34 l56 7 -75 2 c-41 0 -82 -4 -90 -9z"/>
<path d="M279 1990 c-2 -68 -5 -101 -15 -147 -4 -23 -2 -33 5 -33 7 0 9 5 6
10 -3 6 1 10 10 10 11 0 15 -5 11 -15 -3 -8 -1 -15 5 -15 7 0 9 13 5 38 -4 20
-7 76 -7 125 0 97 -18 122 -20 27z"/>
<path d="M2940 2025 c0 -8 5 -15 11 -15 6 0 9 -9 6 -19 -3 -14 0 -19 13 -18
10 1 16 5 14 9 -3 4 -1 8 5 8 6 0 -1 11 -15 25 -29 29 -34 31 -34 10z"/>
<path d="M2611 2016 c10 -8 89 -13 89 -5 0 5 -21 9 -47 9 -25 0 -44 -2 -42 -4z"/>
<path d="M2437 2003 c-4 -3 -7 -15 -7 -25 0 -12 -7 -18 -22 -18 -15 0 -19 -3
-11 -11 6 -6 37 -8 74 -6 47 2 58 5 42 11 -13 5 -20 12 -17 17 5 9 -8 13 -40
9 -13 -1 -17 3 -13 14 7 17 5 20 -6 9z"/>
<path d="M2597 1991 c-62 -7 -79 -27 -19 -24 33 2 35 1 15 -9 -13 -6 -23 -14
-23 -18 0 -4 -24 -15 -54 -25 -30 -10 -53 -22 -50 -26 5 -9 -40 -41 -84 -59
-25 -10 -68 -11 -175 -6 -167 8 -157 8 -181 4 -10 -2 -21 3 -23 10 -3 7 5 12
21 12 14 0 26 5 26 11 0 16 -42 6 -54 -13 -8 -14 -7 -21 5 -33 13 -13 23 -14
63 -5 27 6 57 8 68 4 11 -3 63 -6 115 -5 l95 0 -38 -34 c-22 -19 -52 -40 -69
-47 -16 -6 -37 -19 -46 -28 -27 -25 -82 -65 -91 -66 -4 -1 -20 -2 -35 -4 -16
-1 -22 -4 -15 -7 21 -8 13 -23 -14 -23 -14 0 -23 -4 -20 -9 7 -11 -17 -21 -50
-21 -13 0 -24 -5 -24 -11 0 -5 4 -8 9 -4 5 3 12 1 16 -4 3 -5 -3 -14 -12 -20
-10 -5 -14 -13 -10 -17 4 -4 20 4 35 17 15 14 52 41 82 59 30 19 87 58 126 87
44 33 77 51 87 48 8 -4 18 -2 22 4 3 7 0 8 -9 5 -33 -13 -14 8 39 41 62 40 76
44 49 13 l-19 -22 26 20 c15 10 25 22 22 26 -2 4 2 6 9 3 7 -3 36 12 63 33 28
21 82 60 120 87 86 60 93 65 75 63 -8 -1 -41 -4 -73 -7z"/>
<path d="M2696 1981 c-3 -4 -74 -57 -158 -116 -84 -60 -176 -126 -205 -147
-34 -25 -58 -36 -69 -31 -11 4 -15 3 -11 -4 4 -7 -20 -26 -60 -49 -38 -20 -89
-52 -114 -70 -26 -18 -62 -40 -80 -50 -20 -10 -29 -19 -21 -22 7 -2 37 11 65
30 77 51 183 108 201 108 9 0 16 4 16 8 0 8 89 69 185 127 44 27 174 121 258
185 15 12 25 26 21 31 -7 11 -21 12 -28 0z"/>
<path d="M1664 1918 c-58 -56 -66 -68 -70 -108 -4 -30 -2 -41 4 -31 5 7 7 22
4 33 -4 16 13 38 73 94 43 41 73 74 67 74 -7 0 -41 -28 -78 -62z"/>
<path d="M2833 1961 c-8 -12 -9 -22 -3 -26 12 -7 2 -36 -17 -52 -13 -10 -13
-14 0 -33 13 -19 15 -17 27 38 6 32 10 66 9 76 -4 15 -5 14 -16 -3z"/>
<path d="M1750 1950 c-1 -3 -3 -16 -4 -29 -2 -13 -16 -36 -32 -49 -76 -65 -96
-84 -92 -87 8 -8 128 101 134 122 5 18 -1 60 -6 43z"/>
<path d="M1428 1901 c9 -5 12 -24 8 -62 -5 -49 -4 -50 4 -14 14 63 12 85 -7
85 -14 0 -15 -2 -5 -9z"/>
<path d="M1550 1879 c0 -26 3 -29 14 -20 8 7 12 21 9 31 -8 31 -23 23 -23 -11z"/>
<path d="M1700 1825 c-19 -19 -29 -35 -24 -35 6 0 25 16 44 35 19 19 29 35 24
35 -6 0 -25 -16 -44 -35z"/>
<path d="M2668 1837 c-14 -10 -14 -29 -7 -142 6 -71 11 -145 12 -164 2 -29 -3
-37 -31 -54 -23 -13 -37 -16 -44 -9 -5 5 -10 57 -11 115 -2 104 -2 106 -22 93
-17 -12 -20 -23 -17 -77 1 -35 5 -85 8 -110 5 -45 4 -47 -27 -63 -19 -9 -36
-13 -42 -7 -4 4 -9 54 -10 109 -2 95 -3 99 -21 90 -17 -9 -18 -19 -12 -119 l6
-108 -30 -16 c-16 -8 -31 -12 -31 -8 -1 5 -4 54 -8 110 l-6 101 -30 -24 c-27
-22 -30 -29 -33 -98 -5 -88 11 -146 39 -146 10 0 19 -7 19 -15 0 -21 -6 -19
-59 13 -25 16 -54 31 -63 35 -12 4 -19 18 -20 39 -3 43 -6 91 -7 103 -3 30
-21 -27 -21 -67 0 -45 -11 -61 -25 -38 -3 6 -12 10 -18 10 -16 -1 23 -30 40
-30 7 0 36 -18 65 -39 28 -22 54 -39 57 -38 3 0 17 -3 30 -7 21 -7 35 -17 75
-51 6 -5 36 -22 66 -36 30 -15 75 -36 100 -48 38 -19 42 -20 28 -4 -10 10 -64
43 -122 73 -101 53 -105 56 -104 86 1 28 7 35 50 55 26 12 48 26 48 30 0 4 6
6 13 5 24 -2 87 28 87 42 0 8 6 12 15 8 8 -3 35 4 61 15 l46 21 -6 112 c-10
156 -18 261 -20 263 -1 2 -9 -3 -18 -10z m-313 -495 c-3 -3 -7 -3 -10 0 -10 9
-18 156 -10 175 6 12 11 -13 17 -76 5 -52 6 -96 3 -99z"/>
<path d="M2787 1796 c-26 -15 -40 -31 -47 -56 -29 -105 14 -283 55 -227 12 16
13 16 18 -3 7 -28 -3 -60 -19 -60 -8 0 -14 -7 -14 -15 0 -17 14 -19 40 -5 26
14 33 59 21 142 -17 110 -22 218 -11 218 6 0 10 7 10 15 0 19 -6 18 -53 -9z
m7 -153 c8 -116 -6 -139 -23 -40 -17 101 -13 174 10 150 3 -5 10 -54 13 -110z"/>
<path d="M2623 1725 c0 -38 2 -53 4 -32 2 20 2 52 0 70 -2 17 -4 1 -4 -38z"/>
<path d="M1910 1774 c0 -18 26 -35 42 -29 8 3 15 12 15 19 0 11 -4 12 -19 3
-15 -10 -21 -9 -28 3 -5 8 -10 10 -10 4z"/>
<path d="M2555 1760 c-3 -5 -3 -14 0 -20 3 -5 -1 -10 -9 -10 -9 0 -16 -4 -16
-9 0 -6 9 -9 20 -8 15 1 20 8 20 29 0 29 -5 35 -15 18z"/>
<path d="M306 1753 c-3 -3 1 -12 9 -20 8 -8 15 -27 15 -43 0 -24 -5 -29 -27
-33 -26 -4 -26 -4 5 -6 32 -1 32 -1 32 48 0 33 -5 51 -14 54 -8 3 -17 3 -20 0z"/>
<path d="M1266 1745 c-3 -9 -5 -40 -5 -68 l2 -52 7 65 c8 67 7 82 -4 55z"/>
<path d="M1084 1740 c-34 -14 -69 -70 -43 -70 5 0 8 4 4 9 -3 5 12 23 32 40
40 33 40 35 7 21z"/>
<path d="M1307 1739 c-25 -14 -22 -32 3 -19 23 12 24 5 14 -49 -5 -22 -11 -30
-20 -27 -8 3 -14 -1 -14 -8 0 -8 -6 -16 -12 -19 -7 -2 -10 -7 -7 -11 4 -4 14
0 22 9 18 18 27 19 27 4 0 -6 -10 -19 -22 -29 -13 -10 -20 -22 -16 -26 7 -7
47 31 48 45 1 3 3 30 6 59 5 64 -3 85 -29 71z"/>
<path d="M1839 1737 c-22 -17 -7 -57 21 -57 28 0 43 40 21 57 -20 15 -22 15
-42 0z m39 -19 c-7 -19 -38 -22 -38 -4 0 10 9 16 21 16 12 0 19 -5 17 -12z"/>
<path d="M1230 1685 c-2 -33 -4 -35 -7 -12 -7 46 -23 30 -23 -23 0 -27 5 -50
10 -50 6 0 10 6 10 14 0 8 5 16 11 18 6 2 9 22 6 48 l-4 45 -3 -40z"/>
<path d="M1383 1662 c-1 -39 1 -51 7 -37 8 19 9 19 9 1 1 -11 4 -17 7 -13 8 7
-6 107 -14 107 -4 0 -8 -26 -9 -58z"/>
<path d="M2438 1686 c-7 -33 8 -57 22 -36 13 19 9 52 -6 57 -6 2 -14 -7 -16
-21z"/>
<path d="M2982 1676 c-7 -15 -12 -39 -12 -54 1 -23 3 -20 16 16 17 50 14 78
-4 38z"/>
<path d="M2880 1677 c0 -8 7 -49 16 -92 14 -70 14 -78 0 -94 -22 -24 -20 -34
4 -28 12 3 24 -1 31 -11 9 -15 10 -15 5 2 -4 10 -4 28 0 39 5 16 8 17 15 6 19
-31 -6 69 -28 110 -13 24 -23 50 -23 57 0 7 -4 16 -10 19 -5 3 -10 0 -10 -8z"/>
<path d="M1182 1649 c-1 -20 -5 -58 -8 -85 -5 -37 -4 -46 5 -38 8 7 11 37 8
85 -1 41 -4 58 -5 38z"/>
<path d="M1348 1634 c-2 -25 0 -48 4 -50 5 -3 8 18 8 45 0 64 -7 66 -12 5z"/>
<path d="M1560 1656 c0 -8 15 -21 34 -30 18 -8 39 -22 46 -31 10 -13 9 -15 -8
-15 -13 0 -21 -8 -24 -25 -5 -22 -2 -25 26 -25 31 0 56 15 56 32 0 5 -9 4 -19
-2 -24 -12 -51 -13 -51 -1 0 12 62 21 75 11 6 -4 21 -11 35 -14 l25 -7 -25 20
c-14 11 -28 21 -32 21 -4 0 -37 18 -73 40 -42 26 -65 35 -65 26z"/>
<path d="M1795 1660 c-4 -6 -15 -8 -26 -5 -13 4 -19 2 -19 -9 0 -22 33 -20 55
4 10 11 13 20 7 20 -6 0 -14 -5 -17 -10z"/>
<path d="M200 1628 c0 -7 -3 -24 -7 -38 -5 -21 -4 -23 8 -14 8 6 31 14 52 18
35 7 37 6 38 -21 1 -23 3 -24 6 -6 2 12 -4 34 -13 48 l-18 27 -17 -23 -17 -22
-6 21 c-8 24 -26 30 -26 10z"/>
<path d="M307 1624 c-7 -8 3 -77 14 -88 5 -6 9 4 10 25 1 31 2 32 9 9 7 -22 8
-22 10 -5 2 15 4 12 10 -10 6 -25 8 -21 9 24 1 48 -1 53 -12 37 -12 -17 -14
-17 -20 -2 -6 16 -19 21 -30 10z"/>
<path d="M1110 1612 c0 -7 -6 -11 -12 -9 -9 1 -13 -14 -14 -48 l-2 -50 8 45
c4 25 8 41 9 35 1 -5 6 -2 12 8 6 10 8 21 5 24 -3 4 -6 1 -6 -5z"/>
<path d="M1131 1572 c-1 -38 -4 -51 -13 -46 -8 5 -9 2 -5 -10 4 -10 7 -23 7
-29 0 -7 7 -4 14 6 8 10 16 14 18 10 3 -4 3 -1 0 7 -2 8 -8 38 -12 65 l-8 50
-1 -53z"/>
<path d="M1250 1562 c0 -29 4 -52 9 -52 8 0 3 90 -5 99 -2 2 -4 -19 -4 -47z"/>
<path d="M1359 1552 c-111 -79 -203 -152 -192 -152 6 0 16 7 23 15 7 8 18 15
25 15 6 0 20 9 31 21 10 12 43 37 73 57 51 34 121 92 111 92 -3 0 -35 -22 -71
-48z"/>
<path d="M1012 1557 c-12 -13 -22 -30 -22 -39 0 -9 -5 -18 -11 -20 -7 -2 -10
-10 -8 -17 3 -7 20 10 38 39 36 56 37 74 3 37z"/>
<path d="M1207 1543 c-3 -16 -8 -35 -12 -44 -4 -10 0 -19 10 -23 11 -4 14 -2
9 6 -5 8 -2 9 10 5 14 -6 17 -3 12 9 -3 8 -6 18 -6 20 0 3 -4 2 -10 -1 -6 -4
-7 6 -4 25 4 16 4 30 2 30 -3 0 -8 -12 -11 -27z"/>
<path d="M1779 1530 c13 -11 29 -20 37 -20 8 0 14 -4 14 -8 0 -5 10 -14 23
-20 20 -10 19 -11 -15 -11 -36 -1 -50 -11 -54 -39 -2 -8 -11 -20 -21 -28 -10
-7 -13 -14 -7 -14 6 0 17 7 24 15 14 17 94 65 109 65 25 0 7 -18 -51 -53 -35
-21 -70 -42 -78 -47 -8 -5 -55 -33 -103 -61 -49 -28 -86 -53 -83 -56 4 -5 64
25 76 37 3 3 52 32 110 65 58 32 117 67 132 77 39 27 70 10 61 -32 -3 -19 -1
-30 6 -30 6 0 11 12 11 28 1 23 2 25 13 11 7 -9 17 -14 22 -13 6 2 15 0 21 -4
14 -9 27 -282 14 -282 -6 0 -10 -4 -10 -10 0 -16 27 -11 34 6 3 9 6 28 6 43 0
23 7 31 40 46 22 10 40 22 40 27 0 5 4 6 10 3 14 -9 70 23 70 40 0 17 11 19
26 6 8 -8 121 -69 252 -137 54 -28 66 -44 33 -44 -11 0 -104 -30 -208 -66
-103 -36 -204 -70 -223 -76 -34 -10 -64 -28 -45 -28 6 0 46 12 90 26 133 42
139 44 129 35 -5 -5 -49 -23 -99 -41 -49 -18 -103 -38 -119 -45 -16 -7 -36
-11 -44 -7 -9 3 -13 1 -9 -5 6 -10 -41 -38 -50 -29 -2 2 5 7 16 11 12 3 19 11
16 16 -4 5 -13 5 -23 -1 -9 -5 -43 -19 -74 -31 -31 -12 -54 -27 -51 -32 3 -6
1 -7 -6 -3 -17 11 -53 -3 -44 -17 4 -7 -1 -6 -10 2 -9 7 -17 9 -17 3 0 -5 -17
-13 -37 -17 -21 -4 -50 -13 -65 -21 -16 -8 -33 -12 -38 -9 -6 3 -10 1 -10 -6
0 -11 24 -9 65 6 16 5 17 5 5 -4 -8 -6 -32 -16 -52 -21 -20 -6 -44 -17 -51
-25 -16 -15 -27 -10 -27 12 0 7 6 13 14 13 9 0 12 10 9 36 -2 23 0 33 7 29 5
-3 10 -1 10 4 0 6 -4 11 -9 11 -5 0 -9 14 -8 31 2 28 8 33 67 56 36 14 71 30
78 36 14 11 16 83 2 92 -5 3 -41 -10 -79 -30 -39 -19 -72 -35 -74 -35 -6 0 -2
79 4 82 22 15 94 48 105 48 8 0 17 7 20 15 4 10 13 13 25 10 24 -8 25 10 2 19
-10 4 -20 1 -25 -9 -5 -8 -17 -15 -27 -15 -11 0 -21 -7 -25 -15 -3 -8 -12 -12
-21 -9 -8 4 -17 -1 -21 -10 -10 -27 -42 -19 -47 12 -3 19 -4 14 -6 -15 0 -24
-6 -43 -11 -43 -6 0 -8 11 -4 26 5 19 4 25 -5 20 -13 -9 -5 -215 10 -230 12
-13 11 -29 -1 -21 -5 3 -10 2 -10 -3 0 -6 6 -12 14 -15 12 -5 13 -13 5 -40 -5
-19 -7 -60 -5 -92 2 -31 0 -69 -4 -84 l-8 -26 -1 25 c-1 14 -6 32 -11 40 -8
12 -10 11 -10 -6 0 -27 -26 -51 -33 -32 -3 9 -9 7 -21 -7 -20 -26 -21 -41 -1
-25 9 7 18 10 22 7 3 -4 12 1 20 11 11 15 13 9 11 -42 -3 -59 -3 -60 -38 -68
-44 -11 -198 -57 -225 -68 -11 -4 -52 -17 -91 -29 -45 -14 -71 -27 -71 -37 0
-16 23 -19 32 -4 4 7 11 8 18 2 8 -6 21 -6 37 0 23 9 24 11 6 17 -17 6 -17 8
-4 14 10 3 19 -1 23 -11 3 -9 1 -18 -4 -20 -6 -2 -8 -9 -5 -14 4 -6 2 -8 -3
-5 -6 4 -18 -4 -27 -18 -9 -14 -12 -25 -7 -25 5 0 11 7 15 15 9 23 21 18 22
-10 2 -21 -1 -25 -18 -19 -17 5 -18 3 -9 -15 7 -12 17 -21 22 -21 6 0 9 -7 6
-14 -4 -10 -1 -13 9 -9 9 3 14 -1 14 -13 0 -11 3 -29 6 -41 4 -14 2 -23 -5
-23 -7 0 -9 4 -6 10 3 5 -1 10 -9 10 -10 0 -14 -8 -12 -25 3 -32 14 -42 22
-21 3 9 10 16 16 16 5 0 6 -4 3 -10 -3 -5 -2 -10 3 -10 17 0 22 13 9 28 -7 10
-7 13 -1 9 14 -8 74 47 74 68 0 8 -5 15 -11 15 -5 0 -8 -4 -5 -8 2 -4 0 -14
-5 -22 -8 -12 -9 -11 -7 5 2 13 -2 19 -11 17 -10 -2 -12 4 -7 22 6 25 -17 45
-29 25 -4 -5 -11 -7 -16 -4 -5 4 -9 1 -9 -4 0 -6 4 -11 10 -11 5 0 7 -7 3 -16
-11 -28 -24 9 -21 60 3 44 18 66 18 26 0 -11 4 -20 10 -20 5 0 14 9 20 20 10
18 -2 31 -13 13 -2 -5 -2 -2 -1 5 2 7 -3 15 -11 18 -19 8 -19 30 0 38 14 5 19
-5 16 -32 -4 -25 17 -11 29 21 7 17 14 26 17 20 2 -7 9 -13 14 -13 4 0 5 7 2
17 -4 11 -3 14 5 9 7 -4 12 -2 12 5 0 7 2 10 5 7 6 -6 26 -164 28 -225 1 -35
5 -43 20 -43 18 0 18 7 13 100 -4 55 -9 107 -12 115 -7 17 4 19 40 5 21 -8 24
-13 18 -32 -9 -24 5 -61 23 -65 6 -1 17 -4 26 -8 10 -4 16 0 16 9 0 8 -4 13
-9 10 -4 -3 -9 5 -9 18 -1 17 -3 18 -6 6 -7 -29 -23 -20 -23 12 0 23 5 30 19
30 11 0 23 -4 26 -10 7 -12 25 -13 25 -2 0 5 -34 19 -75 32 -65 20 -75 27 -75
47 0 16 7 24 24 29 34 8 49 -3 42 -32 -4 -16 -2 -24 6 -25 32 -2 53 -9 56 -18
2 -6 8 -11 14 -11 7 0 7 4 0 13 -19 23 7 135 28 122 4 -3 11 1 13 7 4 10 6 10
6 0 1 -7 6 -10 11 -7 16 10 23 -24 9 -42 -10 -12 -14 -52 -14 -150 0 -128 1
-134 20 -131 18 3 20 9 17 76 l-3 72 103 -1 c66 -1 106 -5 110 -12 5 -8 8 -6
8 5 0 10 6 17 13 15 7 -1 11 7 9 21 -3 17 2 25 17 29 11 3 18 9 15 14 -3 5 0
9 5 9 6 0 11 -11 11 -25 0 -14 -6 -25 -12 -25 -10 0 -10 -2 -1 -8 8 -5 12 -34
10 -87 l-2 -80 -32 -1 c-26 -1 -33 3 -33 18 0 10 6 18 13 18 6 0 4 5 -6 11 -9
6 -15 14 -13 18 3 4 -6 7 -19 7 -14 -1 -24 -6 -24 -11 1 -6 10 -9 21 -7 20 4
23 -10 8 -39 -9 -16 -22 -19 -83 -19 -111 0 -117 -3 -117 -61 0 -26 4 -51 10
-54 6 -3 7 1 4 9 -6 17 16 76 28 76 5 0 8 -9 8 -20 0 -21 20 -28 21 -7 0 6 4
3 9 -8 7 -18 9 -16 15 13 6 26 12 31 26 27 11 -3 28 -7 38 -10 11 -3 22 -16
24 -28 3 -15 5 -12 6 11 1 36 20 43 28 11 6 -20 6 -20 17 2 23 47 46 25 46
-45 0 -28 1 -29 15 -10 8 10 15 33 15 51 0 29 3 32 30 31 25 -1 30 -5 30 -27
l1 -26 12 25 c7 14 21 27 32 28 54 10 30 22 -46 23 l-64 1 3 49 c2 27 7 47 10
45 4 -2 13 2 20 10 11 12 9 14 -8 14 -22 0 -26 16 -10 40 9 13 11 13 20 0 9
-13 10 -13 10 0 0 10 18 22 48 31 26 9 55 19 65 23 13 6 17 3 17 -12 0 -33
-11 -52 -30 -52 -10 0 -20 6 -23 13 -2 6 -3 4 -2 -5 4 -21 -11 -33 -20 -18 -3
5 -11 10 -16 10 -6 0 -7 -4 -4 -10 3 -5 -2 -10 -12 -10 -11 0 -14 -3 -7 -8 6
-4 13 -15 17 -24 7 -20 -16 -31 -32 -15 -8 8 -11 8 -11 0 0 -16 29 -43 46 -43
8 0 14 4 14 10 0 5 -7 7 -16 3 -9 -3 -4 6 10 20 14 14 26 33 26 40 0 8 7 18
16 21 24 9 28 7 15 -7 -6 -8 -8 -17 -4 -20 3 -4 1 -7 -5 -7 -24 0 -11 -16 15
-18 15 -1 30 -8 35 -15 4 -7 8 -7 8 -1 0 5 -6 19 -14 29 -14 20 -11 44 8 57 7
5 6 8 -3 8 -11 0 -11 3 -1 15 7 8 16 12 21 9 5 -3 9 2 9 10 0 9 5 16 10 16 6
0 10 5 10 12 0 6 10 23 23 36 l22 25 -22 -12 c-18 -9 -22 -8 -26 7 -5 17 -5
15 -11 -40 0 -7 -10 -14 -21 -16 -16 -3 -17 -1 -5 7 25 18 -11 14 -48 -5 -38
-18 -57 -11 -42 16 13 25 13 30 -5 30 -15 0 -20 -17 -16 -54 1 -11 -2 -17 -5
-13 -4 4 -14 1 -22 -6 -13 -11 -14 -9 -2 13 9 17 10 25 1 28 -16 5 -13 32 4
32 8 0 14 5 12 12 -1 8 17 13 52 16 52 4 54 3 49 -21 -4 -20 -1 -23 14 -19 10
2 18 12 18 22 0 12 11 19 37 23 20 4 38 5 39 4 2 -2 4 -39 6 -84 2 -45 6 -84
9 -87 3 -4 6 0 7 7 2 30 9 47 18 47 5 -1 8 -12 7 -26 -1 -13 3 -24 8 -24 6 0
7 -5 3 -12 -5 -7 -2 -9 9 -5 9 3 18 1 20 -6 10 -28 17 3 8 39 -8 36 -9 37 -10
9 -1 -24 -3 -27 -11 -13 -6 9 -8 32 -6 52 6 40 0 45 -20 19 -12 -16 -15 -16
-24 -3 -14 21 -12 30 5 30 11 0 15 8 13 28 -3 24 1 27 31 30 20 2 37 -2 42
-10 6 -9 11 -10 17 -2 4 6 14 11 22 11 8 0 51 4 96 8 80 7 81 7 87 -16 4 -13
7 -44 7 -69 1 -25 5 -64 9 -87 7 -36 2 -61 -36 -173 -25 -72 -42 -134 -40
-137 12 -11 26 9 43 60 9 28 32 92 51 141 19 48 32 91 29 94 -4 3 -6 0 -6 -6
0 -7 -5 -12 -11 -12 -5 0 -8 3 -6 8 2 4 -1 50 -8 102 -7 53 -9 96 -4 98 19 7
8 23 -11 17 -11 -3 -20 -2 -20 3 0 13 -114 6 -118 -7 -5 -14 -102 -14 -102 -1
0 17 -62 11 -76 -7 -10 -15 -15 -16 -25 -6 -17 17 -81 17 -97 1 -9 -9 -15 -10
-20 -2 -4 6 -24 14 -44 17 -29 4 -36 3 -31 -9 3 -9 -2 -14 -13 -15 -11 -1 -40
-3 -66 -5 -27 -2 -48 1 -48 5 0 10 -57 25 -82 23 -10 -1 -18 3 -18 8 0 13 90
37 175 46 l70 8 -45 7 c-25 3 -36 7 -25 8 68 6 101 14 111 27 6 7 33 15 60 16
27 2 52 7 56 13 4 5 28 10 53 11 25 1 49 5 52 8 4 3 16 6 27 6 12 0 28 5 36
11 11 7 3 8 -30 4 -34 -6 -42 -4 -34 5 6 6 30 14 53 17 23 3 44 10 47 14 10
16 -24 9 -183 -37 -87 -26 -171 -50 -188 -54 -16 -5 -119 -34 -228 -64 -109
-31 -200 -56 -203 -56 -2 0 -4 45 -4 100 0 93 1 100 20 101 35 2 129 33 175
58 17 9 35 16 40 17 6 0 23 6 39 13 21 9 32 9 42 0 11 -9 14 -7 14 12 0 18 3
20 12 11 16 -16 28 -15 28 3 0 8 7 15 15 15 9 0 34 9 57 21 22 11 50 22 61 25
11 2 25 9 30 16 7 11 10 10 14 0 4 -11 8 -10 22 1 23 22 87 46 98 38 6 -3 13
-13 17 -21 3 -8 4 -3 1 12 -5 25 0 29 50 53 31 14 62 25 69 25 28 0 46 12 46
31 0 19 1 19 22 -1 19 -18 23 -18 31 -5 4 8 29 26 55 38 l47 23 80 -42 c79
-42 80 -43 52 -53 -36 -14 -37 -14 -37 4 0 10 -8 6 -25 -10 -26 -27 -58 -34
-49 -12 3 9 -4 13 -26 11 -17 -1 -32 -4 -34 -6 -1 -1 -10 -15 -19 -30 -23 -37
-35 -35 -43 7 -9 47 -27 45 -19 -2 10 -57 14 -66 30 -59 8 3 15 1 15 -5 0 -6
14 3 30 20 25 25 36 29 61 24 22 -4 34 -1 47 15 14 15 22 18 35 10 13 -7 23
-6 33 2 7 7 14 9 14 4 0 -5 5 -2 10 8 10 16 41 15 65 -2 6 -4 49 -28 98 -54
l87 -47 0 35 c0 34 -3 37 -69 71 -73 36 -88 49 -71 60 5 3 10 16 9 28 -1 20
-2 19 -12 -5 -11 -28 -27 -38 -27 -17 0 6 -6 9 -14 6 -7 -3 -29 4 -47 15 -19
12 -50 28 -69 36 l-35 14 24 -26 c14 -14 20 -26 14 -26 -12 0 -146 67 -203
101 -19 12 -93 52 -166 89 -72 38 -149 79 -170 91 -22 12 -109 58 -194 101
-85 44 -159 83 -165 87 -5 5 -19 11 -30 14 -17 6 -17 4 4 -13z m319 -176 c30
-21 33 -118 3 -134 -35 -18 -39 -11 -43 70 -3 85 1 92 40 64z m112 -71 c0 -13
-49 -38 -57 -29 -3 3 -7 21 -10 41 l-5 35 36 -17 c20 -9 36 -23 36 -30z m-480
-300 c0 -25 -8 -32 -67 -58 -36 -16 -70 -31 -74 -33 -5 -2 -9 9 -9 25 1 25 9
32 68 60 37 17 70 32 75 32 4 1 7 -11 7 -26z m170 -546 c0 -26 -30 -34 -46
-12 -12 17 -14 13 -14 -33 0 -65 -8 -69 -138 -71 l-92 -2 0 54 c0 33 5 59 13
65 12 10 106 17 229 17 39 0 48 -3 48 -18z m49 -32 c-2 -39 -6 -55 -16 -55
-14 0 -19 64 -7 94 13 34 24 14 23 -39z m-439 14 c0 -18 -2 -19 -15 -9 -12 10
-15 9 -15 -6 0 -12 -3 -15 -10 -8 -15 15 -1 44 21 44 13 0 19 -7 19 -21z
m-242 -220 c13 -21 8 -59 -9 -59 -5 0 -9 7 -9 16 0 8 -4 12 -10 9 -11 -7 -13
15 -4 39 8 21 17 20 32 -5z"/>
<path d="M195 1493 c5 -15 8 -38 8 -50 -1 -24 11 -30 22 -13 4 6 2 17 -4 24
-9 10 -8 15 2 19 22 8 108 0 119 -11 8 -8 15 -4 25 15 7 14 13 28 13 32 0 4
-43 8 -96 10 l-97 2 8 -28z m159 -4 c8 -9 7 -10 -7 -5 -10 3 -49 6 -85 7 -49
0 -62 3 -47 9 27 13 124 5 139 -11z"/>
<path d="M1079 1493 c-2 -5 -30 -31 -62 -56 -97 -79 -107 -90 -97 -107 8 -13
10 -12 10 3 0 9 4 17 9 17 4 0 19 10 32 23 13 13 44 41 68 63 l44 39 -7 -40
c-3 -22 -2 -47 4 -55 7 -11 10 -7 10 18 0 24 4 31 13 26 8 -5 7 -2 -2 10 -11
13 -11 20 -3 28 7 7 12 19 11 28 0 11 -2 12 -6 1 -4 -10 -7 -10 -13 -1 -4 7
-9 8 -11 3z"/>
<path d="M1470 1436 c0 -13 -5 -17 -20 -13 -13 3 -20 0 -20 -9 0 -19 49 -18
57 2 3 8 1 20 -6 27 -8 8 -11 6 -11 -7z"/>
<path d="M2710 1420 c-2 -19 -2 -42 -2 -50 1 -8 -1 -25 -3 -38 -5 -19 -9 -21
-25 -12 -25 13 -30 13 -30 -4 0 -9 15 -17 39 -21 30 -5 41 -12 44 -28 2 -12 2
-6 0 13 -3 19 -8 67 -12 105 -6 49 -9 59 -11 35z"/>
<path d="M2943 1433 c-7 -3 -13 -11 -13 -18 0 -9 -8 -11 -22 -7 -13 3 -19 1
-15 -5 9 -14 39 -21 58 -14 19 7 10 50 -8 44z"/>
<path d="M202 1293 c1 -65 3 -101 5 -80 2 20 8 37 14 37 5 0 9 36 9 80 0 64
-3 80 -15 80 -13 0 -15 -19 -13 -117z"/>
<path d="M300 1332 c0 -71 2 -78 20 -78 18 0 20 7 20 78 0 71 -2 78 -20 78
-18 0 -20 -7 -20 -78z"/>
<path d="M1352 1397 c-14 -16 -6 -27 20 -27 13 0 18 6 16 17 -4 22 -22 27 -36
10z"/>
<path d="M1392 1365 c-24 -27 -42 -32 -42 -12 0 6 -8 -3 -17 -21 -10 -20 -21
-31 -29 -28 -8 3 -14 -1 -14 -9 0 -8 9 -13 20 -12 11 1 20 5 20 10 0 4 15 14
33 22 41 17 68 47 58 63 -5 9 -13 5 -29 -13z"/>
<path d="M1571 1337 l-1 -59 38 23 c90 55 112 70 112 75 0 4 -12 -2 -27 -12
-16 -10 -47 -29 -70 -42 -43 -23 -43 -24 -43 -3 0 15 7 21 23 22 14 1 16 3 6
6 -9 2 -21 14 -27 26 -9 18 -11 12 -11 -36z"/>
<path d="M2577 1384 c-11 -11 -8 -62 3 -69 6 -4 7 -11 4 -17 -4 -7 -2 -8 4 -4
8 5 12 0 12 -13 0 -11 -5 -23 -12 -27 -8 -5 -7 -10 5 -18 8 -7 18 -23 20 -36
3 -14 3 2 0 35 -3 33 -7 77 -9 99 -2 39 -15 62 -27 50z"/>
<path d="M1457 1374 c-3 -4 1 -13 9 -21 9 -9 12 -23 9 -32 -4 -9 -8 -20 -9
-26 -1 -5 -5 -16 -9 -22 -6 -9 -3 -11 7 -7 9 3 16 1 16 -5 0 -6 -5 -11 -12
-11 -6 0 -8 -3 -5 -7 8 -7 -11 -33 -25 -33 -5 0 -6 5 -3 10 3 6 -1 10 -9 10
-21 0 -21 -16 0 -24 8 -3 26 1 40 10 22 15 24 23 24 90 0 55 -3 74 -13 74 -8
0 -16 -3 -20 -6z"/>
<path d="M2527 1364 c-12 -12 -8 -50 8 -80 l15 -29 1 35 c2 59 -8 90 -24 74z"/>
<path d="M1290 1350 c0 -5 -6 -10 -14 -10 -7 0 -19 -7 -26 -15 -16 -19 -1 -19
26 0 12 8 24 11 28 8 3 -3 6 1 6 10 0 10 -4 17 -10 17 -5 0 -10 -4 -10 -10z"/>
<path d="M1973 1348 c-25 -32 -23 -128 2 -128 14 0 26 -33 16 -47 -7 -12 -46
-33 -60 -33 -6 0 -9 34 -8 90 1 57 -2 89 -8 87 -6 -3 -10 -56 -10 -133 0 -71
-3 -134 -8 -141 -4 -6 -2 -15 4 -19 15 -9 29 15 29 52 0 26 6 34 40 49 22 10
42 25 44 34 3 9 2 56 -2 105 -7 87 -18 111 -39 84z m16 -65 c0 -42 -1 -45 -10
-23 -9 23 -5 70 6 70 3 0 5 -21 4 -47z"/>
<path d="M2928 1355 c-5 -5 -37 -10 -97 -14 -21 -1 -4 -14 21 -16 12 -1 37 1
55 5 18 5 33 4 33 -1 0 -4 7 -6 15 -3 21 9 19 34 -3 34 -10 0 -21 -2 -24 -5z"/>
<path d="M2751 1330 c-19 -11 4 -23 29 -15 16 5 20 2 20 -19 0 -14 5 -28 11
-32 7 -4 9 0 6 12 -3 11 -8 28 -11 39 -6 22 -33 29 -55 15z"/>
<path d="M1825 1285 c-22 -19 -34 -35 -27 -35 12 0 72 55 72 65 0 8 -3 6 -45
-30z"/>
<path d="M2920 1300 c-27 -9 -24 -11 17 -13 15 -1 28 4 31 11 4 13 -11 14 -48
2z"/>
<path d="M1247 1268 c2 -5 -1 -8 -8 -8 -9 0 -10 -3 -3 -10 7 -7 24 -7 50 -1
21 5 31 9 22 10 -10 1 -18 4 -18 9 0 4 -11 7 -24 7 -13 0 -22 -3 -19 -7z"/>
<path d="M1706 1253 c27 -54 20 -69 -56 -109 -38 -20 -70 -41 -70 -45 0 -5 34
8 75 28 64 33 75 42 75 64 0 32 -19 89 -30 89 -5 0 -2 -12 6 -27z"/>
<path d="M2946 1252 c-3 -5 -19 -9 -35 -10 -16 0 -41 -8 -54 -17 -20 -13 -26
-13 -30 -3 -4 10 -7 11 -18 1 -11 -11 -11 -13 2 -13 12 -1 12 -2 -1 -9 -35
-20 -60 -23 -60 -7 0 21 -27 20 -75 -4 -22 -11 -32 -18 -23 -16 9 3 33 8 52
12 50 9 47 -12 -4 -27 -22 -7 -46 -19 -53 -27 -10 -13 -8 -14 18 -8 17 4 62
22 100 41 39 19 100 44 138 56 37 12 67 26 67 30 0 11 -17 12 -24 1z"/>
<path d="M1200 1239 c0 -16 -42 -48 -62 -49 -16 0 -23 11 -19 33 2 9 -10 4
-51 -25 -14 -10 -36 -18 -48 -18 -11 0 -19 -4 -15 -9 3 -6 -5 -15 -17 -22 -24
-13 -47 -38 -48 -52 0 -5 13 1 29 12 15 11 32 17 36 13 5 -4 5 -2 2 4 -4 7 0
17 8 24 11 9 15 9 15 1 0 -7 10 -9 27 -4 l28 6 -30 -31 c-19 -21 -33 -28 -39
-22 -15 15 -26 12 -26 -5 0 -8 -6 -15 -13 -15 -8 0 -26 -14 -41 -30 -15 -17
-31 -28 -36 -25 -6 4 -10 1 -10 -4 0 -6 -7 -11 -15 -11 -8 0 -15 -7 -15 -15 0
-8 -4 -15 -8 -15 -5 0 -17 -8 -28 -18 -19 -18 -54 -36 -65 -34 -3 0 -11 -9
-18 -20 -12 -20 -11 -20 71 -15 46 3 74 4 63 1 -43 -12 -34 -21 16 -16 36 3
50 1 45 -6 -4 -7 3 -8 23 -2 16 4 32 5 36 2 3 -4 3 2 -1 11 -5 13 -10 15 -17
8 -17 -17 -37 -13 -30 6 4 10 2 14 -5 10 -6 -4 -32 1 -58 11 l-47 19 24 16
c13 10 19 17 14 17 -15 0 29 29 45 30 8 0 20 10 25 23 8 18 17 22 50 20 28 -1
35 1 25 7 -8 5 -24 10 -35 10 -17 0 -17 2 -5 10 8 5 47 10 85 11 39 0 81 5 95
10 17 6 9 7 -26 3 -60 -6 -82 11 -32 24 21 5 32 14 30 23 -1 9 12 21 33 29 19
7 32 17 30 20 -3 4 4 15 15 25 11 10 17 22 14 26 -7 13 -24 11 -24 -2z"/>
<path d="M296 1174 c-4 -31 -4 -59 -1 -63 10 -9 26 22 21 41 -2 10 0 21 5 24
14 9 11 54 -5 54 -9 0 -15 -19 -20 -56z"/>
<path d="M2227 1224 c-10 -11 -8 -64 2 -64 14 0 23 37 14 55 -5 9 -12 12 -16
9z"/>
<path d="M2929 1188 c-19 -24 -39 -49 -46 -56 -15 -16 -17 -42 -3 -42 6 0 10
4 10 9 0 4 13 24 30 42 16 19 32 41 35 50 4 11 13 15 27 11 15 -3 19 -1 16 9
-9 28 -36 19 -69 -23z"/>
<path d="M1440 1183 c-35 -26 -29 -26 22 -1 16 7 28 16 28 21 0 12 -14 7 -50
-20z"/>
<path d="M840 1190 c-8 -4 -34 -16 -58 -26 -54 -22 -98 -71 -112 -126 -7 -24
-16 -52 -22 -62 -9 -17 -7 -18 14 -12 12 3 56 11 97 16 103 14 103 24 1 17
-47 -3 -79 -3 -72 0 6 2 10 9 7 14 -3 5 -1 18 5 29 7 13 7 20 0 20 -11 0 55
68 85 88 11 7 32 17 48 23 15 6 27 15 27 20 0 10 0 10 -20 -1z"/>
<path d="M2137 1184 c-10 -11 -9 -52 3 -59 6 -3 13 1 16 10 8 19 -8 60 -19 49z"/>
<path d="M2095 1149 c-5 -14 -1 -27 9 -37 15 -15 16 -14 16 15 0 38 -16 52
-25 22z"/>
<path d="M2968 1135 c-3 -14 -1 -25 3 -25 5 0 9 -7 9 -15 0 -8 4 -15 9 -15 6
0 5 15 -1 38 -13 47 -14 48 -20 17z"/>
<path d="M2395 1120 c-3 -5 -2 -17 3 -26 8 -14 10 -14 21 0 13 15 8 36 -9 36
-5 0 -12 -4 -15 -10z"/>
<path d="M1502 1045 c1 -94 14 -278 18 -240 1 17 2 33 1 37 0 4 -1 58 -2 120
-1 62 -5 122 -9 133 -6 13 -8 -5 -8 -50z"/>
<path d="M183 1094 c-22 -10 -14 -26 8 -19 39 13 104 12 139 -1 33 -13 31 -13
-32 -8 -72 7 -118 0 -118 -17 0 -6 9 -7 23 -3 30 10 113 7 136 -5 16 -9 20 -6
25 15 4 15 5 29 2 31 -7 8 -169 14 -183 7z"/>
<path d="M1199 1074 c-10 -10 -40 -16 -83 -18 -37 -2 -70 -7 -74 -11 -4 -3 17
-5 45 -4 29 2 56 0 59 -4 4 -4 10 -7 13 -7 10 0 64 50 60 55 -3 2 -12 -2 -20
-11z"/>
<path d="M1658 1054 c-38 -19 -68 -37 -68 -39 0 -3 27 9 61 26 34 16 64 28 67
25 7 -7 10 -5 -70 -46 -37 -19 -65 -36 -64 -38 2 -2 36 13 75 32 52 27 71 42
71 56 0 11 -1 20 -2 20 -2 -1 -33 -17 -70 -36z"/>
<path d="M2280 1074 c-7 -8 -19 -13 -26 -10 -7 3 -16 1 -20 -5 -3 -6 -12 -8
-20 -5 -8 3 -14 -1 -14 -10 0 -12 5 -14 18 -8 9 4 34 9 55 12 22 2 37 9 37 17
0 21 -16 26 -30 9z"/>
<path d="M2093 1063 c-15 -5 -17 -61 -4 -82 8 -12 12 -12 25 -2 19 16 19 27 3
62 -7 15 -18 24 -24 22z"/>
<path d="M1445 1038 c-12 -39 -14 -41 -15 -18 -1 18 -34 -137 -40 -188 0 -2 4
-1 9 3 5 3 12 31 16 63 3 31 10 66 15 77 7 15 8 13 3 -10 -4 -24 -3 -28 7 -18
8 7 14 33 14 58 1 46 -1 55 -9 33z"/>
<path d="M2575 1034 c-39 -20 -53 -34 -34 -34 7 1 28 12 44 25 35 29 32 31
-10 9z"/>
<path d="M1105 1015 c-34 -28 -28 -32 16 -10 16 9 27 20 24 25 -8 12 -5 14
-40 -15z"/>
<path d="M2036 1028 c-3 -7 -7 -22 -9 -33 -4 -17 -5 -17 -6 3 -1 17 -6 22 -18
20 -14 -3 -17 -12 -16 -42 3 -48 8 -53 29 -35 10 8 25 13 34 11 22 -4 31 18
21 54 -8 30 -28 43 -35 22z"/>
<path d="M1153 999 c-18 -12 -33 -23 -33 -25 0 -10 19 -2 50 21 41 30 28 33
-17 4z"/>
<path d="M1958 1005 c-3 -5 -9 -26 -13 -45 l-8 -35 -12 35 -12 34 -6 -33 c-10
-49 -9 -58 8 -58 8 0 15 4 15 9 0 4 9 8 19 8 27 0 30 8 22 55 -4 22 -9 36 -13
30z"/>
<path d="M1191 969 c-13 -39 -14 -49 -1 -29 8 12 10 12 10 1 0 -8 -8 -20 -17
-28 -16 -13 -16 -13 5 -3 17 8 22 19 22 50 0 48 -5 50 -19 9z"/>
<path d="M187 963 c-4 -3 -7 -32 -7 -64 l0 -57 -55 -7 c-55 -6 -67 -19 -44
-42 8 -8 9 -46 4 -127 l-7 -116 -39 0 c-28 0 -39 -4 -39 -15 0 -9 9 -15 24
-15 16 0 23 -5 22 -17 0 -10 7 -18 19 -20 11 -1 15 0 9 3 -15 6 12 64 29 64 8
0 9 3 2 8 -6 4 -12 17 -12 30 -1 16 4 22 20 22 18 0 20 -2 7 -11 -12 -9 -11
-9 5 -4 54 20 77 25 169 42 68 12 101 23 104 33 5 13 3 13 -11 1 -11 -8 -27
-11 -44 -7 -17 4 -23 3 -15 -2 16 -11 -140 -36 -171 -27 -17 5 -19 4 -7 -4 12
-8 8 -11 -17 -11 -26 0 -33 4 -33 19 0 11 8 22 18 25 51 14 136 27 153 23 10
-3 19 -1 19 3 0 5 24 13 53 18 28 5 41 10 27 11 -14 0 -58 -6 -98 -14 -40 -9
-94 -17 -120 -19 l-47 -4 -2 54 c-1 30 1 54 5 55 4 0 14 2 22 4 232 49 268 54
355 49 49 -3 92 -7 96 -9 8 -6 8 -115 -1 -115 -4 0 -4 -14 -2 -32 4 -26 2 -30
-12 -25 -9 4 -16 2 -16 -4 0 -5 -11 -14 -25 -19 -15 -6 -25 -17 -25 -29 0 -11
-5 -23 -10 -26 -7 -4 -9 14 -8 51 2 38 -1 58 -9 61 -10 4 -13 -14 -13 -66 0
-41 4 -71 10 -71 6 0 10 -7 10 -15 0 -8 -6 -14 -12 -13 -18 4 -24 -92 -6 -103
10 -7 10 -9 1 -9 -9 0 -13 -21 -13 -71 0 -44 4 -68 10 -64 6 3 10 1 10 -4 0
-6 -4 -11 -9 -11 -5 0 -11 -43 -13 -95 -2 -71 0 -95 10 -95 17 0 15 -19 -3
-26 -18 -7 -16 -54 2 -54 8 0 13 12 13 30 0 16 6 33 13 37 10 6 11 23 7 68
l-7 60 -2 -54 c0 -30 -3 -52 -6 -49 -10 10 -7 150 3 160 6 6 6 25 1 46 -4 20
-4 80 0 132 6 68 9 82 11 50 3 -34 5 -26 9 35 5 65 9 80 24 83 14 3 17 -4 17
-46 0 -31 5 -52 13 -55 6 -3 -1 -6 -16 -6 -27 -1 -28 -2 -26 -54 1 -28 7 -55
13 -59 6 -4 7 -10 3 -14 -3 -4 -13 -1 -22 6 -13 11 -15 6 -14 -36 1 -27 3 -41
6 -31 2 9 13 17 24 17 22 0 26 -29 8 -63 -7 -11 -13 -40 -15 -64 -2 -35 1 -43
14 -43 15 0 15 2 2 10 -11 7 -7 10 17 10 31 0 32 -1 21 -25 -8 -19 -8 -29 0
-37 16 -16 42 -2 41 24 0 13 -3 17 -6 10 -2 -6 -9 -9 -14 -6 -6 3 -2 12 8 20
12 9 13 13 5 14 -7 0 -11 4 -8 9 3 5 -1 12 -10 15 -8 3 -12 10 -9 16 3 5 0 10
-7 10 -9 0 -14 18 -15 59 l-2 60 27 -5 c14 -3 28 -7 30 -9 9 -8 -11 -45 -24
-45 -8 0 -14 -9 -14 -20 0 -11 7 -20 15 -20 9 0 12 6 9 15 -4 8 -1 15 5 15 6
0 10 -3 10 -7 -4 -26 2 -83 9 -83 5 0 7 29 5 64 -4 60 -3 64 20 70 13 3 29 17
36 32 14 31 9 39 -16 30 -10 -4 -19 -7 -21 -6 -2 1 -14 -6 -28 -14 -15 -11
-24 -12 -24 -5 0 7 -9 9 -24 5 -19 -5 -24 -2 -21 12 2 9 4 37 4 62 1 42 4 47
33 58 21 8 36 8 42 2 7 -7 6 -10 -2 -10 -8 0 -12 -17 -12 -48 0 -26 -5 -53
-12 -60 -9 -9 -9 -12 -1 -12 19 0 27 22 24 70 -2 25 0 42 4 39 3 -4 7 -21 7
-38 1 -17 3 -29 6 -26 3 3 12 -1 20 -8 13 -10 14 -8 10 16 -3 15 -2 29 1 31 4
3 6 20 5 40 -1 26 2 36 13 36 8 0 11 5 8 11 -5 7 -15 3 -30 -11 -32 -30 -46
-17 -43 35 2 24 6 41 11 38 4 -2 7 3 7 11 0 9 5 16 10 16 6 0 10 -6 9 -12 -5
-41 2 -67 16 -62 8 4 12 10 9 15 -3 5 1 9 8 10 7 0 2 5 -12 11 -14 6 -20 12
-14 14 6 3 8 18 6 34 -3 23 -9 30 -27 30 -18 0 -24 -7 -29 -37 -3 -21 -6 -54
-6 -75 0 -29 -3 -36 -17 -33 -10 2 -24 4 -30 4 -16 1 -18 131 -3 131 6 0 10
-4 10 -10 0 -5 7 -10 15 -10 12 0 15 15 15 75 0 85 -15 74 131 100 47 8 100
15 119 15 l33 0 -7 -46 c-3 -26 -6 -55 -6 -65 0 -11 -7 -19 -15 -19 -13 0 -15
-21 -15 -127 0 -69 2 -124 5 -121 3 3 6 47 6 99 0 52 4 98 9 104 28 36 38 190
13 193 -7 1 -20 3 -28 4 -8 1 -15 6 -15 12 0 6 -5 4 -10 -4 -8 -13 -10 -13
-10 2 0 13 -6 15 -27 9 -16 -4 -26 -11 -25 -16 6 -13 -18 -22 -75 -30 l-53 -7
6 30 6 29 -114 14 c-124 15 -119 15 -165 5 l-33 -8 0 46 c0 39 -3 46 -20 46
-13 0 -20 -7 -20 -20 0 -14 5 -18 18 -14 16 5 16 5 0 -6 -10 -6 -18 -22 -18
-35 0 -19 -7 -26 -27 -31 -47 -10 -54 -14 -49 -23 3 -5 -1 -11 -9 -15 -17 -6
-20 5 -6 20 14 14 18 124 5 124 -6 0 -14 -3 -17 -7z"/>
<path d="M1862 961 c-15 -9 -6 -91 10 -91 15 0 19 24 11 63 -6 26 -12 34 -21
28z"/>
<path d="M687 943 c-11 -10 -8 -53 3 -53 6 0 10 14 10 30 0 31 -2 35 -13 23z"/>
<path d="M1820 939 c-11 -7 -11 -12 -3 -15 7 -3 10 -20 7 -42 l-4 -37 11 34
c14 45 9 74 -11 60z"/>
<path d="M2361 924 c-28 -36 -27 -70 4 -90 23 -15 27 -15 50 0 37 24 51 60 37
92 -7 14 -17 22 -22 19 -13 -8 -13 -35 0 -35 19 0 10 -30 -15 -46 -48 -31 -69
-1 -40 56 19 37 13 38 -14 4z"/>
<path d="M1362 885 c-1 -37 2 -54 7 -45 5 8 5 35 1 60 l-7 45 -1 -60z"/>
<path d="M1245 871 c-7 -62 1 -109 15 -95 5 5 11 34 14 64 5 54 5 55 -4 11
-16 -73 -20 -71 -14 7 6 87 -1 96 -11 13z"/>
<path d="M1777 923 c-9 -8 -9 -46 -1 -67 15 -39 40 3 28 48 -6 26 -15 32 -27
19z"/>
<path d="M1731 893 c-8 -14 -10 -14 -11 -3 0 12 -3 12 -16 -2 -12 -11 -14 -25
-9 -47 8 -36 27 -37 35 -2 3 12 10 22 15 21 6 0 11 11 13 25 4 29 -12 33 -27
8z"/>
<path d="M1176 881 c-3 -5 -8 -42 -12 -82 -5 -68 -4 -73 10 -55 19 23 21 40 4
30 -8 -5 -9 2 -5 26 4 18 7 40 7 49 1 13 3 13 15 -3 12 -16 15 -17 15 -4 0 37
-21 61 -34 39z"/>
<path d="M1314 828 c1 -74 11 -70 20 7 3 35 3 41 -3 20 l-8 -30 -5 35 c-2 19
-4 5 -4 -32z"/>
<path d="M2206 881 c-4 -6 -2 -19 5 -28 11 -13 10 -17 -5 -29 -25 -18 -38 -9
-30 22 4 14 2 24 -4 24 -6 0 -12 -15 -14 -32 -2 -23 -9 -34 -22 -36 -16 -3
-18 0 -12 24 7 28 7 28 -13 10 -12 -11 -21 -26 -20 -35 0 -12 3 -11 9 4 8 19
9 19 9 -3 1 -29 30 -41 46 -19 8 12 15 13 22 6 14 -14 53 23 52 49 -1 31 -15
57 -23 43z"/>
<path d="M2270 874 c0 -11 -7 -29 -15 -40 -8 -10 -15 -25 -15 -33 0 -11 3 -11
16 0 24 20 36 58 24 77 -8 15 -9 15 -10 -4z"/>
<path d="M1613 830 c0 -16 5 -30 10 -30 5 0 4 -8 -4 -17 -12 -17 -12 -17 5 -2
14 13 16 25 11 48 -8 40 -22 40 -22 1z"/>
<path d="M2943 838 l-51 -9 2 -119 c1 -66 6 -123 10 -127 4 -4 5 13 1 40 -5
29 -3 52 4 60 6 7 9 36 8 65 -2 57 13 83 36 63 12 -9 27 -123 28 -213 0 -10 5
-18 10 -18 7 0 8 23 3 68 -9 74 -9 86 0 155 3 26 5 46 4 46 -2 -1 -26 -6 -55
-11z"/>
<path d="M2859 825 c-3 -2 -49 -11 -104 -20 -55 -8 -129 -25 -165 -37 -36 -11
-89 -26 -119 -32 -53 -11 -53 -12 -28 -23 23 -11 27 -10 27 2 0 11 11 15 40
15 30 0 40 -4 40 -16 0 -8 4 -13 9 -10 10 7 21 -27 21 -66 0 -30 19 -49 21
-21 1 10 3 35 4 55 3 31 1 36 -13 32 -10 -4 -13 -3 -6 3 6 4 13 15 17 25 5 14
48 27 112 34 11 1 27 4 35 7 68 24 110 9 110 -41 0 -17 5 -34 10 -37 6 -4 10
18 10 59 0 57 -8 84 -21 71z"/>
<path d="M2010 791 c-7 -14 -6 -21 3 -24 8 -3 0 -17 -22 -41 -39 -40 -25 -51
14 -11 17 16 25 35 25 60 0 40 -5 44 -20 16z"/>
<path d="M1448 788 c-7 -7 -22 -15 -33 -16 -26 -5 -25 -4 -19 -29 7 -26 44
-19 44 8 0 21 16 26 23 7 3 -7 6 -1 6 15 1 30 -2 32 -21 15z"/>
<path d="M408 783 c-3 -4 -2 -35 1 -68 4 -38 8 -52 12 -39 6 20 1 105 -6 112
-2 2 -5 0 -7 -5z"/>
<path d="M935 750 c-5 -16 -4 -25 4 -28 6 -2 11 -11 11 -19 0 -9 2 -14 5 -11
3 3 2 23 -3 44 -8 37 -9 37 -17 14z"/>
<path d="M1937 729 c-10 -18 -16 -33 -14 -35 8 -8 39 35 35 50 -2 11 -8 6 -21
-15z"/>
<path d="M1366 739 c4 -8 0 -9 -15 -4 -18 5 -21 2 -20 -22 0 -15 3 -22 6 -15
2 6 8 10 13 7 9 -6 40 21 40 36 0 5 -7 9 -16 9 -8 0 -12 -5 -8 -11z"/>
<path d="M1876 729 c-8 -13 -21 -19 -30 -16 -8 3 -20 -1 -27 -9 -7 -9 -21 -13
-30 -11 -12 3 -20 -2 -24 -13 -3 -9 -14 -25 -25 -35 -11 -10 -20 -22 -20 -27
0 -16 39 12 45 32 4 11 12 20 18 19 7 -1 19 1 27 4 8 4 25 8 37 10 23 3 73 44
73 59 0 16 -29 7 -44 -13z"/>
<path d="M1396 678 c-22 -9 -86 -33 -141 -53 -72 -27 -364 -148 -381 -159 -1
-1 -5 -11 -8 -23 -6 -17 -3 -23 8 -23 9 0 16 7 16 15 0 22 48 51 63 36 6 -6
18 -11 26 -11 12 1 11 3 -4 12 -18 11 -17 12 15 24 19 7 43 13 53 13 10 1 33
12 51 26 18 13 48 25 69 27 21 1 43 8 49 15 13 17 35 17 41 1 2 -7 3 -5 2 4
-2 9 4 19 12 22 22 9 23 8 23 -13 0 -11 5 -23 10 -26 7 -4 9 2 5 18 -6 22 -2
26 27 36 18 5 44 12 58 15 14 3 40 9 58 15 35 11 37 11 52 11 6 0 10 9 10 19
0 16 -6 19 -36 18 -20 -1 -55 -10 -78 -19z"/>
<path d="M1690 695 c-1 -5 -2 -18 -1 -27 2 -12 -5 -18 -18 -18 -11 0 -23 -6
-27 -12 -6 -9 -10 -5 -14 12 -3 14 -9 20 -12 15 -3 -6 -2 -21 3 -34 7 -18 13
-21 21 -13 6 6 16 8 23 6 19 -8 37 22 32 53 -2 15 -5 24 -7 18z"/>
<path d="M1175 668 c-4 -16 -12 -28 -19 -29 -6 0 -18 -2 -27 -4 -19 -3 -210
-117 -205 -122 2 -2 30 9 62 25 180 89 214 107 213 112 0 3 -4 14 -9 25 -7 18
-8 18 -15 -7z"/>
<path d="M751 671 c-11 -7 -13 -43 -12 -171 1 -141 -1 -161 -14 -156 -8 3 -15
1 -15 -4 0 -6 -5 -10 -11 -10 -11 0 -39 -24 -39 -34 0 -13 31 -5 77 20 26 14
40 23 31 20 -22 -7 -22 3 -1 29 13 16 15 17 10 3 -4 -10 -2 -18 3 -18 5 0 11
-8 13 -17 4 -17 5 -17 6 0 0 9 8 17 16 17 8 0 15 9 15 20 0 11 -7 20 -15 20
-10 0 -15 10 -15 32 0 30 0 31 20 13 11 -10 20 -30 20 -45 0 -16 7 -30 16 -34
11 -4 15 -2 11 7 -3 8 1 14 9 14 18 0 18 -17 -1 -44 -15 -21 -5 -41 14 -29 16
10 32 -22 29 -60 -3 -40 -27 -54 -49 -28 -9 11 -7 14 10 14 13 0 21 6 21 16 0
15 -2 15 -22 1 -13 -8 -22 -21 -20 -27 1 -6 -7 -14 -18 -17 -11 -3 -20 -9 -20
-14 0 -16 -28 -10 -34 7 -6 15 -4 15 10 3 15 -12 17 -12 12 1 -5 16 -28 21
-27 7 1 -13 -34 -35 -47 -30 -15 6 -28 -14 -14 -22 5 -3 10 0 10 7 1 7 10 -6
21 -29 18 -39 31 -55 28 -36 -1 5 -1 15 0 23 1 13 2 13 12 0 9 -13 10 -13 7 0
-3 8 -14 19 -26 25 -12 5 -22 13 -22 16 0 14 33 19 47 7 12 -10 17 -9 24 5 6
9 17 17 24 17 8 0 15 5 15 11 0 8 4 9 13 0 8 -6 17 -8 21 -3 4 4 6 -7 4 -23
-2 -24 1 -30 17 -30 14 0 19 6 17 19 -2 11 1 15 7 11 6 -3 11 -2 11 3 0 6 -7
13 -15 16 -13 5 -14 9 -3 28 7 13 11 26 10 30 -1 4 5 5 13 2 8 -4 15 -3 15 0
0 11 -35 46 -46 46 -11 0 -28 36 -25 54 3 16 -10 46 -18 41 -8 -4 -51 39 -51
51 0 4 -8 13 -17 21 -10 8 -12 11 -5 8 10 -5 9 2 -3 25 -10 19 -13 35 -7 39 5
3 8 14 6 24 -1 9 4 17 12 17 8 0 14 5 14 10 0 6 -3 10 -6 10 -11 0 -53 -37
-48 -42 3 -3 -2 -8 -10 -11 -12 -5 -15 0 -14 17 2 16 7 22 18 19 10 -3 10 -1
-2 7 -10 6 -18 18 -18 26 0 20 30 30 41 13 6 -10 9 -4 9 19 0 33 -18 42 -49
23z m17 -222 c-4 -50 -18 -31 -17 24 0 43 2 48 10 28 5 -13 8 -36 7 -52z"/>
<path d="M876 642 c-3 -2 -2 -10 0 -17 3 -7 1 -16 -5 -20 -13 -7 -15 -35 -3
-35 4 0 14 15 22 33 7 17 15 35 17 38 4 7 -25 8 -31 1z"/>
<path d="M2348 643 c17 -2 47 -2 65 0 17 2 3 4 -33 4 -36 0 -50 -2 -32 -4z"/>
<path d="M395 600 c12 -19 8 -82 -6 -91 -11 -7 -11 -9 -1 -9 14 0 39 58 33 75
-2 6 -4 16 -4 23 0 6 -7 12 -14 12 -8 0 -12 -4 -8 -10z"/>
<path d="M2887 561 c4 -27 1 -32 -10 -28 -8 3 -18 3 -21 -1 -8 -7 -27 -11 -81
-16 -73 -7 -125 -18 -125 -27 0 -21 -22 -6 -34 23 l-14 32 -4 -62 c-2 -37 1
-62 7 -62 6 0 3 -5 -5 -10 -8 -5 -10 -10 -4 -10 7 0 11 -19 10 -47 -1 -43 2
-48 22 -51 12 -2 22 -9 22 -15 0 -7 -22 -73 -48 -147 -38 -105 -45 -136 -35
-138 8 -2 17 -2 19 1 10 10 84 231 81 241 -5 15 31 46 54 46 11 0 18 4 15 9
-3 5 -21 5 -40 1 -40 -9 -39 -9 -51 106 l-7 61 109 22 c59 12 120 26 136 31
l27 9 0 -95 c0 -68 3 -94 13 -94 13 0 16 127 3 148 -12 20 13 54 37 50 21 -3
22 -9 25 -103 l3 -100 -64 -165 c-50 -129 -60 -166 -49 -168 19 -5 24 3 74
128 41 103 42 108 46 243 3 93 0 148 -8 167 -11 28 -15 29 -55 23 -37 -5 -44
-3 -48 13 -2 11 -2 4 0 -15z"/>
<path d="M1345 559 c-8 -37 -6 -39 23 -28 27 10 30 29 3 22 -16 -4 -19 -1 -14
16 3 12 3 21 0 21 -3 0 -8 -14 -12 -31z"/>
<path d="M1406 554 c-9 -24 -7 -54 4 -54 5 0 9 16 8 35 -1 39 -3 42 -12 19z"/>
<path d="M2325 559 c23 -9 91 -12 82 -3 -3 3 -27 7 -54 9 -32 2 -41 0 -28 -6z"/>
<path d="M2108 543 c18 -2 45 -2 60 0 15 2 0 4 -33 4 -33 0 -45 -2 -27 -4z"/>
<path d="M1175 516 c3 -11 0 -23 -7 -28 -19 -12 -26 -10 -32 10 -3 10 -4 6 -3
-8 1 -18 9 -26 25 -28 12 -2 22 1 22 7 0 6 5 10 12 9 6 -2 13 5 14 15 2 16 2
16 -3 0 -4 -14 -8 -11 -19 12 -8 17 -12 21 -9 11z"/>
<path d="M90 508 c0 -9 6 -19 13 -22 8 -3 7 -9 -7 -20 -20 -16 -12 -41 10 -32
9 4 14 -2 14 -15 0 -16 4 -19 16 -15 14 5 15 4 4 -9 -10 -12 -10 -15 4 -15 9
0 16 8 16 20 0 11 -4 20 -10 20 -5 0 -10 7 -10 15 0 8 4 15 9 15 5 0 11 7 14
15 5 11 1 12 -19 5 -33 -13 -34 -13 -28 5 4 8 9 13 13 10 4 -2 8 3 8 11 0 10
-4 11 -10 5 -7 -7 -15 -5 -23 7 -12 16 -13 16 -14 0z"/>
<path d="M396 474 c-3 -9 -4 -20 0 -25 3 -5 1 -9 -3 -9 -5 0 -9 -9 -9 -20 0
-11 4 -20 9 -20 5 0 4 -7 -3 -15 -7 -8 -8 -15 -3 -15 13 0 3 -53 -11 -62 -6
-4 3 -7 19 -7 17 0 24 3 17 6 -6 2 -9 10 -5 16 9 15 11 157 2 163 -4 2 -10 -3
-13 -12z"/>
<path d="M1090 485 c-1 -5 -2 -14 -1 -19 1 -5 -1 -16 -5 -25 -5 -13 -8 -11
-14 9 l-8 25 -2 -25 -2 -25 -6 23 c-9 30 -26 33 -30 5 -2 -13 -8 -23 -13 -23
-6 0 -7 -5 -4 -10 4 -6 11 -8 16 -5 19 12 49 13 49 2 0 -7 6 -5 16 5 10 9 14
26 11 44 -2 16 -5 25 -7 19z"/>
<path d="M1 469 c-2 -24 29 -80 40 -73 6 3 5 12 -3 21 -7 9 -12 26 -10 37 2
16 1 18 -7 7 -7 -11 -10 -10 -14 5 -3 14 -5 15 -6 3z"/>
<path d="M2480 450 c0 -11 7 -20 15 -20 8 0 15 9 15 20 0 11 -7 20 -15 20 -8
0 -15 -9 -15 -20z"/>
<path d="M2765 460 c-4 -6 14 -10 46 -10 61 0 61 5 2 14 -24 3 -44 2 -48 -4z"/>
<path d="M2422 443 c-9 -13 -14 -15 -18 -5 -3 6 -13 12 -22 12 -13 0 -14 -2
-3 -9 10 -6 10 -13 2 -28 -10 -20 -6 -33 11 -33 5 0 6 5 3 10 -3 6 -1 10 6 10
6 0 9 -8 6 -20 -3 -11 -1 -23 4 -26 5 -3 9 11 9 31 0 22 4 34 10 30 6 -4 10 5
10 19 0 31 -1 31 -18 9z"/>
<path d="M945 433 c5 -16 2 -23 -8 -23 -8 0 -18 -12 -21 -26 -8 -32 -1 -44 9
-15 3 12 11 22 16 22 5 1 13 2 18 3 19 2 19 12 0 36 -20 24 -20 24 -14 3z"/>
<path d="M2316 443 c-3 -3 -6 -19 -6 -34 0 -21 4 -27 15 -23 8 4 15 17 15 29
0 25 -12 39 -24 28z"/>
<path d="M40 429 c0 -5 6 -7 13 -3 6 4 9 4 5 -1 -4 -4 -3 -13 2 -20 7 -8 2
-16 -18 -24 l-27 -13 30 -13 c17 -6 32 -10 35 -7 3 3 -1 7 -7 9 -7 3 -13 9
-13 15 0 6 7 8 15 4 13 -4 13 -2 5 14 -5 10 -7 26 -4 34 4 12 0 16 -15 16 -12
0 -21 -5 -21 -11z"/>
<path d="M2769 435 c-4 -5 -3 -32 0 -60 6 -49 7 -49 14 -17 4 22 11 31 19 27
7 -4 6 0 -3 7 -9 7 -18 22 -21 33 -2 11 -6 16 -9 10z"/>
<path d="M2853 433 c-20 -4 -23 -11 -23 -49 0 -39 -3 -44 -22 -45 -21 -1 -21
-2 -3 -6 11 -3 23 -10 27 -17 4 -6 8 4 8 22 0 53 14 87 31 77 5 -4 9 1 9 9 0
9 -1 15 -2 15 -2 -1 -13 -4 -25 -6z"/>
<path d="M170 365 c-6 -8 -9 -23 -5 -35 7 -22 -1 -25 -25 -10 -13 9 -13 11 0
21 12 9 10 10 -8 6 -18 -4 -22 -2 -18 9 3 8 1 14 -4 14 -6 0 -10 -8 -10 -18 0
-15 -8 -19 -44 -18 -38 1 -42 -1 -32 -16 6 -10 13 -13 16 -9 3 5 22 10 43 13
29 3 36 1 32 -10 -3 -9 0 -12 9 -9 15 6 28 -24 17 -41 -9 -15 -44 -22 -60 -13
-20 13 -5 30 22 25 12 -2 16 -2 10 2 -7 3 -13 13 -13 21 0 11 -6 9 -24 -8 -18
-17 -22 -27 -14 -36 11 -14 1 -36 -12 -28 -5 3 -11 1 -14 -4 -13 -21 14 -20
54 1 35 19 42 20 50 8 7 -11 10 -8 11 15 1 17 3 23 6 14 2 -10 13 -19 25 -22
11 -3 17 -10 13 -16 -3 -6 -11 -8 -17 -5 -8 5 -9 1 -5 -10 4 -10 1 -19 -8 -22
-19 -8 -9 -24 13 -24 13 0 14 2 3 9 -22 14 4 22 35 11 l28 -11 -28 -14 c-16
-8 -32 -13 -36 -10 -5 3 -10 1 -12 -5 -2 -6 -13 -4 -26 6 -21 15 -22 17 -8 33
18 20 12 31 -17 31 -17 0 -18 -2 -6 -17 12 -14 12 -15 1 -9 -12 7 -12 4 -2
-15 11 -19 10 -24 -6 -36 -10 -7 -13 -13 -8 -13 6 0 14 4 20 10 6 6 15 6 24 0
11 -7 12 -10 2 -10 -9 0 -11 -7 -7 -21 5 -14 1 -25 -12 -35 -14 -12 -12 -12
15 1 35 17 43 35 15 35 -35 0 3 19 44 22 22 2 39 7 36 12 -6 9 16 26 35 26 8
0 12 -6 9 -12 -2 -7 -9 -12 -15 -11 -5 1 -8 -7 -5 -17 7 -25 10 -25 23 0 16
30 3 62 -21 55 -17 -6 -19 -3 -13 21 5 20 4 25 -7 22 -8 -3 -13 -11 -11 -17 2
-12 -11 -15 -21 -5 -3 4 4 15 16 25 15 13 17 17 5 13 -12 -4 -17 1 -20 18 -2
15 -11 24 -25 26 -29 4 -29 10 -1 33 11 11 18 19 13 19 -4 0 -3 6 3 13 7 8 6
16 -3 24 -10 10 -16 9 -25 -2z"/>
<path d="M2149 348 c-7 -12 -20 -29 -30 -38 -12 -11 -15 -21 -9 -35 7 -17 9
-17 9 -2 1 20 19 23 27 4 3 -8 12 -14 20 -14 9 0 13 6 9 15 -4 12 -2 12 8 4 8
-7 17 -9 20 -5 4 3 7 1 7 -4 0 -6 -6 -13 -12 -16 -7 -2 -10 -8 -6 -12 4 -4 19
2 34 14 l27 21 -24 1 c-13 1 -27 1 -31 0 -5 0 -8 4 -8 9 0 6 -9 10 -20 10 -11
0 -20 2 -20 5 0 3 9 14 20 25 11 11 20 25 20 30 0 19 -29 10 -41 -12z"/>
<path d="M2370 353 c0 -7 -3 -13 -7 -12 -21 3 -53 -15 -53 -30 0 -13 2 -13 9
-2 5 7 17 11 27 7 29 -9 49 8 35 30 -6 11 -11 13 -11 7z"/>
<path d="M2460 347 c0 -9 10 -12 30 -9 17 2 30 8 30 13 0 5 -13 9 -30 9 -18 0
-30 -5 -30 -13z"/>
<path d="M840 333 c-1 -22 -24 -55 -33 -46 -4 3 -7 1 -7 -5 0 -7 -9 -12 -21
-12 -15 0 -19 5 -15 15 3 9 0 15 -10 15 -8 0 -13 -4 -10 -9 3 -4 -5 -21 -18
-36 -17 -20 -33 -28 -55 -27 -17 0 -33 -4 -36 -9 -4 -5 1 -9 9 -9 9 0 16 -5
16 -10 0 -9 35 -50 43 -50 1 0 4 15 5 33 2 17 7 34 12 35 6 2 10 11 11 20 0
11 2 13 6 4 3 -7 0 -19 -7 -27 -9 -11 -8 -14 9 -12 13 1 19 7 17 14 -3 6 0 14
7 17 9 3 9 5 0 5 -7 1 -13 9 -12 19 0 9 3 12 5 5 4 -8 13 -9 30 -3 19 8 24 6
24 -6 0 -10 -6 -14 -15 -10 -8 3 -15 1 -15 -3 0 -15 27 -20 40 -8 10 9 11 9 6
0 -4 -7 -2 -13 3 -13 6 0 11 7 11 15 0 8 -4 15 -10 15 -15 0 -12 28 4 37 18
11 29 50 16 58 -5 3 -10 -2 -10 -12z"/>
<path d="M1306 327 c-7 -27 -7 -67 1 -49 4 10 8 10 21 0 13 -11 14 -10 4 9 -7
12 -9 28 -6 36 3 8 1 18 -4 21 -5 3 -12 -4 -16 -17z"/>
<path d="M2433 330 c-3 -11 -9 -20 -14 -20 -5 0 -9 -4 -9 -9 0 -21 36 2 38 25
2 29 -8 32 -15 4z"/>
<path d="M230 324 c0 -8 5 -12 10 -9 6 3 10 1 10 -4 0 -6 -6 -11 -14 -11 -21
0 -15 -40 8 -52 16 -9 18 -7 13 6 -4 9 -2 16 3 16 5 0 7 7 4 15 -4 8 -1 15 6
15 6 0 8 5 4 11 -3 6 -1 15 5 19 7 4 -1 7 -18 8 -21 0 -31 -4 -31 -14z"/>
<path d="M1000 320 c-30 -10 -50 -19 -45 -20 6 -1 19 -3 30 -5 11 -3 26 3 33
12 11 16 12 15 12 -1 0 -9 5 -14 11 -11 7 5 9 -31 7 -114 -3 -115 -2 -122 16
-119 13 2 20 12 21 31 0 15 -2 27 -5 27 -3 0 -6 28 -7 63 -1 34 1 57 5 51 4
-6 18 -14 32 -18 25 -6 25 -6 3 5 -13 7 -23 21 -24 33 -1 12 -2 28 -3 36 -2 8
-3 23 -4 33 -2 21 -12 21 -82 -3z"/>
<path d="M2883 320 c-13 -5 -23 -15 -23 -22 -1 -7 -25 -77 -54 -155 -33 -90
-49 -143 -41 -143 20 0 41 32 59 90 10 30 31 83 46 117 25 55 27 63 12 64 -13
0 -12 3 5 11 12 6 23 19 26 29 6 21 2 22 -30 9z"/>
<path d="M2477 313 c-4 -3 -2 -12 5 -20 13 -16 7 -24 -21 -26 -23 -1 -28 -13
-8 -20 9 -3 0 -37 -30 -125 -37 -107 -40 -122 -25 -122 13 0 22 16 35 58 39
132 73 207 90 204 9 -2 17 2 17 9 0 7 -9 9 -21 6 -18 -5 -20 -2 -16 19 4 23
-11 33 -26 17z"/>
<path d="M2702 159 c-30 -83 -51 -153 -48 -156 16 -16 35 15 73 118 22 63 48
131 57 152 16 37 16 37 -6 37 -20 0 -29 -17 -76 -151z"/>
<path d="M1768 277 c-5 -26 -3 -28 19 -24 17 3 32 -2 44 -14 15 -15 24 -17 37
-10 16 9 16 10 0 16 -10 4 -15 12 -11 19 4 6 0 6 -9 -2 -13 -10 -19 -10 -32 3
-9 9 -20 14 -25 11 -5 -4 -11 2 -13 11 -3 12 -6 9 -10 -10z"/>
<path d="M2314 265 c1 -13 -5 -20 -16 -19 -13 1 -16 -4 -12 -20 2 -11 -2 -41
-11 -66 -9 -25 -20 -63 -24 -85 -5 -22 -12 -48 -16 -58 -5 -12 -2 -17 9 -17 9
0 18 12 22 28 19 86 27 112 48 162 37 86 39 96 17 96 -12 0 -18 -7 -17 -21z"/>
<path d="M390 259 c11 -19 9 -20 -27 -13 -31 5 -36 4 -25 -7 6 -7 12 -23 12
-36 0 -13 4 -23 10 -23 5 0 7 13 4 29 -6 27 -4 29 17 23 19 -5 20 -7 7 -10
-10 -2 -18 -7 -18 -12 0 -5 7 -7 16 -3 14 5 15 3 5 -16 -7 -12 -9 -26 -5 -32
4 -6 0 -15 -7 -20 -11 -7 -9 -9 7 -9 14 0 20 6 19 19 -1 11 2 45 5 75 5 50 4
56 -12 56 -16 0 -17 -3 -8 -21z"/>
<path d="M1115 270 c-3 -5 -1 -10 4 -10 6 0 10 -3 9 -7 -2 -12 13 -43 21 -43
4 0 8 7 8 15 0 8 -4 12 -9 9 -5 -4 -9 0 -7 7 4 36 -11 53 -26 29z"/>
<path d="M2368 251 c11 -7 6 -31 -23 -122 -21 -63 -40 -117 -42 -121 -2 -5 2
-8 10 -8 8 0 30 44 56 117 24 64 45 123 48 130 4 9 -5 13 -28 13 -23 0 -29 -3
-21 -9z"/>
<path d="M2232 230 c-7 -11 -22 -20 -35 -20 -18 0 -19 2 -7 10 11 8 8 9 -15 6
-16 -2 -37 -5 -45 -6 -10 -1 -9 -4 5 -9 16 -6 9 -10 -28 -15 -41 -6 -46 -10
-36 -22 9 -11 15 -11 25 -3 18 15 34 3 34 -25 0 -12 6 -30 13 -39 10 -15 11
-10 9 32 l-4 49 36 4 c35 4 35 4 21 -19 -10 -15 -12 -23 -4 -23 7 0 9 -10 7
-25 -3 -14 -2 -25 2 -25 9 0 20 36 20 68 0 12 4 22 9 22 12 0 22 43 13 52 -4
4 -13 -1 -20 -12z"/>
<path d="M1496 188 c-13 -18 -16 -19 -16 -5 0 9 -5 17 -10 17 -7 0 -7 -7 1
-21 l11 -21 21 21 c11 11 18 23 15 26 -3 4 -13 -4 -22 -17z"/>
<path d="M1095 133 c10 -92 17 -94 13 -5 -2 39 -7 72 -11 72 -5 0 -5 -30 -2
-67z"/>
<path d="M6 183 c-3 -4 -6 -11 -6 -17 0 -6 5 -4 10 4 5 8 10 10 10 5 0 -6 11
-12 25 -13 15 -1 25 3 25 12 0 13 -52 20 -64 9z"/>
<path d="M848 166 c-10 -7 -18 -17 -18 -21 0 -4 7 -2 15 5 12 10 15 10 15 -4
0 -9 5 -16 10 -16 6 0 10 7 10 15 0 8 -5 15 -11 15 -5 0 -7 5 -4 10 8 13 4 12
-17 -4z"/>
<path d="M962 157 c-12 -13 -22 -27 -22 -33 0 -5 5 -1 11 10 9 15 13 16 20 5
7 -11 10 -9 15 9 6 21 7 21 21 5 13 -16 13 -16 3 5 -14 28 -21 28 -48 -1z"/>
<path d="M1153 133 c-18 -19 -33 -41 -33 -50 0 -20 23 -12 26 9 1 9 11 27 23
39 12 13 21 26 21 31 0 11 0 11 -37 -29z"/>
<path d="M315 146 c-19 -15 -19 -15 -1 -16 15 0 16 -3 6 -15 -7 -9 -10 -18 -6
-22 3 -3 6 0 6 8 0 10 2 11 8 2 5 -8 12 -9 22 -2 11 6 12 11 4 17 -7 4 -13 15
-15 25 -4 16 -6 17 -24 3z"/>
<path d="M645 138 c-11 -12 -15 -18 -8 -14 7 3 14 -2 18 -14 4 -11 10 -18 15
-15 4 2 10 -9 14 -26 5 -26 10 -30 32 -27 17 2 30 11 35 25 7 19 5 21 -17 19
-13 -2 -27 -6 -32 -11 -4 -4 -1 -5 6 -1 7 5 12 1 12 -9 0 -26 -23 -12 -31 18
-6 23 -4 27 12 27 16 0 18 2 7 14 -11 11 -15 11 -25 -3 -16 -22 -27 -7 -13 18
14 27 1 26 -25 -1z"/>
<path d="M58 118 c14 -14 16 -32 2 -23 -6 4 -7 -1 -3 -11 4 -11 8 -13 11 -6 2
7 11 12 19 12 14 0 14 3 -2 20 -10 11 -23 20 -29 20 -6 0 -5 -5 2 -12z"/>
<path d="M506 121 c-4 -6 -3 -18 3 -25 6 -7 7 -17 3 -21 -4 -5 -1 -5 6 -1 7 4
19 3 27 -4 23 -19 28 7 5 30 -12 12 -20 15 -21 8 0 -7 -4 -4 -8 6 -5 14 -10
16 -15 7z"/>
<path d="M813 117 c-4 -6 -1 -7 7 -2 8 5 11 3 8 -6 -3 -8 9 -24 25 -36 l30
-22 18 36 c20 39 19 60 -1 23 -13 -25 -56 -24 -54 1 1 17 -23 22 -33 6z"/>
<path d="M985 120 c-3 -6 -11 -8 -16 -5 -5 3 -6 -1 -3 -9 3 -8 1 -23 -5 -33
-10 -17 -11 -16 -17 5 -3 12 -11 22 -16 22 -5 0 -7 -4 -4 -9 4 -5 3 -17 0 -26
-5 -13 -8 -14 -15 -3 -7 10 -9 9 -9 -4 0 -10 4 -18 9 -18 5 0 16 -3 25 -6 10
-4 21 4 34 24 22 37 47 29 36 -12 -5 -20 -3 -25 8 -21 9 4 12 18 10 45 -4 41
-25 70 -37 50z"/>
<path d="M1430 78 c0 -32 -3 -39 -10 -28 -15 24 -11 -2 5 -30 14 -24 14 -22
15 38 0 34 -2 62 -5 62 -3 0 -5 -19 -5 -42z"/>
<path d="M389 103 c-7 -31 -2 -103 6 -103 5 0 10 25 10 55 1 30 -3 55 -7 55
-4 0 -9 -3 -9 -7z"/>
<path d="M615 100 c-3 -6 -4 -18 0 -28 4 -16 -1 -19 -30 -20 -34 -1 -84 -37
-70 -50 3 -4 11 0 16 8 8 11 12 12 16 2 7 -17 23 -5 16 13 -3 8 0 15 5 15 6 0
13 -10 15 -23 l4 -22 2 23 c0 13 5 20 11 17 5 -3 20 1 32 9 29 20 44 21 28 1
-11 -13 -10 -14 4 -9 9 3 16 9 16 13 0 11 -17 33 -26 33 -5 -1 -8 6 -6 14 3
16 -24 19 -33 4z"/>
<path d="M1311 55 c2 -51 4 -55 27 -55 20 0 23 4 18 23 -3 12 -6 37 -6 55 0
26 -4 32 -21 32 -18 0 -20 -5 -18 -55z"/>
<path d="M1491 95 c0 -11 9 -38 20 -60 20 -41 16 -17 -7 45 -8 21 -13 27 -13
15z"/>
<path d="M1166 92 c-4 -7 -3 -12 2 -12 6 0 13 -16 16 -35 4 -19 12 -37 17 -41
12 -7 7 15 -15 71 -8 19 -15 25 -20 17z"/>
<path d="M229 70 c0 -10 -2 -11 -6 -2 -5 12 -23 7 -23 -7 0 -14 35 -8 59 11
l24 18 -27 -2 c-15 -1 -26 -9 -27 -18z"/>
<path d="M1820 77 c-16 -12 -16 -77 0 -77 6 0 21 78 16 87 -1 1 -8 -4 -16 -10z"/>
<path d="M1928 73 c-10 -2 -18 -9 -18 -15 0 -5 7 -7 16 -4 9 3 24 6 35 6 10 0
19 5 19 10 0 10 -21 11 -52 3z"/>
<path d="M2173 50 c12 -31 20 -29 32 8 5 19 3 22 -18 22 -24 0 -25 -2 -14 -30z"/>
<path d="M2983 40 c-8 -32 -8 -40 3 -40 10 0 14 13 14 40 0 22 -1 40 -3 40 -2
0 -8 -18 -14 -40z"/>
<path d="M260 64 c0 -12 20 -41 20 -30 0 5 6 4 13 -1 18 -15 45 -12 52 5 4 11
0 13 -16 9 -12 -3 -32 1 -45 10 -13 8 -24 11 -24 7z"/>
<path d="M764 45 c3 -9 0 -15 -9 -15 -9 0 -12 -6 -8 -16 6 -15 8 -15 20 2 16
22 17 44 2 44 -6 0 -9 -7 -5 -15z"/>
<path d="M1057 21 c3 -12 12 -21 20 -21 20 0 12 34 -9 38 -12 2 -15 -2 -11
-17z"/>
</g>
</svg>
