<?xml version="1.0" standalone="no"?>
<!DOCTYPE svg PUBLIC "-//W3C//DTD SVG 20010904//EN"
 "http://www.w3.org/TR/2001/REC-SVG-20010904/DTD/svg10.dtd">
<svg version="1.0" xmlns="http://www.w3.org/2000/svg"
 width="175.000000pt" height="127.000000pt" viewBox="0 0 175.000000 127.000000"
 preserveAspectRatio="xMidYMid meet">
<metadata>
Created by potrace 1.10, written by Peter Selinger 2001-2011
</metadata>
<g transform="translate(0.000000,127.000000) scale(0.100000,-0.100000)"
fill="#000000" stroke="none">
<path d="M807 1248 c-21 -15 -31 -18 -40 -9 -18 18 -45 13 -58 -10 -9 -17 -17
-20 -45 -14 -30 5 -35 3 -46 -20 -9 -20 -18 -25 -47 -25 -31 0 -38 -4 -48 -30
-9 -24 -17 -30 -42 -30 -25 0 -31 -4 -31 -22 0 -32 -11 -45 -43 -53 -23 -6
-27 -13 -27 -40 0 -28 -5 -35 -29 -43 -27 -10 -29 -14 -24 -45 4 -30 2 -37
-18 -47 -13 -7 -25 -14 -27 -15 -1 -1 2 -15 8 -30 15 -40 -15 -69 -96 -91 -70
-18 -77 -23 -65 -42 6 -10 17 -9 50 3 61 21 190 51 316 71 156 26 563 27 720
1 132 -22 257 -51 344 -79 53 -17 65 -18 72 -7 15 24 5 33 -51 47 -72 18 -103
49 -95 95 6 29 3 36 -19 50 -21 14 -24 22 -20 47 5 25 2 31 -20 41 -19 9 -26
20 -26 41 0 24 -6 32 -34 43 -26 11 -35 22 -38 42 -2 23 -8 29 -35 31 -25 2
-34 10 -42 33 -8 24 -15 29 -44 29 -27 0 -36 5 -46 26 -10 22 -15 25 -42 19
-24 -5 -36 -2 -55 16 -21 19 -27 21 -50 10 -23 -10 -30 -9 -50 10 -22 21 -24
21 -49 5 -24 -16 -28 -16 -50 -2 -29 19 -24 20 -58 -6z m146 -69 c220 -33 388
-170 462 -378 8 -23 11 -41 7 -41 -4 0 -39 7 -77 15 -240 51 -603 57 -860 14
-38 -7 -78 -13 -87 -14 -10 -1 -21 -4 -24 -8 -11 -11 -24 -8 -24 4 0 6 18 49
40 96 85 182 258 297 483 322 5 1 41 -4 80 -10z"/>
<path d="M745 1141 c-90 -26 -162 -69 -230 -136 -60 -60 -126 -166 -124 -201
0 -11 13 6 27 36 71 145 174 234 331 285 42 14 77 16 165 13 101 -4 118 -8
188 -40 101 -48 198 -143 251 -248 22 -43 35 -62 32 -45 -12 56 -74 152 -137
210 -136 127 -333 176 -503 126z"/>
<path d="M720 1063 c-46 -17 -78 -81 -50 -98 6 -4 10 5 10 19 0 36 35 68 68
64 30 -3 42 -39 22 -64 -21 -25 -31 -16 -24 22 6 33 5 35 -13 26 -13 -8 -22
-30 -31 -80 -6 -38 -14 -76 -18 -85 -4 -13 -1 -17 14 -17 17 0 22 9 29 53 7
42 12 52 28 52 13 0 21 -8 23 -22 4 -30 -16 -66 -34 -59 -8 3 -14 -1 -14 -9 0
-24 47 -18 64 7 21 29 21 84 0 96 -14 8 -14 10 0 21 43 36 -16 95 -74 74z"/>
<path d="M1071 1027 c-6 -8 -13 -35 -16 -62 -2 -26 -9 -53 -14 -59 -13 -17 6
-58 25 -54 13 2 18 16 20 62 1 32 6 61 11 65 12 9 10 61 -3 61 -6 0 -17 -6
-23 -13z"/>
<path d="M861 981 c-24 -24 -34 -57 -29 -97 2 -23 9 -30 31 -32 17 -2 36 3 47
13 16 14 18 14 23 0 9 -21 50 -19 78 5 13 10 18 19 12 20 -9 0 -13 18 -13 55
0 47 -3 55 -18 55 -13 0 -23 -13 -32 -40 -15 -47 -62 -95 -84 -87 -19 8 -21
37 -3 37 22 0 49 37 45 62 -4 30 -32 34 -57 9z m36 -34 c-18 -28 -39 -35 -30
-10 10 28 24 43 35 37 5 -3 3 -15 -5 -27z m83 -27 c0 -39 -21 -64 -38 -45 -4
4 -1 10 6 12 6 3 12 13 12 23 0 20 10 50 16 50 2 0 4 -18 4 -40z"/>
<path d="M615 754 c-176 -25 -257 -40 -354 -65 -62 -15 -115 -30 -117 -32 -2
-1 3 -27 11 -57 8 -30 13 -55 11 -57 -2 -2 -41 -16 -87 -32 -61 -21 -79 -31
-66 -36 10 -4 46 3 88 19 40 15 74 24 77 21 8 -7 4 -9 -72 -37 l-68 -25 46
-29 c51 -32 52 -35 31 -93 -8 -22 -11 -41 -7 -41 4 0 53 17 109 37 105 38 130
68 32 39 -61 -19 -99 -20 -99 -5 0 5 4 7 10 4 5 -3 7 0 4 8 -7 18 20 45 52 53
13 3 21 10 18 15 -3 5 1 6 9 4 7 -3 60 6 118 20 57 14 118 25 134 25 l30 1
-25 14 c-14 8 -42 19 -63 25 -81 23 -91 153 -14 179 65 23 118 -45 96 -123 -5
-20 -14 -36 -20 -36 -6 0 -7 -5 -3 -11 3 -6 20 -9 36 -7 32 5 48 -9 27 -24
-10 -7 -7 -8 11 -3 51 14 438 18 537 5 181 -22 433 -82 433 -103 0 -5 -10 -6
-22 -3 -131 38 -264 68 -359 81 -150 21 -448 22 -588 1 -169 -26 -381 -81
-381 -99 0 -1 20 -3 45 -4 25 -1 43 2 40 7 -3 5 -1 11 4 14 13 9 42 -4 35 -16
-3 -5 3 -12 15 -15 11 -3 19 -9 16 -13 -3 -5 -56 -25 -118 -45 -104 -35 -148
-57 -136 -70 3 -3 55 13 115 35 146 53 174 53 174 -5 0 -28 4 -33 33 -41 26
-8 33 -15 35 -42 3 -28 7 -32 34 -32 24 0 32 -6 41 -30 10 -26 17 -30 47 -30
27 0 38 -5 45 -23 8 -18 17 -21 47 -19 29 3 39 -1 48 -17 12 -23 40 -27 57
-10 9 9 19 6 40 -9 26 -18 31 -19 56 -6 24 13 30 13 52 -2 24 -16 27 -16 48 4
20 19 27 20 55 10 29 -11 33 -10 48 11 14 19 22 22 50 16 30 -5 35 -3 46 20 9
19 19 25 43 25 27 0 35 5 45 30 10 24 19 30 41 30 25 0 30 5 36 30 4 23 15 35
39 45 28 11 34 19 34 43 0 18 6 32 16 36 13 5 106 -24 232 -71 6 -3 12 2 12
10 0 10 -35 27 -107 51 -132 45 -157 55 -150 62 6 6 78 -17 175 -55 29 -12 57
-21 62 -21 5 0 3 19 -5 41 -21 58 -20 61 31 93 l47 30 -72 25 c-39 13 -71 29
-71 34 0 5 8 6 18 2 69 -28 135 -46 150 -40 12 5 -7 16 -67 36 -46 16 -86 30
-88 32 -2 2 5 25 16 50 11 26 17 48 13 51 -19 11 -279 76 -367 91 -96 16 -553
30 -630 19z m75 -29 c0 -8 -4 -15 -9 -15 -6 0 -7 -24 -4 -55 8 -74 -12 -105
-67 -105 -46 0 -56 13 -66 88 -4 29 -11 55 -15 58 -17 10 -9 23 21 29 36 8 56
-1 40 -19 -13 -17 -10 -92 5 -113 7 -10 19 -14 29 -10 13 5 16 18 15 61 -1 36
-7 57 -16 60 -24 10 -14 25 20 29 17 2 35 5 40 5 4 1 7 -5 7 -13z m130 -56
c14 -39 28 -73 32 -76 5 -2 8 -11 8 -19 0 -9 -11 -14 -36 -14 -34 0 -36 2 -30
25 6 22 3 25 -19 25 -25 0 -33 -14 -15 -25 22 -13 8 -25 -30 -25 -43 0 -47 5
-26 33 8 10 22 47 32 83 14 53 21 64 38 64 18 0 26 -13 46 -71z m125 61 c3 -6
0 -12 -7 -15 -9 -4 -13 -24 -13 -62 0 -60 15 -80 35 -43 14 27 31 16 27 -18
-3 -25 -7 -27 -60 -30 -46 -2 -57 0 -57 13 0 8 5 15 10 15 6 0 10 27 10 60 0
33 -4 60 -10 60 -5 0 -10 7 -10 15 0 17 65 22 75 5z m135 -5 c0 -6 -4 -15 -9
-20 -12 -14 -20 -114 -10 -121 20 -12 7 -24 -26 -24 -24 0 -35 5 -35 15 0 8 5
15 10 15 6 0 10 27 10 60 0 33 -4 60 -10 60 -5 0 -10 7 -10 15 0 11 10 14 40
13 22 -1 40 -6 40 -13z m113 -1 c33 -6 37 -10 37 -35 0 -31 -17 -39 -26 -14
-12 29 -22 14 -26 -37 -2 -29 1 -61 6 -70 14 -23 8 -26 -36 -20 -35 4 -52 26
-27 34 5 2 14 29 18 61 6 45 5 57 -6 57 -7 0 -13 -7 -13 -15 0 -16 -15 -20
-24 -7 -3 5 -2 18 1 30 6 24 27 27 96 16z m114 -38 c-3 -11 -2 -30 2 -41 8
-19 8 -19 19 2 7 12 9 29 5 39 -5 15 -2 16 27 10 42 -8 49 -15 30 -29 -9 -7
-28 -29 -44 -49 -23 -30 -26 -43 -21 -69 6 -27 5 -31 -10 -26 -9 4 -25 7 -36
7 -10 0 -19 7 -19 15 0 8 5 15 10 15 15 0 12 51 -5 100 -20 57 -20 57 16 52
25 -4 30 -8 26 -26z m-973 -21 c-3 -14 -2 -25 3 -25 5 0 8 -17 7 -37 0 -27 6
-44 24 -62 l24 -24 -23 -18 c-13 -9 -30 -17 -39 -16 -36 2 -113 -28 -144 -58
-35 -33 -35 -33 -53 -12 -18 20 -18 20 7 8 24 -12 24 -11 -3 13 -30 28 -24 36
9 11 10 -8 23 -15 28 -15 6 0 1 6 -10 14 -15 12 -17 17 -6 27 6 7 12 10 12 5
0 -10 22 14 39 44 13 23 13 24 -2 12 -9 -8 -18 -9 -21 -4 -3 6 1 12 9 16 8 3
15 13 14 23 0 16 -1 15 -8 -2 -6 -15 -9 -7 -12 32 -2 28 -2 50 0 48 1 -2 14 0
28 6 18 7 22 6 17 -4 -4 -6 2 -4 13 6 11 9 34 17 51 17 18 0 32 5 32 10 0 6 2
10 5 10 3 0 3 -11 -1 -25z m1122 -7 c5 -8 2 -9 -9 -5 -10 3 -17 2 -17 -3 0
-12 4 -12 52 -1 21 5 36 5 33 1 -5 -7 32 -23 48 -21 12 2 8 -9 -14 -40 -11
-16 -18 -33 -15 -38 4 -5 2 -11 -4 -13 -6 -2 -6 -8 0 -18 8 -13 10 -12 10 3 0
9 4 17 10 17 5 0 7 -7 4 -15 -3 -8 1 -24 10 -37 9 -12 16 -18 16 -13 0 5 7 0
16 -11 8 -10 13 -13 9 -7 -4 9 -1 11 10 6 12 -4 13 -8 5 -13 -8 -5 -9 -13 -4
-21 6 -11 5 -12 -7 -2 -13 10 -15 5 -13 -35 2 -44 -7 -62 -31 -62 -5 1 -2 5 8
11 17 10 15 29 -4 29 -6 0 -8 -4 -5 -9 3 -5 -1 -12 -9 -15 -13 -4 -14 -2 -5
14 6 11 17 20 25 20 9 0 -3 19 -28 45 -24 25 -48 45 -53 45 -5 0 -3 -4 5 -9
10 -7 7 -9 -12 -8 -14 1 -23 5 -21 9 4 6 -94 34 -108 30 -7 -2 -2 37 7 46 2 3
1 10 -4 16 -6 7 1 25 20 50 16 22 29 35 30 30 0 -5 4 1 9 14 10 24 25 29 36
10z m-215 -46 c-6 -2 -9 -7 -6 -12 3 -4 -3 -14 -12 -21 -15 -13 -16 -11 -10
11 4 14 7 31 7 39 0 11 3 11 16 0 10 -8 12 -15 5 -17z m-109 -157 c62 -8 140
-21 173 -29 33 -8 63 -12 67 -10 3 2 10 -1 13 -6 18 -29 -118 -187 -203 -239
-107 -64 -153 -76 -297 -76 -113 1 -138 4 -190 24 -70 28 -156 84 -203 134
-45 46 -112 150 -104 159 7 7 209 43 282 51 95 10 360 6 462 -8z m428 -63 c0
-12 -33 -37 -54 -40 -10 -2 -15 1 -12 7 3 5 1 11 -6 14 -7 2 -1 3 14 1 16 -2
28 2 32 11 6 16 26 21 26 7z"/>
<path d="M767 669 c-10 -35 -9 -39 8 -39 16 0 18 14 6 44 -7 18 -8 18 -14 -5z"/>
<path d="M1527 487 c-2 -7 -2 -18 0 -25 4 -10 8 -10 19 -1 8 6 14 15 14 19 0
14 -28 19 -33 7z"/>
<path d="M780 420 c0 -5 4 -10 9 -10 4 0 16 -20 25 -45 l18 -45 57 0 58 0 19
47 c11 27 20 51 22 55 2 5 -1 8 -7 8 -6 0 -11 -6 -11 -12 -1 -17 -28 -53 -35
-46 -3 3 -1 17 4 32 6 14 7 26 2 26 -5 0 -12 -13 -16 -30 -12 -55 -30 -44 -28
18 1 6 -3 12 -8 12 -5 0 -9 -13 -9 -30 0 -16 -5 -30 -10 -30 -6 0 -13 14 -16
30 -9 41 -25 38 -18 -2 l6 -33 -21 25 c-11 14 -21 28 -21 33 0 11 -20 8 -20
-3z"/>
<path d="M427 383 c11 -32 74 -110 118 -146 184 -154 440 -168 636 -36 60 40
141 124 165 171 23 44 2 33 -29 -16 -99 -157 -308 -253 -495 -226 -82 11 -124
26 -194 67 -79 46 -120 83 -163 148 -37 57 -49 68 -38 38z"/>
<path d="M1120 382 c0 -4 5 -13 12 -20 9 -9 9 -12 0 -12 -19 0 -14 -35 8 -55
20 -18 21 -18 40 2 19 21 19 22 -14 57 -32 35 -46 44 -46 28z"/>
<path d="M592 360 c-18 -11 -32 -24 -32 -30 0 -15 16 -12 30 5 13 16 45 21 35
6 -9 -16 -67 -41 -78 -34 -5 3 -7 0 -5 -8 6 -16 42 -15 61 1 7 6 21 17 31 24
17 12 18 15 4 34 -14 21 -14 21 -46 2z"/>
<path d="M640 293 c-19 -24 -20 -28 -6 -31 9 -2 16 -8 16 -13 0 -5 8 -9 17 -9
9 0 13 3 10 7 -4 3 2 17 14 29 11 12 16 25 11 28 -5 3 -17 -3 -27 -14 -10 -11
-23 -20 -28 -20 -6 0 0 11 13 25 13 14 19 25 12 25 -6 0 -20 -12 -32 -27z"/>
<path d="M1087 313 c-12 -12 -7 -50 8 -63 19 -16 45 -6 45 17 0 15 -2 15 -9 4
-8 -12 -12 -12 -25 2 -20 20 -21 31 -2 24 10 -4 13 -1 9 9 -6 15 -16 18 -26 7z"/>
<path d="M722 274 c-25 -17 -30 -54 -8 -54 8 0 16 -6 19 -12 3 -8 7 -6 12 7 5
11 14 28 22 37 13 14 12 18 -5 27 -14 7 -24 6 -40 -5z"/>
<path d="M990 246 c0 -47 14 -66 33 -47 8 8 8 11 -1 11 -7 0 -12 16 -12 40 0
22 -4 40 -10 40 -5 0 -10 -20 -10 -44z"/>
<path d="M1037 283 c-4 -3 -7 -19 -7 -35 0 -34 25 -47 47 -25 15 15 14 15 -8
10 -21 -6 -23 -5 -10 10 20 25 0 62 -22 40z"/>
<path d="M781 235 c-13 -37 -14 -45 -3 -45 4 0 13 14 19 31 7 17 16 28 22 25
5 -4 12 -2 15 3 3 5 -5 11 -18 13 -19 4 -25 -1 -35 -27z"/>
<path d="M844 234 c-21 -31 -13 -51 23 -52 25 0 28 3 29 33 1 44 -29 55 -52
19z"/>
<path d="M938 253 c-10 -3 -18 -13 -18 -23 0 -10 -3 -25 -6 -34 -3 -9 -1 -16
5 -16 6 0 11 11 11 24 0 14 5 28 10 31 6 4 10 -7 10 -24 0 -21 5 -31 15 -31 8
0 15 5 15 10 0 6 -4 10 -9 10 -4 0 -6 11 -4 24 5 26 -3 34 -29 29z"/>
<path d="M414 656 c-10 -40 8 -81 38 -84 30 -4 42 26 30 73 -6 22 -15 31 -35
33 -21 3 -28 -2 -33 -22z"/>
</g>
</svg>
