<?xml version="1.0" standalone="no"?>
<!DOCTYPE svg PUBLIC "-//W3C//DTD SVG 20010904//EN"
 "http://www.w3.org/TR/2001/REC-SVG-20010904/DTD/svg10.dtd">
<svg version="1.0" xmlns="http://www.w3.org/2000/svg"
 width="300.000000pt" height="302.000000pt" viewBox="0 0 300.000000 302.000000"
 preserveAspectRatio="xMidYMid meet">
<metadata>
Created by potrace 1.10, written by Peter Selinger 2001-2011
</metadata>
<g transform="translate(0.000000,302.000000) scale(0.100000,-0.100000)"
fill="#000000" stroke="none">
<path d="M1250 2779 c-246 -20 -498 -168 -639 -373 -82 -119 -145 -294 -157
-436 l-7 -79 41 14 c53 19 308 69 447 89 200 28 317 36 530 36 330 0 571 -28
874 -101 67 -17 125 -29 127 -27 9 10 -19 186 -42 260 -98 313 -372 556 -684
607 -76 13 -382 19 -490 10z m480 -40 c78 -12 200 -52 193 -62 -3 -5 4 -6 17
-2 14 5 20 3 16 -3 -3 -6 8 -15 24 -21 17 -5 30 -14 30 -19 0 -6 11 -13 24
-16 14 -3 40 -21 59 -39 20 -18 41 -31 47 -29 8 3 10 0 6 -7 -4 -6 -1 -11 8
-11 9 0 26 -18 38 -40 14 -23 28 -38 36 -35 7 3 10 0 7 -5 -8 -13 30 -62 40
-52 5 4 5 -1 2 -11 -4 -10 -3 -16 3 -12 11 7 33 -32 25 -45 -3 -6 0 -10 7 -10
20 -1 74 -123 98 -222 28 -117 21 -170 -19 -149 -9 5 -68 18 -131 30 -163 31
-161 31 -155 41 3 5 -9 6 -29 3 -19 -3 -63 -1 -98 5 -63 11 -99 16 -246 30
-131 12 -584 4 -652 -13 -14 -3 -56 -8 -95 -10 -72 -5 -133 -17 -155 -30 -9
-6 -11 -4 -5 5 6 10 4 12 -9 7 -10 -4 -27 -7 -37 -7 -11 0 -18 -3 -16 -7 3 -5
-12 -9 -34 -11 -21 -1 -51 -7 -65 -12 -14 -6 -40 -10 -58 -10 -19 0 -50 -7
-69 -15 -20 -8 -39 -15 -42 -15 -3 0 -4 27 -3 60 1 33 5 55 9 49 6 -11 25 77
20 96 -4 14 42 125 52 125 4 0 6 4 2 9 -3 5 2 16 10 24 8 9 15 21 15 28 0 6 8
18 17 25 10 7 18 18 18 26 1 7 6 12 13 10 7 -1 12 7 12 19 0 13 4 18 12 13 7
-5 8 -3 3 6 -4 7 -3 15 3 19 6 4 42 37 81 74 38 37 74 67 79 67 6 0 18 9 26
21 8 12 19 19 24 15 5 -3 21 5 35 18 14 13 29 21 32 17 4 -3 13 2 20 13 8 10
18 15 24 11 6 -3 11 -2 11 3 0 5 14 9 31 10 17 0 36 5 42 10 17 13 55 23 112
28 27 3 51 7 53 9 8 8 429 3 482 -6z"/>
<path d="M1033 2580 c-28 -10 -54 -16 -57 -12 -3 3 -6 0 -6 -6 0 -7 -7 -9 -17
-5 -16 6 -16 5 -4 -10 9 -11 10 -17 2 -18 -23 -3 -27 -5 -59 -29 -43 -32 -80
-99 -77 -139 3 -34 28 -60 58 -61 12 0 16 -5 11 -12 -4 -7 11 4 33 25 21 20
43 34 48 30 4 -5 5 -2 1 5 -12 20 125 178 144 167 5 -3 12 0 16 6 4 8 3 9 -4
5 -27 -17 -9 4 21 24 28 18 29 20 7 15 -72 -20 -152 -89 -204 -177 -41 -70
-106 -91 -106 -35 0 67 101 159 233 212 37 15 67 29 67 31 0 10 -60 1 -107
-16z"/>
<path d="M1426 1963 l-48 -4 7 -64 c8 -81 8 -232 0 -270 -4 -17 -16 -58 -27
-92 -16 -53 -18 -69 -8 -98 6 -19 21 -42 33 -50 28 -20 90 -19 129 1 27 14 29
19 24 47 -10 47 -20 52 -61 28 -20 -11 -43 -21 -52 -21 -18 0 -16 10 21 118
14 41 33 111 41 157 17 89 17 247 0 250 -5 1 -32 0 -59 -2z m32 -125 c-3 -38
-11 -75 -17 -81 -9 -9 -11 -8 -6 3 3 9 1 45 -4 80 -6 45 -5 67 2 72 23 14 29
-7 25 -74z"/>
<path d="M1050 1938 c-19 -5 -36 -11 -38 -12 -1 -2 8 -22 22 -45 l23 -43 7 35
c4 19 13 40 21 47 16 13 20 31 8 29 -5 0 -24 -5 -43 -11z"/>
<path d="M1191 1927 c-40 -20 -79 -79 -96 -142 -20 -77 -22 -381 -2 -387 19
-7 72 7 70 18 -1 5 -5 36 -8 69 l-7 60 48 11 c27 7 50 11 52 9 2 -2 -8 -42
-22 -91 -28 -95 -26 -104 26 -104 36 0 42 14 62 147 19 123 25 279 13 334 -15
74 -75 108 -136 76z m74 -47 c18 -20 34 -110 20 -110 -5 0 -16 7 -25 15 -24
21 -62 25 -83 7 -9 -8 -20 -12 -24 -8 -10 10 -11 46 -1 46 5 0 13 11 20 25 9
20 41 40 69 44 3 1 14 -8 24 -19z m-23 -127 c13 -11 18 -30 18 -64 0 -52 0
-52 -76 -64 l-41 -6 9 63 c11 83 46 111 90 71z m41 -153 c6 -24 -3 -32 -23
-20 -11 7 -11 11 -1 24 17 20 18 20 24 -4z m-139 -8 c6 -10 -5 -26 -21 -29 -7
-2 -13 3 -13 10 0 24 23 36 34 19z"/>
<path d="M1568 1933 c-3 -4 0 -82 4 -173 5 -91 7 -208 5 -261 -5 -96 -5 -97
21 -108 14 -7 29 -8 33 -4 17 17 30 203 27 373 l-3 175 -42 3 c-22 2 -43 -1
-45 -5z"/>
<path d="M1815 1913 c4 -10 12 -34 17 -53 15 -54 28 -60 28 -11 0 23 5 51 10
62 10 17 7 19 -26 19 -30 0 -35 -3 -29 -17z"/>
<path d="M1721 1909 c-15 -6 -21 -14 -17 -25 16 -42 16 -159 1 -284 -10 -74
-20 -151 -22 -172 -4 -30 -1 -38 17 -48 15 -8 25 -8 34 0 15 11 36 134 36 205
0 46 16 69 26 38 37 -106 104 -197 155 -208 52 -12 59 4 38 93 -27 109 -35
240 -19 297 12 43 12 48 -8 67 -17 17 -24 19 -35 9 -27 -22 -40 -97 -34 -196
3 -52 2 -95 -3 -95 -7 0 -57 132 -104 278 -18 53 -24 57 -65 41z m70 -184 c6
-24 12 -48 13 -51 0 -4 -10 -11 -24 -14 -24 -7 -25 -5 -23 34 1 23 2 49 2 59
2 33 21 17 32 -28z m155 -205 c8 -37 8 -50 0 -50 -13 0 -65 39 -53 40 5 0 -1
13 -12 29 -27 37 -26 39 4 33 16 -3 25 0 25 9 0 29 25 -13 36 -61z"/>
<path d="M723 1889 c-18 -5 -33 -11 -33 -13 0 -2 15 -13 34 -24 l34 -20 13 27
c7 14 15 29 17 34 5 9 -25 8 -65 -4z"/>
<path d="M871 1886 c-34 -19 -78 -90 -90 -147 -20 -93 -9 -212 26 -286 46 -98
166 -95 215 5 20 41 23 61 22 157 -2 218 -71 327 -173 271z m104 -88 c23 -50
32 -88 20 -88 -3 0 -24 9 -46 21 l-40 20 -45 -26 c-43 -25 -44 -25 -44 -5 0
23 11 48 44 97 17 26 28 33 54 33 30 0 35 -5 57 -52z m-25 -108 c21 -21 23
-28 20 -104 -2 -57 -25 -122 -46 -130 -44 -17 -74 37 -74 134 0 62 3 74 25 95
29 30 49 31 75 5z"/>
<path d="M2036 1855 c-28 -30 -36 -65 -36 -159 0 -90 16 -190 37 -239 31 -71
118 -100 162 -53 43 45 51 136 26 281 -19 109 -37 149 -80 175 -44 27 -81 25
-109 -5z m110 -52 c21 -32 46 -133 34 -133 -5 0 -12 5 -15 10 -4 6 -11 8 -16
5 -5 -4 -9 -2 -9 4 0 16 -43 18 -68 2 -12 -7 -25 -11 -29 -7 -12 11 -3 100 12
123 22 33 67 31 91 -4z m-12 -148 c23 -24 39 -93 34 -153 -5 -58 -16 -76 -42
-66 -26 10 -46 58 -53 128 -8 90 20 132 61 91z"/>
<path d="M2214 1861 c3 -4 10 -21 16 -37 l12 -29 14 34 c18 43 19 41 -17 41
-16 0 -28 -4 -25 -9z"/>
<path d="M528 1818 l-58 -20 0 -53 c0 -69 18 -77 66 -30 37 38 64 44 84 20 20
-24 5 -56 -70 -144 -38 -46 -70 -91 -70 -100 0 -65 135 -110 242 -81 21 6 39
14 42 18 8 14 -21 107 -36 110 -7 1 -40 -9 -71 -23 -32 -14 -67 -25 -79 -25
-20 0 -19 3 13 38 98 103 139 171 139 231 0 78 -80 102 -202 59z m153 -39 c13
-21 11 -35 -8 -50 -9 -8 -14 -9 -10 -2 4 6 -6 22 -23 36 -16 14 -30 28 -30 30
0 11 63 -2 71 -14z m39 -319 c0 -10 -67 -20 -86 -13 -11 4 -4 11 23 23 36 16
63 12 63 -10z"/>
<path d="M2303 1825 c-32 -23 -45 -95 -37 -208 5 -76 12 -105 28 -130 46 -67
111 -74 143 -14 21 39 24 197 4 266 -23 81 -87 122 -138 86z m84 -65 c6 -14
15 -37 18 -52 l7 -27 -54 4 -53 4 2 37 c2 20 8 43 14 51 18 21 52 12 66 -17z
m2 -136 c22 -28 29 -115 12 -142 -24 -38 -80 20 -88 92 -9 74 35 103 76 50z"/>
<path d="M1806 1466 c3 -13 1 -41 -5 -62 -6 -21 -7 -41 -3 -44 4 -4 30 -5 59
-2 l51 4 -39 40 c-22 23 -42 51 -45 64 -3 13 -10 24 -15 24 -5 0 -7 -11 -3
-24z"/>
<path d="M2252 1417 c-6 -17 -11 -32 -9 -33 1 -1 16 1 34 4 l31 7 -22 26 -23
26 -11 -30z"/>
<path d="M1008 1379 l-27 -29 55 0 c30 0 54 2 54 5 0 5 -50 56 -53 54 -1 -1
-14 -14 -29 -30z"/>
<path d="M1318 1368 c-20 -20 -14 -28 24 -28 33 0 34 4 11 28 -17 16 -19 16
-35 0z"/>
<path d="M425 1296 c-8 -91 -1 -161 17 -183 8 -11 203 -13 1013 -13 l1003 0
26 30 c36 44 49 98 36 156 -15 68 -27 86 -48 75 -29 -15 -201 -48 -327 -63
-154 -17 -721 -17 -945 1 -161 12 -659 65 -732 77 l-36 6 -7 -86z m195 25 c25
-5 54 -13 65 -16 17 -6 18 -5 5 5 -12 9 -8 10 20 4 19 -4 64 -8 100 -9 36 -1
79 -5 96 -9 34 -7 90 -13 199 -21 39 -3 133 -10 210 -16 87 -7 253 -9 440 -6
389 7 490 14 550 37 15 6 30 8 35 5 5 -3 11 -1 15 5 3 5 24 10 46 10 21 0 39
5 39 10 0 6 5 10 12 10 6 0 9 -3 5 -6 -3 -3 2 -15 12 -25 27 -29 27 -101 -1
-133 l-23 -27 -985 1 c-867 0 -986 2 -996 15 -15 20 -7 167 9 178 13 9 75 4
147 -12z"/>
<path d="M470 857 c0 -17 5 -18 36 -12 40 7 40 9 -8 -62 -42 -63 -38 -73 27
-73 41 0 55 4 55 14 0 10 -13 16 -34 18 l-35 3 36 58 c20 31 34 59 32 61 -2 2
-28 6 -56 8 -48 5 -53 3 -53 -15z"/>
<path d="M619 851 c-56 -57 -29 -141 45 -141 71 0 106 105 50 149 -36 28 -60
26 -95 -8z m75 -17 c20 -19 21 -68 2 -84 -44 -36 -95 25 -62 74 19 30 38 33
60 10z"/>
<path d="M808 868 c-9 -7 -25 -43 -37 -80 -25 -80 -25 -78 -6 -78 8 0 15 6 15
14 0 8 14 15 35 18 27 3 36 0 41 -14 6 -19 34 -25 34 -8 0 14 -50 144 -59 153
-4 4 -14 1 -23 -5z m27 -75 c5 -19 2 -23 -14 -23 -23 0 -24 3 -15 38 7 26 18
20 29 -15z"/>
<path d="M917 874 c-4 -4 -7 -43 -7 -86 l0 -78 45 0 c33 0 45 4 45 15 0 10
-10 15 -31 15 l-31 0 4 67 c3 62 -6 86 -25 67z"/>
<path d="M1018 873 c-2 -4 -2 -43 0 -85 3 -60 7 -78 18 -78 12 0 14 15 12 82
-2 50 -7 83 -15 85 -6 2 -13 0 -15 -4z"/>
<path d="M1087 872 c-2 -4 -4 -42 -5 -84 -2 -70 0 -78 16 -78 16 0 18 7 14 56
-6 67 4 66 38 -5 18 -40 29 -51 47 -51 22 0 23 3 23 85 0 69 -3 85 -15 85 -12
0 -15 -14 -15 -62 l-1 -63 -30 57 c-27 49 -63 79 -72 60z"/>
<path d="M1290 867 c-75 -38 -55 -157 27 -157 47 0 73 29 73 83 0 48 -6 59
-37 76 -27 14 -32 14 -63 -2z m51 -27 c13 -7 19 -21 19 -44 0 -39 -19 -59 -52
-54 -19 2 -24 10 -26 41 -3 37 10 67 30 67 5 0 18 -5 29 -10z"/>
<path d="M1465 870 c-42 -16 -62 -70 -44 -117 13 -34 26 -43 62 -43 41 0 63
15 76 52 15 42 -1 91 -35 107 -29 13 -32 13 -59 1z m46 -30 c22 -12 27 -68 7
-88 -21 -21 -58 -14 -68 13 -14 37 4 76 38 84 2 1 12 -4 23 -9z"/>
<path d="M1650 794 l0 -84 36 0 c19 0 44 5 55 10 21 12 26 49 8 67 -8 8 -7 17
2 32 19 29 -3 48 -58 54 l-43 4 0 -83z m75 46 c8 -13 -13 -40 -31 -40 -8 0
-14 10 -14 25 0 18 5 25 19 25 11 0 23 -5 26 -10z m2 -75 c7 -19 5 -20 -24
-29 -20 -6 -23 -4 -23 18 0 19 5 26 20 26 11 0 23 -7 27 -15z"/>
<path d="M1790 807 c0 -84 8 -97 62 -97 52 0 70 29 66 107 -2 43 -7 58 -18 58
-12 0 -14 -12 -12 -61 4 -67 -11 -91 -48 -79 -18 6 -20 15 -20 76 0 55 -3 69
-15 69 -12 0 -15 -15 -15 -73z"/>
<path d="M1957 873 c-2 -4 -4 -43 -4 -85 -1 -71 1 -78 19 -78 17 0 19 5 13 30
-4 17 -3 30 2 30 5 0 17 -13 26 -30 20 -34 66 -45 48 -12 -5 10 -17 25 -26 32
-14 12 -14 15 5 32 23 21 26 51 8 65 -18 14 -85 25 -91 16z m68 -48 c0 -13 -8
-21 -22 -23 -17 -3 -23 2 -23 16 0 10 3 22 7 26 13 13 38 1 38 -19z"/>
<path d="M2130 867 c-50 -25 -63 -87 -29 -131 18 -23 27 -27 68 -24 l46 3 3
43 c2 32 0 42 -12 42 -9 0 -16 -12 -18 -32 -3 -29 -6 -33 -28 -30 -31 5 -37
10 -45 44 -10 40 26 72 71 63 26 -4 34 -2 34 8 0 28 -49 35 -90 14z"/>
<path d="M2288 873 l-38 -4 0 -80 0 -79 45 0 c33 0 45 4 45 15 0 10 -10 15
-30 15 -23 0 -30 4 -30 20 0 16 7 20 30 20 21 0 30 5 30 16 0 11 -8 15 -27 12
-23 -2 -29 1 -31 21 -3 21 -1 23 27 19 25 -4 31 -1 31 14 0 10 -3 17 -7 16 -5
-1 -25 -3 -45 -5z"/>
<path d="M2377 874 c-4 -4 -7 -43 -7 -86 0 -63 3 -78 15 -78 10 0 15 10 15 30
0 17 4 30 9 30 5 0 14 -13 21 -30 9 -22 19 -30 38 -30 l25 0 -20 23 c-33 36
-35 45 -13 67 23 23 24 30 8 52 -14 18 -79 34 -91 22z m58 -49 c0 -11 -8 -21
-17 -23 -14 -3 -18 3 -18 23 0 20 4 26 18 23 9 -2 17 -12 17 -23z"/>
<path d="M1150 645 c0 -7 11 -12 25 -12 14 0 25 5 25 12 0 7 -11 13 -25 13
-14 0 -25 -6 -25 -13z"/>
<path d="M1740 610 c0 -47 -2 -50 -25 -50 -21 0 -25 5 -25 30 0 21 -5 30 -16
30 -13 0 -15 -7 -10 -30 5 -27 3 -30 -19 -30 -21 0 -25 5 -25 31 0 20 -4 29
-12 26 -8 -2 -12 -15 -10 -30 3 -24 0 -27 -27 -27 -29 0 -30 2 -24 30 5 29 4
30 -31 30 -29 0 -39 -5 -48 -25 -13 -29 3 -55 33 -55 11 0 19 -4 19 -10 0 -5
-13 -10 -30 -10 -16 0 -30 -4 -30 -10 0 -5 16 -10 36 -10 27 0 37 5 41 20 5
18 14 20 114 20 l109 0 0 44 c0 24 3 51 6 60 4 11 1 16 -10 16 -13 0 -16 -11
-16 -50z m-220 -30 c0 -11 -7 -20 -15 -20 -8 0 -15 9 -15 20 0 11 7 20 15 20
8 0 15 -9 15 -20z"/>
<path d="M1050 570 c0 -38 -4 -50 -15 -50 -8 0 -15 -4 -15 -10 0 -18 40 -10
52 10 11 17 24 20 80 20 68 0 68 0 68 28 0 15 -5 33 -12 40 -28 28 -88 2 -74
-33 4 -11 -2 -15 -24 -15 -27 0 -30 3 -30 30 0 20 -5 30 -15 30 -11 0 -15 -12
-15 -50z m140 10 c0 -11 -7 -20 -15 -20 -8 0 -15 9 -15 20 0 11 7 20 15 20 8
0 15 -9 15 -20z"/>
<path d="M1240 570 c0 -37 -4 -50 -14 -50 -8 0 -18 -4 -21 -10 -4 -6 5 -10 20
-10 18 0 29 6 32 20 5 18 14 20 79 20 l74 0 0 40 c0 29 -4 40 -15 40 -10 0
-15 -10 -15 -30 0 -20 -5 -30 -15 -30 -10 0 -15 10 -15 30 0 20 -5 30 -15 30
-10 0 -15 -10 -15 -30 0 -27 -3 -30 -31 -30 -30 0 -31 2 -25 30 4 22 2 30 -9
30 -11 0 -15 -13 -15 -50z"/>
<path d="M1792 608 c-25 -25 -6 -68 31 -68 10 0 15 -4 12 -10 -3 -5 -17 -10
-31 -10 -13 0 -24 -4 -24 -10 0 -14 54 -12 68 2 7 7 12 34 12 60 0 46 -1 48
-28 48 -15 0 -33 -5 -40 -12z m48 -28 c0 -11 -6 -20 -14 -20 -18 0 -29 16 -21
30 11 18 35 11 35 -10z"/>
<path d="M1890 570 c0 -38 -4 -50 -15 -50 -8 0 -15 -4 -15 -10 0 -18 39 -11
50 9 16 31 13 101 -5 101 -11 0 -15 -12 -15 -50z"/>
<path d="M711 590 c-207 -4 -235 -7 -245 -22 -23 -37 3 -42 249 -46 l235 -4 0
41 c0 23 -1 40 -2 39 -2 -1 -108 -5 -237 -8z"/>
<path d="M1994 591 c-2 -2 -4 -19 -4 -38 l0 -33 228 0 c241 0 268 5 260 46 -3
18 -16 19 -241 24 -132 3 -241 3 -243 1z"/>
<path d="M1634 519 c-6 -11 -7 -10 29 -15 17 -2 27 2 27 10 0 15 -47 19 -56 5z"/>
</g>
</svg>
